<svg width="1044" height="38" viewBox="0 0 1044 38" fill="none" xmlns="http://www.w3.org/2000/svg">
<g opacity="0.9" clip-path="url(#clip0_554_6855)">
<path fill-rule="evenodd" clip-rule="evenodd" d="M48.0784 18.5089L45.7289 17.9992C44.5533 17.7443 43.9061 17.0192 43.9061 15.9566C43.9061 14.6062 45.105 13.5874 46.6953 13.5874C48.8958 13.5874 49.5455 15.2064 49.6927 15.7032C49.7394 15.8683 49.8543 16.0083 50.0086 16.0855C50.1594 16.1627 50.3281 16.1742 50.4897 16.1178L51.7281 15.6809C51.8768 15.6281 51.9997 15.5205 52.0718 15.3802C52.1438 15.2398 52.1596 15.0772 52.1158 14.9256C51.7963 13.8021 50.6225 11.1887 46.6414 11.1887C43.6943 11.1887 41.2066 13.4431 41.2066 16.1121C41.2066 18.4059 42.7118 20.1003 45.2343 20.6495L47.4743 21.1377C48.8226 21.4213 49.6281 22.2433 49.6281 23.3346C49.6281 24.7274 48.483 25.5926 46.6379 25.5926C44.4697 25.5926 43.425 24.171 43.1702 22.8392C43.154 22.7534 43.1199 22.6719 43.0699 22.6002C43.0199 22.5286 42.9553 22.4683 42.8803 22.4235C42.8053 22.3787 42.7216 22.3504 42.6348 22.3404C42.548 22.3303 42.4601 22.3389 42.3768 22.3654L41.0163 22.7997C40.8733 22.8433 40.7514 22.9381 40.6739 23.0659C40.5964 23.1937 40.5688 23.3456 40.5963 23.4926C41.0199 25.7003 42.8338 28.0551 46.663 28.0551C49.8988 28.0551 52.3391 25.9479 52.3391 23.1551C52.3391 20.7967 50.7826 19.1023 48.0673 18.5028L48.0784 18.5089ZM61.9783 20.6567C61.9854 20.7033 61.9639 20.7392 61.9495 20.7536C61.9377 20.7683 61.9226 20.7801 61.9055 20.7882C61.8884 20.7963 61.8697 20.8004 61.8508 20.8003H56.8611C56.8412 20.8003 56.8216 20.7957 56.8038 20.787C56.7859 20.7783 56.7703 20.7657 56.7581 20.75C56.7467 20.7369 56.7385 20.7213 56.7341 20.7045C56.7298 20.6877 56.7294 20.6701 56.7329 20.6531C56.9609 19.6128 57.8529 18.5638 59.3319 18.5638C60.7847 18.5638 61.7729 19.3428 61.9758 20.6506L61.9783 20.6567ZM59.3125 16.2341C56.6848 16.2341 53.9674 18.431 53.9674 22.1105C53.9674 23.8838 54.5489 25.3987 55.651 26.4864C56.6719 27.4951 58.0669 28.0515 59.5782 28.0515C61.8289 28.0515 63.6525 26.8755 64.4566 24.9069C64.5212 24.7454 64.5177 24.5659 64.448 24.4079C64.4137 24.3313 64.3639 24.2626 64.3018 24.206C64.2398 24.1494 64.1667 24.1062 64.0872 24.0791L62.9888 23.6986C62.8418 23.6481 62.6811 23.6549 62.5389 23.7177C62.3967 23.7804 62.2834 23.8945 62.2216 24.0371C61.7478 25.1535 60.8575 25.7171 59.576 25.7171C58.0252 25.7171 56.8442 24.6725 56.6396 23.1171C56.637 23.0997 56.6384 23.0819 56.6437 23.0651C56.649 23.0483 56.658 23.0329 56.6701 23.0202C56.6845 23.0022 56.7168 22.9735 56.767 22.9735H64.0485C64.3751 22.9735 64.648 22.7186 64.6659 22.3934C64.6731 22.2893 64.6767 22.1744 64.6767 22.061C64.6767 18.4641 62.6198 16.2302 59.31 16.2302L59.3125 16.2341ZM71.7115 24.9644C69.9633 24.9644 68.8756 23.751 68.8756 21.7982C68.8756 19.8741 69.9884 18.6306 71.7115 18.6306C73.3807 18.6306 74.5022 19.9014 74.5022 21.7968C74.5022 23.69 73.38 24.9629 71.7111 24.9629L71.7115 24.9644ZM76.371 16.5644H75.0535C74.7125 16.5644 74.4343 16.8418 74.4343 17.1997C74.4342 17.2251 74.4267 17.2498 74.4126 17.2708C74.3986 17.2919 74.3787 17.3084 74.3553 17.3182C74.3302 17.329 74.28 17.3433 74.2347 17.3003C73.5563 16.68 72.6014 16.3651 71.3988 16.3651C68.4183 16.3651 66.2547 18.6518 66.2547 21.8C66.2547 24.9346 68.4183 27.2097 71.3988 27.2097C72.5009 27.2097 73.4988 26.8479 74.2096 26.191C74.2563 26.1479 74.3065 26.1587 74.3316 26.1694C74.3496 26.1766 74.4106 26.2089 74.4106 26.2879V26.7402C74.4106 28.9299 73.4522 29.9512 71.3988 29.9512C70.0958 29.9512 69.0727 29.1435 68.7963 27.895C68.7604 27.7335 68.6634 27.5971 68.5234 27.5098C68.3834 27.4226 68.2147 27.395 68.0532 27.4309L66.7594 27.7288C66.6006 27.7666 66.4629 27.8653 66.376 28.0036C66.2891 28.1419 66.26 28.3088 66.2949 28.4683C66.758 30.737 68.8099 32.2627 71.396 32.2627C73.3237 32.2627 74.7919 31.6757 75.7611 30.5181C76.5616 29.561 76.9852 28.2325 76.9852 26.676V17.1929C76.9852 16.8519 76.7088 16.5755 76.3678 16.5755L76.371 16.5644ZM92.033 16.2542C90.5756 16.2542 89.3899 16.8042 88.6034 17.8481C88.5901 17.8674 88.572 17.8829 88.551 17.8933C88.5299 17.9036 88.5066 17.9083 88.4831 17.9069C88.4658 17.9071 88.4487 17.9028 88.4336 17.8943C88.4184 17.8857 88.4058 17.8734 88.397 17.8585C87.7375 16.839 86.5992 16.2538 85.2739 16.2538C84.2196 16.2538 83.2062 16.6243 82.4926 17.2715C82.4754 17.2895 82.4529 17.3016 82.4284 17.3062C82.4039 17.3107 82.3787 17.3073 82.3562 17.2967C82.3341 17.2876 82.3154 17.272 82.3026 17.252C82.2898 17.232 82.2834 17.2084 82.2844 17.1847C82.2844 16.8436 82.0065 16.5672 81.6655 16.5672H80.4141C80.0731 16.5672 79.7967 16.8436 79.7967 17.1847V27.1031C79.7967 27.4442 80.0745 27.7213 80.4156 27.7213H81.733C82.074 27.7213 82.3504 27.4427 82.3504 27.1017V21.0555C82.3504 19.5862 83.2479 18.5987 84.5868 18.5987C86.3386 18.5987 86.6007 19.9725 86.6007 20.7909V27.1125C86.6007 27.4535 86.8771 27.7299 87.2181 27.7299H88.5582C88.8992 27.7299 89.1756 27.4521 89.1756 27.111V21.0339C89.1756 19.5995 90.0874 18.5979 91.3905 18.5979C93.1433 18.5979 93.4043 19.9728 93.4043 20.7913V27.1128C93.4043 27.4538 93.6807 27.7303 94.0218 27.7303H95.3392C95.6802 27.7303 95.9566 27.4524 95.9566 27.1114V20.5673C95.9566 17.595 93.9859 16.2657 92.033 16.2657V16.2542ZM100.939 20.8089C100.919 20.8088 100.9 20.8043 100.882 20.7958C100.864 20.7872 100.849 20.7747 100.836 20.7593C100.825 20.7462 100.817 20.7309 100.813 20.7143C100.809 20.6978 100.809 20.6805 100.812 20.6638C101.041 19.6228 101.932 18.5746 103.413 18.5746C104.865 18.5746 105.854 19.3536 106.056 20.6603C106.064 20.7069 106.041 20.7428 106.028 20.7572C106.015 20.7705 106 20.7812 105.983 20.7886C105.966 20.796 105.947 20.8 105.929 20.8003H100.939V20.8089ZM103.391 16.2427C100.763 16.2427 98.0459 18.4411 98.0459 22.1191C98.0459 23.8946 98.6274 25.4084 99.728 26.4972C100.747 27.5059 102.14 28.0587 103.655 28.0587C105.902 28.0587 107.726 26.8813 108.534 24.9105C108.598 24.749 108.595 24.5695 108.523 24.4115C108.451 24.2536 108.322 24.1387 108.16 24.0813L107.062 23.7015C106.757 23.5963 106.419 23.7446 106.294 24.0396C105.821 25.1532 104.93 25.7196 103.649 25.7196C102.098 25.7196 100.917 24.6729 100.712 23.1171C100.71 23.0995 100.711 23.0815 100.716 23.0644C100.721 23.0472 100.729 23.0314 100.741 23.018C100.755 23.0001 100.788 22.9731 100.838 22.9731H108.122C108.448 22.9731 108.72 22.7183 108.739 22.3927C108.745 22.2886 108.75 22.1737 108.75 22.0588C108.75 18.4619 106.693 16.2255 103.383 16.2255L103.391 16.2427ZM116.59 16.2653C115.476 16.2653 114.499 16.6451 113.765 17.3638C113.749 17.3807 113.727 17.3922 113.704 17.3967C113.68 17.4012 113.656 17.3985 113.634 17.3889C113.611 17.3791 113.592 17.3628 113.579 17.3421C113.565 17.3214 113.558 17.2973 113.559 17.2726V17.1936C113.559 16.8526 113.281 16.5762 112.94 16.5762H111.647C111.306 16.5762 111.029 16.8526 111.029 17.1936V27.1103C111.029 27.4513 111.305 27.7288 111.646 27.7288H112.985C113.326 27.7288 113.604 27.4506 113.604 27.1096V21.3204C113.604 20.0252 114.191 18.641 115.841 18.641C117.323 18.641 118.076 19.4606 118.076 21.0767V27.1074C118.076 27.4485 118.352 27.7249 118.693 27.7249H120.032C120.373 27.7249 120.65 27.4449 120.65 27.1038V20.7216C120.65 17.9719 119.093 16.2632 116.59 16.2632L116.59 16.2653ZM126.889 18.9512H128.451C128.792 18.9512 129.068 18.673 129.068 18.3323V17.1929C129.068 16.8519 128.792 16.5755 128.451 16.5755H126.889C126.873 16.5755 126.856 16.5722 126.841 16.5659C126.826 16.5596 126.812 16.5504 126.8 16.5387C126.789 16.527 126.779 16.5132 126.773 16.4979C126.767 16.4827 126.763 16.4663 126.763 16.4498V13.8243C126.763 13.4833 126.485 13.2062 126.144 13.2062H124.981C124.64 13.2062 124.364 13.4833 124.364 13.8243V15.1812C124.364 15.8166 124.12 16.5751 122.968 16.5751H122.77C122.428 16.5751 122.152 16.8515 122.152 17.1926V18.3305C122.152 18.6715 122.43 18.9479 122.77 18.9479H124.065C124.135 18.9479 124.191 19.0018 124.191 19.0736V24.5551C124.191 26.5797 125.424 27.8362 127.407 27.8362C127.96 27.8362 128.39 27.7572 128.597 27.7105C128.877 27.6459 129.074 27.3982 129.074 27.1074V26.0524C129.074 25.9656 129.056 25.8798 129.02 25.8006C128.985 25.7213 128.933 25.6504 128.869 25.5925C128.804 25.5345 128.728 25.4907 128.645 25.464C128.563 25.4373 128.476 25.4283 128.389 25.4375C128.249 25.4518 128.114 25.4601 128.007 25.4601C127.106 25.4601 126.769 25.1298 126.769 24.2432V19.074C126.769 19.005 126.826 18.949 126.894 18.949" fill="#1B263A"/>
<mask id="mask0_554_6855" style="mask-type:alpha" maskUnits="userSpaceOnUse" x="0" y="21" width="29" height="12">
<path d="M28.2879 32.9951H0V21.3481H28.2879V32.9951Z" fill="white"/>
</mask>
<g mask="url(#mask0_554_6855)">
<path fill-rule="evenodd" clip-rule="evenodd" d="M18.6401 24.2207H1.4359C0.642564 24.2207 0 23.5781 0 22.7848C0 21.9914 0.642564 21.3489 1.4359 21.3489H18.6401C19.4334 21.3489 20.076 21.9914 20.076 22.7848C20.076 23.5781 19.4334 24.2207 18.6401 24.2207Z" fill="#1B263A"/>
<path fill-rule="evenodd" clip-rule="evenodd" d="M14.9509 33.0166C13.5495 33.0166 12.1653 32.8084 10.8371 32.3966C10.4733 32.2839 10.1693 32.0313 9.99177 31.6945C9.81425 31.3576 9.7778 30.964 9.89044 30.6003C10.1252 29.8393 10.9315 29.4157 11.6871 29.6526C12.7396 29.9793 13.8374 30.1444 14.9509 30.1444C19.8233 30.1444 24.0538 27.0177 25.4785 22.3618C25.5337 22.1816 25.6238 22.0139 25.7438 21.8685C25.8638 21.7231 26.0113 21.6028 26.1778 21.5144C26.3444 21.4261 26.5267 21.3714 26.7144 21.3536C26.9021 21.3358 27.0914 21.3551 27.2716 21.4106C28.0298 21.6403 28.4562 22.4444 28.2243 23.2018C26.428 29.0714 21.0937 33.0166 14.9509 33.0166Z" fill="#1B263A"/>
</g>
<path fill-rule="evenodd" clip-rule="evenodd" d="M28.4656 16.9255H11.2621C10.4687 16.9255 9.82617 16.2829 9.82617 15.4896C9.82617 14.6963 10.4687 14.0537 11.2621 14.0537H28.4656C29.2589 14.0537 29.9015 14.6963 29.9015 15.4896C29.9015 16.2829 29.2589 16.9255 28.4656 16.9255Z" fill="#1B263A"/>
<path fill-rule="evenodd" clip-rule="evenodd" d="M3.05133 16.9259C2.82675 16.9259 2.6053 16.8733 2.40476 16.7722C2.20422 16.6711 2.03019 16.5244 1.89665 16.3438C1.76312 16.1633 1.67379 15.9539 1.63586 15.7325C1.59793 15.5112 1.61245 15.284 1.67825 15.0693C3.47492 9.20007 8.80928 5.25781 14.9513 5.25781C16.3538 5.25781 17.738 5.46602 19.0652 5.87812C19.2453 5.93393 19.4127 6.02467 19.5577 6.14516C19.7028 6.26566 19.8227 6.41355 19.9106 6.58039C19.9985 6.74723 20.0527 6.92975 20.0701 7.11752C20.0874 7.3053 20.0676 7.49466 20.0118 7.67479C19.9562 7.85502 19.8655 8.02251 19.745 8.16766C19.6246 8.31281 19.4767 8.43277 19.3098 8.52066C19.1429 8.60856 18.9603 8.66267 18.7724 8.6799C18.5846 8.69712 18.3952 8.67712 18.2151 8.62104C17.1633 8.29797 16.0649 8.13284 14.9513 8.13284C10.08 8.13284 5.84882 11.2595 4.42405 15.9154C4.334 16.2092 4.15212 16.4664 3.90512 16.6493C3.65812 16.8321 3.359 16.931 3.05169 16.9313" fill="#1B263A"/>
<path fill-rule="evenodd" clip-rule="evenodd" d="M24.9099 10.0179C24.9099 10.3988 24.7586 10.764 24.4893 11.0333C24.22 11.3025 23.8548 11.4538 23.474 11.4538C23.0932 11.4538 22.7279 11.3025 22.4586 11.0333C22.1894 10.764 22.0381 10.3988 22.0381 10.0179C22.0381 9.63711 22.1894 9.27188 22.4586 9.0026C22.7279 8.73331 23.0932 8.58203 23.474 8.58203C23.8548 8.58203 24.22 8.73331 24.4893 9.0026C24.7586 9.27188 24.9099 9.63711 24.9099 10.0179ZM7.86398 28.2589C7.86398 28.6397 7.7127 29.0049 7.44342 29.2742C7.17413 29.5435 6.80891 29.6948 6.42808 29.6948C6.04726 29.6948 5.68204 29.5435 5.41275 29.2742C5.14347 29.0049 4.99219 28.6397 4.99219 28.2589C4.99219 27.878 5.14347 27.5128 5.41275 27.2435C5.68204 26.9742 6.04726 26.823 6.42808 26.823C6.80891 26.823 7.17413 26.9742 7.44342 27.2435C7.7127 27.5128 7.86398 27.878 7.86398 28.2589Z" fill="#1B263A"/>
</g>
<g clip-path="url(#clip1_554_6855)">
<path d="M930.049 16.0265V28.7065C930.049 29.4965 930.694 30.1365 931.477 30.1365H934.512C934.773 30.1365 934.985 30.3475 934.985 30.6135V36.2315C934.985 36.3645 935.077 36.4015 935.17 36.3275L942.74 30.4255C942.944 30.2655 943.324 30.1365 943.58 30.1365H958.62C959.409 30.1365 960.049 29.4965 960.049 28.7095V12.6235C960.042 12.4777 960.003 12.3355 959.934 12.207C959.864 12.0786 959.767 11.9674 959.649 11.8815L944.876 2.28545C944.756 2.21429 944.618 2.17676 944.478 2.17676C944.338 2.17676 944.201 2.21429 944.08 2.28545L929.877 11.6195C929.437 11.9085 929.47 12.3295 929.937 12.5565L944.587 19.6365C945.059 19.8665 945.777 19.7935 946.199 19.4695L955.497 12.3165" stroke="#1B263A" stroke-width="2"/>
<path fill-rule="evenodd" clip-rule="evenodd" d="M987.158 18.1184C987.158 22.4544 984.278 24.8934 981.253 24.8934C979.164 24.8934 977.843 23.8094 976.956 22.6034V28.5644H974.051V11.6144H976.956V13.7824C977.892 12.4274 979.212 11.3434 981.253 11.3434C984.253 11.3434 987.158 13.7834 987.158 18.1184ZM984.205 18.1184C984.205 15.5564 982.549 13.9304 980.58 13.9304C978.612 13.9304 976.884 15.5804 976.884 18.1184C976.884 20.6564 978.612 22.3074 980.58 22.3074C982.573 22.3074 984.205 20.7054 984.205 18.1184ZM992.475 19.6704C992.475 16.2214 994.251 14.5224 996.795 14.5224H996.963V11.3684C994.731 11.2704 993.267 12.6004 992.474 14.5464V11.6144H989.571V24.6224H992.475V19.6704ZM1000.69 19.1784C1001.03 21.2964 1002.47 22.4794 1004.34 22.4794C1005.76 22.4794 1006.77 21.9374 1007.78 20.9274L1009.48 22.4794C1008.28 23.9574 1006.62 24.9184 1004.3 24.9184C1000.62 24.9184 997.791 22.1834 997.791 18.1434C997.791 14.3984 1000.36 11.3434 1003.98 11.3434C1008.02 11.3434 1010.06 14.5954 1010.06 18.3654C1010.06 18.6354 1010.03 18.8824 1010.01 19.1784H1000.7H1000.69ZM1000.67 17.2074H1007.18C1006.98 15.2854 1005.88 13.7824 1003.96 13.7824C1002.18 13.7824 1000.94 15.1874 1000.67 17.2074ZM1018.81 14.0534L1011.48 22.5784V24.6224H1022.5V22.1834H1015.18L1022.5 13.6594V11.6144H1011.75V14.0544H1018.81V14.0534ZM1028.01 24.6234V6.63843H1025.11V24.6224H1028.01V24.6234ZM1043.05 11.6134H1040.03L1036.74 21.2714L1033.14 11.6134H1030.04L1035.32 24.6214C1034.84 25.7554 1034.34 26.1244 1033.52 26.1244C1032.92 26.1244 1032.34 25.9274 1031.82 25.6314L1030.83 27.8494C1031.72 28.3414 1032.61 28.6374 1033.83 28.6374C1035.87 28.6374 1037 27.6524 1038.01 24.9914L1043.05 11.6144V11.6134Z" fill="#1B263A"/>
</g>
<g clip-path="url(#clip2_554_6855)">
<path d="M235.306 17.0633H233.673C233.639 16.9296 233.614 16.7747 233.598 16.5987C233.564 16.2563 233.564 15.9115 233.598 15.569C233.614 15.3935 233.639 15.2386 233.673 15.1042H237.742V27.9889C237.538 28.0243 237.333 28.0493 237.127 28.0638C236.922 28.0795 236.716 28.0878 236.511 28.0887C236.314 28.0875 236.117 28.0792 235.921 28.0638C235.715 28.0492 235.51 28.0241 235.306 27.9885V17.0627V17.063L235.306 17.0633ZM249.471 20.3035C249.471 19.8345 249.408 19.3868 249.283 18.9594C249.157 18.5327 248.972 18.1603 248.73 17.842C248.487 17.5241 248.177 17.2686 247.8 17.0761C247.424 16.8835 246.976 16.7871 246.457 16.7871C245.435 16.7871 244.653 17.0973 244.108 17.7166C243.564 18.336 243.234 19.1982 243.116 20.3035H249.471H249.471ZM243.091 22.162C243.125 23.5684 243.489 24.5984 244.184 25.251C244.879 25.904 245.904 26.231 247.261 26.231C248.449 26.231 249.579 26.0213 250.651 25.6028C250.785 25.8539 250.893 26.1596 250.977 26.5196C251.059 26.8701 251.11 27.2273 251.128 27.5868C250.576 27.8219 249.968 27.9969 249.307 28.1144C248.645 28.2313 247.913 28.2902 247.11 28.2902C245.937 28.2902 244.932 28.1265 244.096 27.8003C243.258 27.4734 242.568 27.0129 242.024 26.4188C241.479 25.8246 241.082 25.1212 240.83 24.309C240.579 23.4972 240.454 22.6054 240.454 21.6343C240.454 20.6799 240.575 19.7882 240.818 18.9592C241.06 18.1308 241.433 17.4107 241.935 16.7996C242.438 16.1882 243.07 15.7028 243.832 15.3428C244.593 14.9828 245.493 14.8025 246.532 14.8025C247.419 14.8025 248.198 14.9534 248.867 15.2548C249.537 15.5561 250.098 15.9706 250.55 16.498C251.002 17.0255 251.345 17.6534 251.58 18.3814C251.814 19.1101 251.932 19.9011 251.932 20.7552C251.932 20.9897 251.923 21.2365 251.906 21.4959C251.892 21.718 251.876 21.9398 251.856 22.1614H243.091L243.091 22.1618L243.091 22.162ZM254.671 15.1042C254.846 15.0725 255.022 15.0474 255.198 15.029C255.365 15.0127 255.541 15.0041 255.726 15.0041C255.91 15.0041 256.094 15.0127 256.278 15.029C256.462 15.0461 256.63 15.0712 256.781 15.1042C256.83 15.3555 256.881 15.6865 256.931 16.0963C256.981 16.5066 257.007 16.8538 257.007 17.1386C257.358 16.5695 257.823 16.0752 258.4 15.6565C258.978 15.2382 259.719 15.0286 260.623 15.0286C260.757 15.0286 260.895 15.0331 261.037 15.0415C261.159 15.048 261.281 15.0603 261.401 15.0788C261.435 15.2297 261.46 15.389 261.477 15.5562C261.493 15.7235 261.502 15.8994 261.502 16.0835C261.502 16.2846 261.489 16.4941 261.464 16.7113C261.44 16.9212 261.411 17.1305 261.376 17.339C261.241 17.3056 261.102 17.2888 260.962 17.2889H260.622C260.171 17.2889 259.739 17.3517 259.329 17.4771C258.919 17.6029 258.55 17.8248 258.224 18.1426C257.898 18.461 257.638 18.8964 257.446 19.449C257.253 20.0016 257.157 20.7132 257.157 21.5837V27.9885C256.953 28.0239 256.748 28.0492 256.541 28.0637C256.316 28.0805 256.11 28.0886 255.926 28.0886C255.721 28.0878 255.516 28.0795 255.311 28.0637C255.096 28.0481 254.883 28.0231 254.67 27.9886V15.1044L254.671 15.1042ZM237.044 8.2244C237.044 8.52502 236.989 8.82317 236.883 9.10449C236.602 9.21046 236.304 9.26478 236.003 9.26484H235.999C235.699 9.26488 235.4 9.2106 235.119 9.10462C235.013 8.82325 234.959 8.525 234.959 8.22427V8.22034C234.959 7.91052 235.015 7.61379 235.118 7.33999C235.4 7.23386 235.698 7.17958 235.999 7.17977H236.002C236.312 7.17977 236.609 7.23663 236.883 7.33999C236.989 7.62137 237.043 7.91963 237.043 8.22034V8.22427H237.043L237.044 8.2244ZM240.113 7.52746H237.679L239.4 5.80672C239.129 5.42674 238.797 5.09465 238.417 4.82418L236.696 6.54493V4.11126C236.467 4.07277 236.236 4.05335 236.003 4.05322H235.999C235.763 4.05322 235.532 4.0734 235.306 4.11126V6.54493L233.585 4.82405C233.396 4.95897 233.218 5.10954 233.053 5.27418L233.052 5.27497C232.888 5.43949 232.738 5.6174 232.603 5.80685L234.324 7.52746H231.89C231.89 7.52746 231.832 7.98466 231.832 8.221V8.22388C231.832 8.46021 231.852 8.69183 231.89 8.91728H234.324L232.603 10.6378C232.873 11.0177 233.206 11.3498 233.586 11.6206L235.307 9.89995V12.3337C235.532 12.3715 235.762 12.3914 235.998 12.3917H236.004C236.236 12.3914 236.467 12.3721 236.696 12.3337V9.89995L238.417 11.621C238.607 11.4859 238.785 11.3353 238.949 11.1708H238.95C239.114 11.0061 239.264 10.8281 239.399 10.6386L237.679 8.91741H240.113C240.15 8.69209 240.17 8.46126 240.17 8.22545V8.21942C240.17 7.98755 240.151 7.75632 240.113 7.52772V7.52746H240.113ZM196 27.6374L202.781 17.0884H196.804C196.754 16.7871 196.729 16.4525 196.729 16.084C196.729 15.7325 196.754 15.4057 196.804 15.1041H206.474L206.599 15.4312L199.768 26.0048H206.172C206.222 26.3398 206.248 26.6828 206.248 27.0343C206.248 27.3696 206.222 27.6876 206.172 27.9889H196.126L196 27.637V27.6374ZM215.565 21.9357C215.314 21.9026 214.996 21.8694 214.611 21.8355C214.225 21.8023 213.899 21.7853 213.631 21.7853C212.593 21.7853 211.802 21.9779 211.258 22.363C210.714 22.7485 210.442 23.3342 210.442 24.1211C210.442 24.6234 210.534 25.0169 210.718 25.3015C210.902 25.5865 211.132 25.8037 211.409 25.9545C211.685 26.1052 211.99 26.1974 212.325 26.231C212.66 26.2644 212.978 26.281 213.279 26.281C213.665 26.281 214.062 26.26 214.473 26.2181C214.883 26.1766 215.247 26.1136 215.565 26.0299V21.9357H215.565ZM215.565 19.4998C215.565 18.5115 215.314 17.8251 214.812 17.4399C214.309 17.0548 213.581 16.8622 212.627 16.8622C212.04 16.8622 211.492 16.9086 210.982 17.0005C210.476 17.0912 209.977 17.2127 209.487 17.3643C209.168 16.8117 209.01 16.1508 209.01 15.3801C209.578 15.1962 210.206 15.0539 210.893 14.9534C211.58 14.8528 212.241 14.8025 212.877 14.8025C214.552 14.8025 215.824 15.1837 216.695 15.9455C217.565 16.708 218.001 17.9259 218.001 19.6V27.6623C217.415 27.7962 216.703 27.9343 215.866 28.0767C215.02 28.2196 214.163 28.291 213.304 28.2902C212.484 28.2902 211.743 28.2151 211.082 28.0644C210.42 27.9133 209.859 27.6711 209.399 27.3357C208.938 27.0011 208.583 26.5741 208.331 26.0551C208.08 25.536 207.955 24.9082 207.955 24.1713C207.955 23.4516 208.101 22.8193 208.394 22.2749C208.682 21.737 209.09 21.2728 209.587 20.9187C210.09 20.5592 210.667 20.291 211.32 20.1154C211.973 19.9395 212.66 19.8514 213.38 19.8514C213.915 19.8514 214.355 19.8643 214.698 19.8894C215.041 19.9143 215.33 19.9437 215.565 19.9772V19.4999L215.565 19.4998ZM223.2 25.8787C223.517 25.9958 223.845 26.08 224.18 26.1299C224.514 26.1804 224.949 26.2054 225.486 26.2054C226.088 26.2054 226.641 26.1094 227.143 25.9168C227.645 25.7246 228.076 25.4271 228.436 25.0251C228.796 24.6234 229.081 24.1172 229.29 23.5054C229.5 22.8947 229.604 22.1707 229.604 21.3331C229.604 19.9937 229.357 18.9305 228.863 18.1434C228.369 17.3566 227.561 16.963 226.44 16.963C226.021 16.963 225.619 17.0382 225.235 17.1892C224.849 17.3398 224.506 17.5659 224.205 17.8672C223.903 18.1685 223.661 18.5498 223.476 19.0101C223.292 19.471 223.2 20.0189 223.2 20.6553V25.8791V25.8788L223.2 25.8787ZM220.713 15.104C220.884 15.0704 221.055 15.0454 221.228 15.0288C221.408 15.0122 221.588 15.0038 221.768 15.0039C221.935 15.0039 222.111 15.0125 222.296 15.0288C222.48 15.0458 222.655 15.0711 222.823 15.1041C222.84 15.1382 222.861 15.2423 222.886 15.4182C222.911 15.5942 222.936 15.7824 222.961 15.9831C222.986 16.1842 223.011 16.3772 223.037 16.5609C223.062 16.7453 223.074 16.8626 223.074 16.9127C223.241 16.6451 223.442 16.3853 223.677 16.1342C223.911 15.8829 224.192 15.6569 224.519 15.4562C224.845 15.2551 225.213 15.0962 225.624 14.9789C226.034 14.8617 226.49 14.8027 226.992 14.8027C227.746 14.8027 228.445 14.9284 229.09 15.1797C229.734 15.4312 230.286 15.8199 230.747 16.3475C231.207 16.875 231.567 17.5448 231.827 18.3567C232.086 19.1694 232.216 20.1279 232.216 21.2327C232.216 23.4428 231.617 25.172 230.42 26.4192C229.222 27.6668 227.528 28.2902 225.334 28.2902C224.966 28.2902 224.589 28.2651 224.204 28.2149C223.819 28.1644 223.484 28.0974 223.199 28.0141V33.9163C222.987 33.9508 222.774 33.976 222.559 33.9916C222.333 34.008 222.128 34.0165 221.943 34.0165C221.738 34.0157 221.533 34.0074 221.328 33.9916C221.122 33.977 220.917 33.9519 220.713 33.9163V15.1041L220.713 15.104Z" fill="#1B263A"/>
</g>
<g clip-path="url(#clip3_554_6855)">
<path d="M812.45 24.826C812.531 24.826 812.613 24.8666 812.694 24.9479L813.263 25.5166C812.856 25.9635 812.409 26.3291 811.922 26.6947C811.434 27.0197 810.906 27.3447 810.338 27.5885C809.769 27.8322 809.159 27.9947 808.469 28.1572C807.819 28.2791 807.047 28.3604 806.275 28.3604C804.894 28.3604 803.675 28.1166 802.538 27.6291C801.4 27.1416 800.425 26.4916 799.653 25.5979C798.841 24.7447 798.191 23.6885 797.744 22.4697C797.297 21.2104 797.094 19.8697 797.094 18.326C797.094 16.8635 797.297 15.5229 797.784 14.2635C798.231 13.0447 798.881 11.9885 799.734 11.1354C800.588 10.2416 801.563 9.55098 802.741 9.1041C803.919 8.6166 805.219 8.37285 806.641 8.37285C807.331 8.37285 807.981 8.41348 808.591 8.53535C809.159 8.6166 809.728 8.7791 810.256 8.98223C810.744 9.18535 811.231 9.4291 811.678 9.71348C812.125 9.99785 812.572 10.3635 813.019 10.7291L812.572 11.3385C812.491 11.4604 812.409 11.501 812.247 11.501C812.166 11.501 812.044 11.4604 811.922 11.3791C811.8 11.2979 811.638 11.176 811.434 11.0135C811.231 10.8916 810.988 10.7291 810.703 10.5666C810.419 10.3635 810.094 10.201 809.728 10.0791C809.322 9.9166 808.875 9.83535 808.388 9.71348C807.859 9.63223 807.291 9.5916 806.641 9.5916C805.463 9.5916 804.366 9.79473 803.35 10.201C802.375 10.6072 801.522 11.176 800.791 11.9479C800.1 12.7197 799.531 13.6135 799.125 14.7104C798.719 15.7666 798.516 16.9854 798.516 18.326C798.516 19.7072 798.719 20.9666 799.125 22.0635C799.531 23.1197 800.059 24.0541 800.75 24.7854C801.441 25.5572 802.294 26.126 803.228 26.5322C804.203 26.9385 805.219 27.1416 806.356 27.1416C807.047 27.1416 807.656 27.0604 808.225 26.9791C808.753 26.8979 809.281 26.776 809.728 26.5729C810.175 26.3697 810.622 26.1666 810.988 25.8822C811.394 25.6385 811.8 25.3135 812.166 24.9479C812.206 24.9072 812.288 24.9072 812.328 24.8666C812.369 24.826 812.409 24.826 812.45 24.826ZM817.569 28.1166V8.04785H818.869V28.1166H817.569ZM829.309 27.2635C830.122 27.2635 830.813 27.1416 831.422 26.8572C832.072 26.5729 832.559 26.1666 832.966 25.6385C833.372 25.1104 833.697 24.4604 833.9 23.7291C834.103 22.9979 834.184 22.1447 834.184 21.251C834.184 20.3166 834.103 19.5041 833.9 18.7729C833.697 18.001 833.372 17.3916 832.966 16.8635C832.559 16.2947 832.072 15.8885 831.422 15.6041C830.813 15.3197 830.122 15.1979 829.309 15.1979C828.456 15.1979 827.766 15.3197 827.156 15.6041C826.547 15.8885 826.019 16.2947 825.613 16.8635C825.206 17.3916 824.881 18.001 824.678 18.7729C824.475 19.5041 824.394 20.3166 824.394 21.251C824.394 22.1447 824.475 22.9979 824.678 23.7291C824.881 24.4604 825.206 25.1104 825.613 25.6385C826.019 26.1666 826.547 26.5729 827.156 26.8572C827.766 27.1416 828.456 27.2635 829.309 27.2635ZM829.309 14.1416C830.284 14.1416 831.178 14.3447 831.95 14.6697C832.722 14.9947 833.372 15.4822 833.9 16.0916C834.428 16.701 834.834 17.4322 835.119 18.326C835.403 19.1791 835.566 20.1541 835.566 21.251C835.566 22.3072 835.403 23.2822 835.119 24.176C834.834 25.0291 834.428 25.7604 833.9 26.3697C833.372 26.9791 832.722 27.4666 831.95 27.7916C831.178 28.1166 830.284 28.2791 829.309 28.2791C828.294 28.2791 827.441 28.1166 826.628 27.7916C825.856 27.4666 825.206 26.9791 824.678 26.3697C824.15 25.7604 823.744 25.0291 823.459 24.176C823.175 23.2822 823.013 22.3072 823.013 21.251C823.013 20.1541 823.175 19.1791 823.459 18.326C823.744 17.4322 824.15 16.701 824.678 16.0916C825.206 15.4822 825.856 14.9947 826.628 14.6697C827.441 14.3447 828.294 14.1416 829.309 14.1416ZM846.575 16.0916C846.494 16.2135 846.413 16.2947 846.25 16.2947C846.169 16.2947 846.047 16.2135 845.884 16.1322C845.722 16.0104 845.478 15.8885 845.234 15.726C844.991 15.5635 844.666 15.4416 844.259 15.3197C843.894 15.2385 843.406 15.1572 842.878 15.1572C842.35 15.1572 841.903 15.2385 841.497 15.3604C841.091 15.5229 840.766 15.726 840.441 15.9697C840.156 16.1729 839.953 16.4572 839.791 16.7822C839.628 17.1072 839.547 17.4322 839.547 17.7979C839.547 18.2041 839.628 18.5697 839.872 18.8541C840.075 19.1385 840.4 19.3822 840.725 19.5854C841.091 19.7885 841.497 19.951 841.944 20.1135C842.431 20.276 842.878 20.3979 843.366 20.5604C843.853 20.6822 844.3 20.8447 844.747 21.0479C845.234 21.2104 845.641 21.4541 846.006 21.6979C846.331 21.9822 846.616 22.3072 846.859 22.6729C847.063 23.0791 847.184 23.5666 847.184 24.0947C847.184 24.7041 847.063 25.2729 846.859 25.7604C846.656 26.2885 846.331 26.7354 845.925 27.101C845.519 27.5072 844.991 27.7916 844.422 27.9947C843.813 28.2385 843.122 28.3604 842.35 28.3604C841.416 28.3604 840.563 28.1979 839.872 27.8729C839.181 27.5885 838.531 27.1822 838.003 26.6541L838.328 26.2072C838.369 26.126 838.409 26.0854 838.45 26.0447C838.531 26.0041 838.613 25.9635 838.694 25.9635C838.816 25.9635 838.978 26.0447 839.141 26.2072C839.303 26.3291 839.547 26.4916 839.831 26.6947C840.116 26.8572 840.441 27.0197 840.888 27.1416C841.294 27.3041 841.822 27.3854 842.431 27.3854C843 27.3854 843.528 27.3041 843.975 27.1416C844.381 26.9791 844.747 26.7354 845.072 26.4916C845.356 26.2072 845.559 25.8822 845.722 25.5166C845.884 25.1104 845.966 24.7447 845.966 24.3385C845.966 23.851 845.844 23.4854 845.641 23.1604C845.397 22.876 845.113 22.6322 844.747 22.3885C844.381 22.1854 843.975 22.0229 843.528 21.8604C843.081 21.6979 842.594 21.576 842.147 21.4135C841.659 21.2916 841.172 21.1291 840.725 20.926C840.278 20.7635 839.872 20.5604 839.506 20.276C839.141 19.9916 838.856 19.6666 838.613 19.301C838.409 18.9354 838.288 18.4479 838.288 17.8791C838.288 17.3916 838.409 16.9041 838.613 16.4572C838.816 16.0104 839.141 15.6041 839.506 15.2791C839.913 14.9541 840.4 14.6697 840.928 14.4666C841.497 14.2635 842.147 14.1416 842.838 14.1416C843.691 14.1416 844.422 14.2635 845.072 14.5072C845.722 14.751 846.331 15.1166 846.859 15.6447L846.575 16.0916ZM855.594 15.1572C854.903 15.1572 854.253 15.2385 853.684 15.4822C853.156 15.6854 852.669 16.0104 852.263 16.4166C851.816 16.8229 851.491 17.351 851.247 17.9197C851.003 18.4885 850.841 19.1385 850.759 19.8697H859.778C859.778 19.1385 859.697 18.4479 859.494 17.8791C859.291 17.3104 859.006 16.7822 858.641 16.376C858.275 16.0104 857.828 15.6854 857.3 15.4822C856.813 15.2385 856.244 15.1572 855.594 15.1572ZM855.594 14.1416C856.366 14.1416 857.056 14.3041 857.747 14.5479C858.397 14.8322 858.966 15.1979 859.453 15.726C859.941 16.2541 860.306 16.8635 860.591 17.5947C860.834 18.3666 860.997 19.2197 860.997 20.1947C860.997 20.3979 860.956 20.5197 860.875 20.601C860.834 20.6822 860.753 20.7229 860.591 20.7229H850.678V20.9666C850.678 21.9822 850.8 22.9166 851.044 23.6885C851.288 24.4604 851.613 25.1104 852.059 25.6385C852.506 26.1666 853.034 26.5729 853.684 26.8572C854.294 27.101 854.984 27.2635 855.756 27.2635C856.447 27.2635 857.056 27.1822 857.584 27.0197C858.072 26.8572 858.519 26.6947 858.844 26.4916C859.209 26.3291 859.453 26.1666 859.656 26.0041C859.859 25.8416 860.022 25.7604 860.103 25.7604C860.225 25.7604 860.306 25.801 860.388 25.9229L860.753 26.3697C860.509 26.6135 860.225 26.8979 859.859 27.1416C859.494 27.3447 859.088 27.5885 858.641 27.751C858.194 27.9135 857.747 28.0354 857.219 28.1572C856.691 28.2385 856.203 28.2791 855.675 28.2791C854.741 28.2791 853.888 28.1166 853.116 27.7916C852.344 27.4666 851.653 27.0197 851.125 26.3697C850.556 25.7604 850.15 24.9885 849.825 24.0947C849.541 23.1604 849.378 22.1447 849.378 20.9666C849.378 19.9916 849.5 19.0572 849.784 18.2447C850.069 17.3916 850.475 16.701 851.003 16.0916C851.531 15.4822 852.181 14.9947 852.953 14.6697C853.725 14.3447 854.619 14.1416 855.594 14.1416Z" fill="#1B263A"/>
<path d="M790.959 19.5446V18.4478C790.959 17.5134 790.593 16.6603 789.902 15.8478C789.537 15.4415 789.049 14.9946 788.48 14.629C788.196 14.4259 787.871 14.2228 787.505 14.0196C787.221 13.8978 786.977 13.7353 786.693 13.6134C785.921 13.2884 785.109 13.004 784.215 12.7603C784.337 13.1259 784.418 13.5321 784.499 13.8978C784.58 14.304 784.662 14.7103 784.743 15.1165C785.19 15.279 785.677 15.4415 786.084 15.6446C786.287 15.7259 786.49 15.8071 786.693 15.929C786.774 15.9696 786.896 16.0103 786.977 16.0509C787.343 16.254 787.627 16.4571 787.912 16.6603C788.968 17.3509 789.618 18.1634 789.821 18.9759C789.618 19.829 788.968 20.6415 787.912 21.3321C788.034 21.6571 788.155 21.9415 788.237 22.2259C788.359 22.5915 788.44 22.9978 788.48 23.3634C789.049 22.9978 789.537 22.5509 789.902 22.1446C790.593 21.3321 790.959 20.479 790.959 19.5446Z" fill="#1B263A"/>
<path d="M775.116 25.8821C774.67 25.5165 774.223 25.1509 773.816 24.7446C773.898 25.0696 773.979 25.4353 774.101 25.7603C774.426 25.8009 774.791 25.8415 775.116 25.8821Z" fill="#1B263A"/>
<path d="M777.47 24.9479C777.633 25.0698 777.795 25.1917 777.958 25.3135C778.323 25.5167 778.648 25.7604 778.973 25.9229C779.014 25.9635 779.055 26.0042 779.095 26.0042C779.664 26.0042 780.273 25.9635 780.842 25.8823C781.167 25.8417 781.533 25.801 781.858 25.7604C782.264 25.6791 782.67 25.5979 783.077 25.5167C783.442 25.4354 783.848 25.3541 784.214 25.2323C785.108 24.9885 785.92 24.7042 786.692 24.3792C786.611 24.0135 786.53 23.6479 786.408 23.2823C786.367 23.201 786.367 23.0792 786.327 22.9573C786.245 22.7542 786.164 22.551 786.083 22.3479C785.677 22.551 785.189 22.7135 784.742 22.876C784.417 22.9979 784.052 23.0792 783.727 23.1604C783.686 23.201 783.645 23.201 783.605 23.201C783.198 23.3229 782.833 23.4042 782.427 23.4448C782.223 23.4854 782.02 23.526 781.817 23.5667C781.208 23.6885 780.598 23.7291 779.948 23.8104C779.298 23.851 778.648 23.8917 777.958 23.8917C777.308 23.8917 776.658 23.851 776.008 23.8104C776.455 24.2166 776.983 24.5823 777.47 24.9479Z" fill="#1B263A"/>
<path d="M769.55 14.7104C769.55 14.7917 769.591 14.9135 769.631 15.0354C769.712 15.2385 769.794 15.4417 769.875 15.6448C770.281 15.4417 770.769 15.2792 771.216 15.1167C771.541 14.9948 771.906 14.9135 772.231 14.8323C772.272 14.7917 772.313 14.7917 772.353 14.7917C772.759 14.7104 773.125 14.5885 773.531 14.5479C773.734 14.5073 773.938 14.4667 774.141 14.426C774.75 14.3448 775.359 14.2635 776.009 14.1823C776.659 14.1417 777.309 14.1417 777.959 14.1417C778.65 14.1417 779.3 14.1417 779.95 14.1823C779.503 13.776 778.975 13.4104 778.488 13.0448C778.325 12.9229 778.163 12.801 777.959 12.6792C777.634 12.476 777.309 12.2323 776.984 12.0698C776.944 12.0292 776.903 11.9885 776.863 11.9885C776.253 11.9885 775.684 12.0698 775.116 12.1104C774.791 12.151 774.425 12.1917 774.1 12.2323C773.694 12.3135 773.287 12.3948 772.881 12.476C772.516 12.5573 772.109 12.6385 771.744 12.7604C770.85 13.0042 770.038 13.2885 769.266 13.6135C769.347 13.9792 769.428 14.3448 769.55 14.7104Z" fill="#1B263A"/>
<path d="M780.844 12.1104C781.291 12.476 781.738 12.8416 782.144 13.2479C782.063 12.9229 781.981 12.5572 781.859 12.2322C781.534 12.1916 781.169 12.151 780.844 12.1104Z" fill="#1B263A"/>
<path d="M766.137 18.976C766.341 18.1635 766.991 17.351 768.047 16.6604C767.925 16.3354 767.803 16.051 767.722 15.7666C767.6 15.401 767.519 14.9948 767.438 14.6292C766.909 14.9948 766.422 15.4417 766.056 15.8479C765.366 16.6604 765 17.5135 765 18.4479V19.5448C765 20.4791 765.366 21.3323 766.056 22.1448C766.422 22.551 766.909 22.9573 767.438 23.3635C767.763 23.5666 768.088 23.7698 768.453 23.9729C768.737 24.0948 768.981 24.2573 769.266 24.3791C770.037 24.7041 770.85 24.9885 771.744 25.2323C771.622 24.8666 771.541 24.4604 771.459 24.0948C771.378 23.6885 771.297 23.2823 771.216 22.876C770.769 22.7135 770.281 22.551 769.875 22.3479C769.672 22.2666 769.469 22.1854 769.266 22.0635C769.184 22.0229 769.062 21.9823 768.981 21.9416C768.616 21.7385 768.331 21.5354 768.047 21.3323C766.991 20.6416 766.341 19.8291 766.137 18.976Z" fill="#1B263A"/>
<path d="M780.845 25.8823C780.276 25.9229 779.666 26.0042 779.098 26.0042C779.382 26.2073 779.707 26.3698 779.991 26.4917C780.276 26.2886 780.56 26.0854 780.845 25.8823Z" fill="#1B263A"/>
<path d="M787.548 10.2009L786.777 9.42898C786.127 8.77898 785.233 8.41335 784.177 8.3321C783.608 8.29148 782.998 8.37273 782.348 8.4946C781.983 8.53523 781.577 8.6571 781.211 8.73835C780.927 8.8196 780.642 8.94148 780.317 9.06335C779.586 9.34773 778.773 9.71335 777.961 10.1602C778.327 10.3634 778.652 10.5665 779.017 10.8102C779.342 11.0134 779.667 11.2571 779.992 11.5009C780.439 11.2571 780.886 11.054 781.333 10.8915C781.536 10.8102 781.739 10.729 781.942 10.6477C782.064 10.6071 782.186 10.6071 782.267 10.5665C782.633 10.4446 782.998 10.3634 783.364 10.2821C784.583 10.079 785.639 10.2009 786.37 10.6071" fill="#1B263A"/>
<path d="M786.367 10.6073C786.773 11.3386 786.895 12.3948 786.692 13.6136C786.977 13.7355 787.22 13.898 787.505 14.0198C787.87 14.223 788.195 14.4261 788.48 14.6292C788.602 13.9792 788.683 13.3698 788.642 12.8011C788.561 11.7448 788.195 10.8511 787.545 10.2011C787.423 10.0386 787.302 9.95732 787.139 9.83545" fill="#1B263A"/>
<path d="M781.818 23.5666C782.021 23.526 782.224 23.4854 782.427 23.4448C782.834 23.4041 783.199 23.3229 783.605 23.201C783.646 23.201 783.687 23.201 783.727 23.1604C784.134 22.7541 784.499 22.3073 784.865 21.8604C785.068 21.576 785.312 21.2916 785.474 21.0073C785.718 20.6823 785.962 20.3573 786.205 20.0323C786.409 19.6666 786.612 19.3416 786.815 19.0166C787.262 18.2041 787.627 17.3916 787.912 16.6604C787.627 16.4573 787.343 16.2542 786.977 16.051C786.896 16.0104 786.774 15.9698 786.693 15.9291C786.49 15.8073 786.287 15.726 786.084 15.6448C785.921 16.0917 785.718 16.5385 785.474 16.9854C785.352 17.2698 785.19 17.5948 784.987 17.8791C784.987 17.9198 784.946 17.9604 784.905 18.001C784.743 18.326 784.499 18.651 784.296 19.0166C784.174 19.1791 784.052 19.3416 783.93 19.5041C783.565 19.9916 783.199 20.5198 782.793 20.9666C782.346 21.4948 781.899 21.9823 781.412 22.4291C780.965 22.9166 780.477 23.3635 779.949 23.8104C780.599 23.7291 781.209 23.6885 781.818 23.5666Z" fill="#1B263A"/>
<path d="M775.117 12.1104C775.686 12.0291 776.255 11.9885 776.864 11.9885C776.58 11.7854 776.255 11.6229 775.97 11.501C775.686 11.6635 775.402 11.9072 775.117 12.1104Z" fill="#1B263A"/>
<path d="M769.59 27.3854C769.184 26.6541 769.062 25.5979 769.265 24.3791C768.981 24.2573 768.737 24.0948 768.453 23.9729C768.087 23.7698 767.762 23.5667 767.437 23.3635C767.356 24.0135 767.275 24.6229 767.315 25.1916C767.397 26.2479 767.762 27.1416 768.412 27.7916L769.184 28.5635C769.834 29.2135 770.728 29.5791 771.784 29.6604C772.353 29.701 772.962 29.6198 773.612 29.5385C773.978 29.4573 774.384 29.376 774.75 29.2541C775.034 29.1729 775.319 29.051 775.644 28.9291C776.375 28.6448 777.187 28.2791 777.959 27.8323C777.634 27.6291 777.309 27.426 776.944 27.2229C776.619 26.9791 776.294 26.776 775.969 26.5323C775.522 26.7354 775.075 26.9385 774.628 27.101C774.425 27.1823 774.222 27.2635 774.019 27.3448C773.897 27.3854 773.775 27.426 773.694 27.426C773.328 27.5479 772.962 27.6291 772.597 27.7104C771.378 27.9135 770.322 27.7916 769.59 27.3854Z" fill="#1B263A"/>
<path d="M768.981 21.9415C769.062 21.9821 769.184 22.0228 769.266 22.0634C769.469 22.1853 769.672 22.2665 769.875 22.3478C770.037 21.9009 770.241 21.454 770.484 21.0071C770.606 20.7228 770.769 20.3978 770.972 20.1134C770.972 20.0728 771.012 20.0321 771.053 19.9915C771.216 19.6665 771.459 19.3415 771.662 18.9759C771.784 18.8134 771.906 18.6509 772.028 18.4884C772.394 18.0009 772.759 17.4728 773.166 17.0259C773.612 16.4978 774.059 16.0103 774.547 15.5634C774.994 15.0759 775.481 14.629 776.009 14.1821C775.359 14.2634 774.75 14.304 774.141 14.4259C773.937 14.4665 773.734 14.5071 773.531 14.5478C773.125 14.5884 772.759 14.7103 772.353 14.7915C772.312 14.7915 772.272 14.7915 772.231 14.8321C771.825 15.2384 771.459 15.6853 771.094 16.1321C770.891 16.4165 770.647 16.7009 770.444 16.9853C770.241 17.3103 769.997 17.6353 769.753 17.9603C769.55 18.3259 769.347 18.6509 769.144 18.9759C768.697 19.7884 768.331 20.6009 768.047 21.3321C768.331 21.5353 768.616 21.7384 768.981 21.9415Z" fill="#1B263A"/>
<path d="M771.094 21.8604C771.012 21.2916 770.972 20.6823 770.972 20.1135C770.769 20.3979 770.606 20.7229 770.484 21.0073C770.647 21.2917 770.891 21.576 771.094 21.8604Z" fill="#1B263A"/>
<path d="M769.59 10.6071C770.322 10.2009 771.378 10.079 772.597 10.2821C772.719 9.99773 772.881 9.75398 773.003 9.4696C773.206 9.10398 773.409 8.77898 773.612 8.4946C772.962 8.37273 772.353 8.29148 771.784 8.3321C770.728 8.41335 769.834 8.77898 769.184 9.42898C769.022 9.55085 768.94 9.67273 768.819 9.83523C768.94 9.67273 769.022 9.55085 769.184 9.42898L768.412 10.2009C767.762 10.8509 767.397 11.7446 767.315 12.8009C767.275 13.3696 767.356 13.979 767.437 14.629C767.519 14.9946 767.6 15.4009 767.722 15.7665C767.803 16.0509 767.925 16.3352 768.047 16.6602C768.331 17.3915 768.697 18.204 769.144 19.0165C769.347 18.6509 769.55 18.3259 769.753 17.9602C769.997 17.6352 770.24 17.3102 770.444 16.9852C770.24 16.5384 770.037 16.0915 769.875 15.6446C769.794 15.4415 769.712 15.2384 769.631 15.0352C769.59 14.9134 769.55 14.7915 769.55 14.7102C769.428 14.3446 769.347 13.979 769.265 13.6134C769.062 12.3946 769.184 11.3384 769.59 10.6071Z" fill="#1B263A"/>
<path d="M784.867 16.1323C784.908 16.7011 784.989 17.3104 784.989 17.8792C785.192 17.5948 785.355 17.2698 785.477 16.9854C785.314 16.7011 785.07 16.4167 784.867 16.1323Z" fill="#1B263A"/>
<path d="M782.551 15.1572C782.51 14.9541 782.47 14.751 782.429 14.5479C782.388 14.1416 782.266 13.776 782.185 13.3697C782.185 13.3291 782.185 13.2885 782.145 13.2479C781.738 12.8416 781.291 12.476 780.845 12.1104C780.56 11.9072 780.276 11.6635 779.991 11.501C779.666 11.2572 779.341 11.0135 779.016 10.7697C778.651 10.5666 778.326 10.3635 777.96 10.1604C777.188 9.71348 776.376 9.34785 775.645 9.06348C775.441 9.34785 775.238 9.63223 775.035 9.99785C774.995 10.0791 774.954 10.201 774.913 10.2822C774.791 10.4854 774.71 10.6885 774.629 10.8916C775.076 11.0541 775.523 11.2572 775.97 11.501C776.254 11.6229 776.579 11.7854 776.863 11.9885C776.904 11.9885 776.945 12.0291 776.985 12.0697C777.31 12.2322 777.635 12.476 777.96 12.6791C778.163 12.801 778.326 12.9229 778.488 13.0447C778.976 13.4104 779.504 13.776 779.951 14.1822C780.479 14.6291 780.966 15.076 781.413 15.5635C781.901 16.0104 782.348 16.4979 782.795 17.026C782.713 16.376 782.632 15.7666 782.551 15.1572Z" fill="#1B263A"/>
<path d="M773.408 22.8353C773.448 23.0384 773.489 23.2416 773.53 23.4447C773.57 23.8509 773.692 24.2166 773.773 24.6228C773.773 24.6634 773.773 24.7041 773.814 24.7447C774.22 25.1509 774.667 25.5166 775.114 25.8822C775.398 26.0853 775.683 26.3291 775.967 26.4916C776.292 26.7353 776.617 26.9791 776.942 27.2228C777.308 27.4259 777.633 27.6291 777.958 27.8322C778.77 28.2791 779.583 28.6447 780.314 28.9291C780.517 28.6447 780.72 28.3603 780.923 27.9947C780.964 27.9134 781.005 27.7916 781.045 27.7103C781.167 27.5072 781.248 27.3041 781.33 27.1009C780.883 26.9384 780.436 26.7353 779.989 26.4916C779.705 26.3697 779.38 26.2072 779.095 26.0041C779.055 26.0041 779.014 25.9634 778.973 25.9228C778.648 25.7603 778.323 25.5166 777.958 25.3134C777.795 25.1916 777.633 25.0697 777.47 24.9478C776.983 24.5822 776.455 24.2166 776.008 23.8103C775.48 23.3634 774.992 22.9166 774.545 22.4291C774.058 21.9822 773.611 21.4947 773.164 20.9666C773.245 21.6166 773.286 22.2259 773.408 22.8353Z" fill="#1B263A"/>
<path d="M786.776 28.5635L787.548 27.7916C788.198 27.1416 788.563 26.2479 788.645 25.1916C788.685 24.6229 788.604 24.0135 788.482 23.3635C788.441 22.9979 788.36 22.5916 788.238 22.226C788.157 21.9416 788.035 21.6572 787.913 21.3322C787.629 20.601 787.263 19.7885 786.816 19.0166C786.613 19.3416 786.41 19.6666 786.207 20.0322C785.963 20.3572 785.72 20.6822 785.476 21.0072C785.72 21.4541 785.923 21.901 786.085 22.3479C786.166 22.551 786.248 22.7541 786.329 22.9572C786.37 23.0791 786.37 23.201 786.41 23.2822C786.532 23.6479 786.613 24.0135 786.695 24.3791C786.898 25.5979 786.776 26.6541 786.37 27.3854C785.638 27.7916 784.582 27.9135 783.363 27.7104C783.241 27.9947 783.079 28.2385 782.957 28.5229C782.754 28.8885 782.551 29.2135 782.348 29.4979C782.998 29.6197 783.607 29.701 784.176 29.6604C785.232 29.5791 786.126 29.2135 786.776 28.5635Z" fill="#1B263A"/>
<path d="M772.029 18.4884C771.907 18.6509 771.785 18.8134 771.663 19.0165C771.46 19.3415 771.216 19.6665 771.054 19.9915C771.013 20.0321 770.973 20.0728 770.973 20.1134C770.973 20.6821 771.013 21.2915 771.095 21.8603C771.135 22.1853 771.176 22.5509 771.216 22.8759C771.298 23.2821 771.379 23.6884 771.46 24.0946C771.541 24.4603 771.623 24.8665 771.745 25.2321C771.988 26.1259 772.273 26.9384 772.598 27.7103C772.963 27.629 773.329 27.5478 773.695 27.4259C773.776 27.3853 773.898 27.3853 774.02 27.3446C774.223 27.2634 774.426 27.1821 774.629 27.1009C774.426 26.6946 774.263 26.2071 774.101 25.7603C773.979 25.4353 773.898 25.0696 773.816 24.7446C773.776 24.704 773.776 24.6634 773.776 24.6228C773.695 24.2165 773.573 23.8509 773.532 23.4446C773.491 23.2415 773.451 23.0384 773.41 22.8353C773.288 22.2259 773.248 21.6165 773.166 20.9665C773.126 20.3165 773.085 19.6665 773.085 19.0165C773.085 18.3259 773.126 17.6759 773.166 17.0259C772.76 17.4728 772.395 18.0009 772.029 18.4884Z" fill="#1B263A"/>
<path d="M784.864 21.8604C784.498 22.3072 784.133 22.7541 783.727 23.1604C784.052 23.0791 784.417 22.9979 784.742 22.876C784.783 22.551 784.823 22.1854 784.864 21.8604Z" fill="#1B263A"/>
<path d="M771.094 16.1323C771.459 15.6854 771.825 15.2791 772.231 14.8323C771.906 14.9135 771.541 14.9948 771.216 15.1166C771.175 15.4416 771.134 15.8073 771.094 16.1323Z" fill="#1B263A"/>
<path d="M783.932 19.5041C784.054 19.3416 784.176 19.1791 784.298 19.0166C784.501 18.651 784.745 18.326 784.907 18.001C784.948 17.9604 784.988 17.9197 784.988 17.8791C784.988 17.3104 784.907 16.701 784.866 16.1322C784.826 15.8072 784.785 15.4416 784.745 15.1166C784.663 14.7104 784.582 14.3041 784.501 13.8979C784.42 13.5322 784.338 13.126 784.216 12.7604C783.973 11.8666 783.688 11.0541 783.363 10.2822C782.998 10.3635 782.632 10.4447 782.266 10.5666C782.185 10.6072 782.063 10.6072 781.941 10.6479C781.738 10.7291 781.535 10.8104 781.332 10.8916C781.535 11.2979 781.698 11.7854 781.86 12.2322C781.982 12.5572 782.063 12.9229 782.145 13.2479C782.185 13.2885 782.185 13.3291 782.185 13.3697C782.266 13.776 782.388 14.1416 782.429 14.5479C782.47 14.751 782.51 14.9541 782.551 15.1572C782.632 15.7666 782.713 16.376 782.795 17.026C782.835 17.676 782.835 18.326 782.835 19.0166C782.835 19.6666 782.835 20.3166 782.795 20.9666C783.201 20.5197 783.566 19.9916 783.932 19.5041Z" fill="#1B263A"/>
<path d="M782.345 8.4541C781.939 7.92598 781.533 7.43848 781.127 7.07285C780.314 6.38223 779.461 6.0166 778.527 6.0166H777.43C776.495 6.0166 775.642 6.38223 774.83 7.07285C774.423 7.43848 773.977 7.92598 773.611 8.4541C773.408 8.7791 773.205 9.1041 773.002 9.46973C772.88 9.7541 772.717 9.99785 772.595 10.2822C772.27 11.0541 771.986 11.8666 771.742 12.7604C772.108 12.6385 772.514 12.5572 772.88 12.476C773.286 12.3947 773.692 12.3135 774.098 12.2322C774.261 11.7854 774.423 11.2979 774.627 10.8916C774.708 10.6885 774.789 10.4854 774.911 10.2822C774.952 10.201 774.992 10.0791 775.033 9.99785C775.236 9.63223 775.439 9.34785 775.642 9.06348C776.333 8.00723 777.145 7.35723 777.958 7.1541C778.811 7.35723 779.623 8.00723 780.314 9.06348C780.639 8.9416 780.923 8.81973 781.208 8.73848" fill="#1B263A"/>
<path d="M777.432 31.9759H778.529C779.463 31.9759 780.316 31.6103 781.129 30.9197C781.535 30.5541 781.941 30.0666 782.348 29.4978C782.551 29.2134 782.754 28.8884 782.957 28.5228C783.079 28.2384 783.241 27.9947 783.363 27.7103C783.688 26.9384 783.973 26.1259 784.216 25.2322L783.079 25.5166C782.673 25.5978 782.266 25.6791 781.86 25.7603C781.698 26.2072 781.535 26.6947 781.332 27.1009C781.251 27.3041 781.17 27.5072 781.048 27.7103C781.007 27.7916 780.966 27.9134 780.926 27.9947C780.723 28.3603 780.52 28.6447 780.316 28.9291C779.626 29.9853 778.813 30.6353 777.96 30.8384C777.148 30.6353 776.335 29.9853 775.645 28.9291C775.32 29.0509 775.035 29.1728 774.751 29.2541L773.613 29.4978C773.979 30.0666 774.426 30.5541 774.832 30.9197C775.645 31.6103 776.498 31.9759 777.432 31.9759Z" fill="#1B263A"/>
</g>
<g clip-path="url(#clip4_554_6855)">
<path fill-rule="evenodd" clip-rule="evenodd" d="M350.876 32.8042H352.468C352.837 32.8042 353.148 32.4935 353.167 32.1246V14.7832C353.167 13.0743 351.789 11.6955 350.08 11.6955H348.041C347.672 11.6955 347.361 11.3848 347.361 11.0158V9.44288C347.361 7.73399 345.982 6.35522 344.273 6.35522H331.088C329.379 6.35522 328 7.73399 328 9.44288V26.8619C328 28.5514 329.379 29.9302 331.088 29.9496H346.371C346.507 29.9496 346.642 29.9884 346.759 30.0661L350.487 32.6877C350.604 32.7654 350.74 32.8042 350.876 32.8042ZM347.167 27.4834H331.126C330.738 27.4834 330.447 27.1921 330.447 26.8037V9.48172C330.447 9.11276 330.758 8.80205 331.126 8.80205H344.234C344.603 8.80205 344.914 9.11276 344.914 9.48172V11.0158C344.914 11.3848 344.603 11.6955 344.234 11.6955H334.467C334.098 11.6955 333.787 12.0062 333.787 12.3752V23.9296C333.787 24.2986 334.098 24.6093 334.467 24.6093H346.662C347.031 24.6093 347.342 24.2986 347.342 23.9296V14.822C347.342 14.4531 347.652 14.1423 348.021 14.1423H350.021C350.39 14.1423 350.701 14.4531 350.701 14.822V28.9981C350.701 29.3476 350.313 29.5418 350.041 29.3476L347.555 27.5999C347.439 27.5222 347.303 27.4834 347.167 27.4834ZM344.565 22.1431H336.564C336.389 22.1431 336.234 22.0071 336.234 21.8129V14.4725C336.234 14.2977 336.37 14.1423 336.564 14.1423H344.565C344.739 14.1423 344.895 14.2783 344.895 14.4725V21.8129C344.895 21.9877 344.759 22.1431 344.565 22.1431ZM415.022 10.0477C416.042 10.0477 416.869 9.22111 416.869 8.20146C416.869 7.18181 416.042 6.35522 415.022 6.35522C414.003 6.35522 413.176 7.18181 413.176 8.20146C413.176 9.22111 414.003 10.0477 415.022 10.0477ZM393.961 12.7468V11.7211H390.986V24.508H393.961V15.7726L397.431 14.3366V11.345H397.397L393.961 12.7468ZM382.436 11.7096C380.505 11.7096 378.932 12.3421 377.735 13.6242C377.188 14.2225 376.761 14.9063 376.453 15.7098C376.163 16.4962 376.009 17.3338 376.009 18.2056C376.009 20.0006 376.522 21.4878 377.564 22.6332C378.71 23.8982 380.282 24.5136 382.283 24.5136C384.231 24.5136 385.787 23.8811 386.967 22.599C388.078 21.3853 388.642 19.8638 388.642 18.0176C388.642 16.1714 388.095 14.6841 387.018 13.5217C385.872 12.3079 384.351 11.7096 382.436 11.7096ZM384.761 20.804C384.197 21.5049 383.411 21.8639 382.419 21.8639C381.359 21.8639 380.488 21.5049 379.838 20.7869C379.53 20.4621 379.291 20.0519 379.12 19.5903C378.949 19.1287 378.863 18.6501 378.863 18.1373C378.863 17.1116 379.137 16.2568 379.701 15.5389C380.317 14.7696 381.154 14.3764 382.231 14.3764C383.291 14.3764 384.129 14.7354 384.727 15.4705C385.291 16.1543 385.582 17.0432 385.582 18.1544C385.599 19.2313 385.325 20.1202 384.761 20.804ZM413.515 11.7232H416.473V24.5272H413.515V11.7232ZM368.387 11.7096C366.694 11.7096 365.31 12.2054 364.233 13.1969C363.224 14.1371 362.711 15.3166 362.711 16.7355C362.711 18.0005 363.156 19.0433 364.045 19.8809C363.275 20.4963 362.899 21.2314 362.899 22.1032C362.899 22.6332 362.968 23.0947 363.087 23.4879C363.207 23.8982 363.446 24.2401 363.822 24.5478C362.489 25.2829 361.839 26.4795 361.891 28.1206C361.925 29.5395 362.54 30.6677 363.737 31.5225C364.933 32.3772 366.523 32.8046 368.472 32.8046C370.421 32.8046 371.874 32.4285 372.865 31.6763C373.857 30.9241 374.353 29.8472 374.353 28.4283C374.353 27.0265 373.959 25.9324 373.173 25.1632C372.746 24.7529 372.199 24.4281 371.532 24.1375C370.848 23.864 369.925 23.6247 368.729 23.4366C367.532 23.2486 366.677 23.0434 366.164 22.787C365.925 22.6845 365.771 22.5648 365.703 22.4451C365.634 22.3255 365.6 22.1545 365.6 21.9323C365.6 21.71 365.754 21.4024 366.044 21.0092C366.711 21.2314 367.446 21.3511 368.233 21.3511C369.84 21.3511 371.156 20.8724 372.199 19.898C372.66 19.4536 373.019 18.9236 373.276 18.3253C373.532 17.727 373.652 17.0603 373.652 16.3252C373.652 15.5901 373.481 14.8892 373.139 14.2396C373.139 14.2396 373.139 14.2225 373.122 14.2225H374.37V11.7096H368.387ZM366.318 25.5393L366.934 25.6419C368.66 25.8983 369.891 26.2402 370.592 26.7017C371.224 27.0949 371.532 27.6248 371.532 28.2745C371.532 29.642 370.558 30.3087 368.609 30.3087C367.464 30.3087 366.541 30.0694 365.822 29.6078C365.498 29.4027 365.241 29.1463 365.07 28.8557C364.882 28.5651 364.797 28.2403 364.797 27.8471C364.797 27.4539 364.916 27.0436 365.156 26.6163C365.412 26.1718 365.805 25.8299 366.318 25.5393ZM370.045 18.2056C369.566 18.633 369.002 18.8552 368.37 18.8552C367.515 18.8552 366.831 18.6159 366.301 18.1373C366.062 17.9321 365.891 17.6757 365.754 17.4193C365.634 17.1457 365.566 16.8723 365.566 16.5816C365.566 16.291 365.617 16.0004 365.737 15.7098C366.113 14.7354 366.951 14.2567 368.267 14.2567C369.053 14.2567 369.686 14.4619 370.13 14.8722C370.575 15.2824 370.814 15.8294 370.814 16.4962C370.797 17.1457 370.54 17.727 370.045 18.2056ZM429.533 14.4961C429.755 15.0773 429.875 15.7611 429.875 16.4962V24.4794H426.969V23.8811C426.097 24.2743 425.293 24.4794 424.558 24.4794C423.635 24.4794 422.866 24.394 422.216 24.223C421.567 24.0521 421.02 23.7956 420.575 23.4708C419.669 22.787 419.207 21.8126 419.207 20.5476C419.207 19.4194 419.755 18.4621 420.883 17.7099C422.096 16.8893 423.755 16.4791 425.84 16.4791L426.319 16.4962C426.368 16.4962 426.418 16.5001 426.469 16.5042C426.524 16.5087 426.582 16.5133 426.644 16.5133C426.701 16.5214 426.754 16.5257 426.806 16.5298C426.862 16.5343 426.915 16.5385 426.969 16.5474C426.9 15.2824 426.353 14.5302 425.327 14.3251C425.003 14.2567 424.627 14.2225 424.25 14.2225C423.857 14.2225 423.481 14.2567 423.122 14.3251C422.746 14.3935 422.387 14.4961 422.045 14.5986C421.293 14.838 420.729 15.1286 420.404 15.4363L420.37 15.4192L420.011 12.8037C421.396 12.0686 422.934 11.7096 424.592 11.7096C427.174 11.7096 428.815 12.6328 429.533 14.4961ZM426.969 21.4537V19.8126V18.7014C426.746 18.6672 426.524 18.6501 426.302 18.6501H425.823C424.08 18.6501 422.968 19.0433 422.49 19.8126C422.353 20.0348 422.285 20.2741 422.285 20.5305C422.285 20.7869 422.336 21.0092 422.421 21.1972C422.524 21.3853 422.678 21.5562 422.883 21.6759C423.293 21.9152 423.909 22.0349 424.712 22.0349C425.515 22.0349 426.268 21.8297 426.969 21.4537ZM440.8 17.368C441.296 17.6073 441.706 17.8979 442.014 18.2398C442.578 18.8552 442.869 19.6758 442.869 20.7357C442.869 21.8468 442.424 22.7528 441.535 23.4537C440.612 24.1888 439.313 24.5478 437.638 24.5478C435.621 24.5478 434.048 24.2059 432.937 23.5392V20.3938C432.937 20.3767 433.005 20.445 433.125 20.5818C433.245 20.7186 433.484 20.8724 433.809 21.0776C434.133 21.2827 434.527 21.4537 434.954 21.6075C435.894 21.9323 436.869 22.0861 437.894 22.0861C439.262 22.0861 439.946 21.6246 439.946 20.7186C439.946 20.4279 439.809 20.2057 439.552 20.0689C439.091 19.8296 438.407 19.6416 437.501 19.5219C436.595 19.3852 435.86 19.2142 435.279 18.9749C434.698 18.7356 434.219 18.445 433.86 18.1202C433.193 17.4876 432.851 16.6671 432.851 15.6585C432.851 14.4277 433.33 13.4533 434.27 12.7524C435.211 12.0515 436.509 11.7096 438.168 11.7096C439.809 11.7096 441.211 12.1712 442.373 13.1114C442.322 13.3165 442.27 13.5217 442.202 13.7097C442.014 14.2396 441.877 14.6157 441.792 14.838L441.518 15.5389C441.501 15.6072 441.484 15.6414 441.484 15.6414C441.467 15.6414 441.399 15.556 441.296 15.385C440.8 14.8038 440.014 14.4277 438.971 14.2396C438.646 14.1712 438.322 14.1371 437.98 14.1371C436.544 14.1371 435.826 14.5644 435.826 15.4363C435.826 15.7269 435.963 15.9662 436.27 16.1201C436.834 16.4278 437.604 16.65 438.578 16.7868C439.552 16.9406 440.288 17.1286 440.8 17.368ZM404.814 11.7096C403.122 11.7096 401.737 12.2054 400.66 13.1969C399.651 14.1371 399.139 15.3166 399.139 16.7355C399.139 18.0005 399.583 19.0433 400.472 19.8809C399.703 20.4963 399.326 21.2314 399.326 22.1032C399.326 22.6332 399.395 23.0947 399.514 23.4879C399.634 23.8982 399.874 24.2401 400.249 24.5478C398.916 25.2829 398.267 26.4795 398.318 28.1206C398.352 29.5395 398.968 30.6677 400.164 31.5225C401.361 32.3772 402.951 32.8046 404.899 32.8046C406.848 32.8046 408.301 32.4285 409.293 31.6763C410.284 30.9241 410.78 29.8472 410.78 28.4283C410.78 27.0265 410.387 25.9324 409.6 25.1632C409.173 24.7529 408.626 24.4281 407.959 24.1375C407.276 23.864 406.353 23.6247 405.156 23.4366C403.959 23.2486 403.104 23.0434 402.592 22.787C402.352 22.6845 402.199 22.5648 402.13 22.4451C402.062 22.3255 402.028 22.1545 402.028 21.9323C402.028 21.71 402.181 21.4024 402.472 21.0092C403.138 21.2314 403.874 21.3511 404.66 21.3511C406.267 21.3511 407.583 20.8724 408.626 19.898C409.087 19.4536 409.446 18.9236 409.703 18.3253C409.959 17.727 410.079 17.0603 410.079 16.3252C410.079 15.5901 409.908 14.8892 409.566 14.2396C409.566 14.2396 409.566 14.2225 409.549 14.2225H410.797V11.7096H404.814ZM402.745 25.5393L403.361 25.6419C405.088 25.8983 406.318 26.2402 407.019 26.7017C407.651 27.0949 407.959 27.6248 407.959 28.2745C407.959 29.642 406.985 30.3087 405.036 30.3087C403.891 30.3087 402.967 30.0694 402.25 29.6078C401.925 29.4027 401.669 29.1463 401.498 28.8557C401.309 28.5651 401.224 28.2403 401.224 27.8471C401.224 27.4539 401.344 27.0436 401.583 26.6163C401.839 26.1718 402.233 25.8299 402.745 25.5393ZM406.472 18.2056C405.993 18.633 405.429 18.8552 404.797 18.8552C403.942 18.8552 403.258 18.6159 402.728 18.1373C402.489 17.9321 402.318 17.6757 402.181 17.4193C402.062 17.1457 401.993 16.8723 401.993 16.5816C401.993 16.291 402.044 16.0004 402.164 15.7098C402.54 14.7354 403.378 14.2567 404.694 14.2567C405.481 14.2567 406.113 14.4619 406.557 14.8722C407.002 15.2824 407.241 15.8294 407.241 16.4962C407.224 17.1457 406.968 17.727 406.472 18.2056Z" fill="#1B263A"/>
</g>
<path d="M520.201 20.0017L530.434 30.0779H510L520.201 20.0017Z" fill="#1B263A"/>
<path d="M510 9.95703L520.201 20.0019L530.434 9.95703H510Z" fill="#1B263A"/>
<path d="M520.203 20.0019L530.436 30.0781L540.637 20.0019L530.436 9.95703L520.203 20.0019Z" fill="#1B263A"/>
<path d="M694.91 14.7132C694.91 14.8697 694.722 14.9322 694.628 14.8071C693.877 13.9309 692.657 13.2737 690.967 13.2737C687.306 13.2737 685.241 16.2152 685.241 19.8139C685.241 23.3812 687.306 26.3227 690.967 26.3227C692.688 26.3227 694.034 25.7282 694.848 24.6955C694.941 24.5703 695.16 24.6329 695.16 24.7894V25.8846C695.16 25.9785 695.223 26.0411 695.317 26.0411H697.664C697.758 26.0411 697.82 25.9785 697.82 25.8846V8.17306C697.82 8.07919 697.758 8.0166 697.664 8.0166H695.129C695.035 8.0166 694.973 8.07919 694.973 8.17306C694.91 8.17306 694.91 14.7132 694.91 14.7132ZM695.035 19.8139C695.035 22.0356 693.721 23.788 691.531 23.788C689.371 23.788 688.026 22.0356 688.026 19.8139C688.026 17.5295 689.371 15.8084 691.531 15.8084C693.721 15.8084 695.035 17.5295 695.035 19.8139ZM684.49 13.618C684.49 13.5554 684.427 13.4928 684.365 13.4615C684.271 13.4615 684.177 13.4615 684.083 13.4615C682.331 13.4615 681.298 14.1812 680.735 14.8697C680.641 14.9948 680.422 14.9322 680.422 14.7758V13.7431C680.422 13.6493 680.359 13.5867 680.265 13.5867H677.918C677.824 13.5867 677.762 13.6493 677.762 13.7431V25.9159C677.762 26.0098 677.824 26.0724 677.918 26.0724H680.484C680.578 26.0724 680.641 26.0098 680.641 25.9159V19.5948C680.641 17.1853 681.83 16.1527 683.833 16.1527C683.989 16.1527 684.177 16.1839 684.302 16.1839C684.396 16.1839 684.458 16.1214 684.458 16.0588C684.49 15.9649 684.49 13.618 684.49 13.618ZM672.442 20.2207C672.536 20.2207 672.599 20.252 672.599 20.3459C672.599 20.3459 672.599 20.3459 672.599 20.3771V21.003C672.599 22.6928 671.472 24.1322 669.188 24.1322C667.811 24.1322 666.997 23.6629 666.997 22.505C666.997 21.6288 667.56 21.003 669.313 20.7214L672.442 20.2207ZM668.624 26.3227C670.408 26.3227 671.722 25.822 672.599 24.7894C672.692 24.6642 672.911 24.7268 672.911 24.8833C672.943 25.603 673.037 26.0098 673.068 26.0098H675.54C675.634 26.0098 675.728 25.9159 675.697 25.7907C675.509 25.2588 675.415 24.3513 675.415 23.6629V17.9363C675.415 15.0887 673.694 13.2737 670.064 13.2737C666.403 13.2737 664.901 15.1826 664.619 17.3105C664.619 17.4044 664.682 17.4669 664.744 17.4669C664.744 17.4669 664.744 17.4669 664.775 17.4669H667.248C667.31 17.4669 667.373 17.4044 667.404 17.3418C667.623 16.2778 668.499 15.6207 670.001 15.6207C671.691 15.6207 672.661 16.403 672.661 17.905V17.9676C672.661 18.0302 672.599 18.0928 672.536 18.1241L669.062 18.6248C665.777 19.0942 664.306 20.4397 664.306 22.5676C664.275 24.6955 665.526 26.3227 668.624 26.3227ZM656.733 26.3227C660.707 26.3227 663.18 23.3186 663.18 19.8139C663.18 16.3091 660.707 13.2737 656.733 13.2737C652.79 13.2737 650.318 16.3091 650.318 19.8139C650.318 23.3186 652.79 26.3227 656.733 26.3227ZM653.166 19.8139C653.166 17.3731 654.699 15.8084 656.765 15.8084C658.83 15.8084 660.363 17.4044 660.363 19.8139C660.363 22.2234 658.83 23.788 656.765 23.788C654.699 23.788 653.166 22.2234 653.166 19.8139ZM639.835 14.8071C639.741 14.9322 639.554 14.8697 639.554 14.7132V8.17306C639.554 8.07919 639.491 8.0166 639.397 8.0166H636.863C636.769 8.0166 636.706 8.07919 636.706 8.17306V25.8846C636.706 25.9785 636.769 26.0411 636.863 26.0411H639.209C639.303 26.0411 639.366 25.9785 639.366 25.8846V24.7581C639.366 24.6016 639.585 24.539 639.648 24.6642C640.492 25.6969 641.838 26.3227 643.528 26.3227C647.22 26.3227 649.286 23.3812 649.286 19.8139C649.286 16.2465 647.22 13.2737 643.528 13.2737C641.838 13.305 640.586 13.9622 639.835 14.8071ZM639.428 19.8139C639.428 17.5295 640.743 15.8084 642.933 15.8084C645.092 15.8084 646.438 17.5295 646.438 19.8139C646.438 22.0356 645.092 23.788 642.933 23.788C640.774 23.788 639.428 22.0669 639.428 19.8139ZM634.265 23.6941C634.265 23.6003 634.203 23.5377 634.109 23.5377H634.077C633.921 23.569 633.671 23.6003 633.389 23.6003C632.419 23.6003 632.012 23.1309 632.012 22.1295V15.9962C632.012 15.9023 632.075 15.8397 632.169 15.8397H634.203C634.297 15.8397 634.359 15.7771 634.359 15.6833V13.7118C634.359 13.618 634.297 13.5554 634.203 13.5554H632.169C632.075 13.5554 632.012 13.4928 632.012 13.3989V10.4574C632.012 10.3635 631.95 10.301 631.856 10.301H629.321C629.227 10.301 629.165 10.3635 629.165 10.4574V13.3989C629.165 13.4928 629.102 13.5554 629.008 13.5554H627.412C627.318 13.5554 627.256 13.618 627.256 13.7118V15.6833C627.256 15.7771 627.318 15.8397 627.412 15.8397H629.008C629.102 15.8397 629.165 15.9023 629.165 15.9962V22.4112C629.165 24.7581 630.26 26.0724 632.794 26.0724C633.483 26.0724 633.952 25.9785 634.171 25.9472C634.234 25.9472 634.297 25.8846 634.265 25.822V23.6941ZM614.207 19.8139C614.207 23.4125 616.741 26.3227 620.403 26.3227C624.001 26.3227 625.848 23.8819 626.254 21.6914C626.254 21.6288 626.223 21.535 626.129 21.535H626.098H623.469C623.407 21.535 623.344 21.5663 623.313 21.6601C622.937 22.9431 621.842 23.8193 620.34 23.8193C618.306 23.8193 617.023 22.1608 617.023 19.8452C617.023 17.4982 618.306 15.8397 620.34 15.8397C621.842 15.8397 622.937 16.7159 623.313 17.9989C623.344 18.0615 623.375 18.1241 623.469 18.1241H626.098C626.192 18.1241 626.254 18.0615 626.254 17.9989V17.9676C625.848 15.7771 624.001 13.3363 620.403 13.3363C616.741 13.305 614.207 16.1839 614.207 19.8139ZM609.419 20.7527C609.419 22.7867 608.324 23.8819 606.54 23.8819C604.819 23.8819 604.131 22.7554 604.131 21.0656V13.7431C604.131 13.6493 604.068 13.5867 603.974 13.5867H601.439C601.345 13.5867 601.283 13.6493 601.283 13.7431V21.4411C601.283 24.3513 602.848 26.3227 605.852 26.3227C607.51 26.3227 608.668 25.6969 609.294 24.9146C609.388 24.7894 609.607 24.852 609.607 25.0084V25.8846C609.607 25.9785 609.669 26.0411 609.763 26.0411H612.11C612.204 26.0411 612.267 25.9785 612.267 25.8846V13.7118C612.267 13.618 612.204 13.5554 612.11 13.5554H609.575C609.482 13.5554 609.419 13.618 609.419 13.7118V20.7527ZM596.276 14.7132C596.276 14.8697 596.088 14.9322 595.994 14.8071C595.243 13.9309 594.023 13.2737 592.333 13.2737C588.672 13.2737 586.607 16.2152 586.607 19.8139C586.607 23.3812 588.672 26.3227 592.333 26.3227C594.054 26.3227 595.369 25.7282 596.214 24.6955C596.307 24.5703 596.526 24.6329 596.526 24.7894V25.8846C596.526 25.9785 596.589 26.0411 596.683 26.0411H599.03C599.124 26.0411 599.186 25.9785 599.186 25.8846V8.17306C599.186 8.07919 599.124 8.0166 599.03 8.0166H596.495C596.401 8.0166 596.339 8.07919 596.339 8.17306L596.276 14.7132ZM596.401 19.8139C596.401 22.0356 595.087 23.788 592.897 23.788C590.737 23.788 589.392 22.0356 589.392 19.8139C589.392 17.5295 590.737 15.8084 592.897 15.8084C595.087 15.8084 596.401 17.5295 596.401 19.8139ZM578.971 26.3227C582.945 26.3227 585.418 23.3186 585.418 19.8139C585.418 16.3091 582.945 13.2737 578.971 13.2737C575.028 13.2737 572.556 16.3091 572.556 19.8139C572.525 23.3186 575.028 26.3227 578.971 26.3227ZM575.373 19.8139C575.373 17.3731 576.906 15.8084 578.971 15.8084C581.037 15.8084 582.57 17.4044 582.57 19.8139C582.57 22.2234 581.037 23.788 578.971 23.788C576.906 23.788 575.373 22.2234 575.373 19.8139ZM572.212 13.618C572.212 13.5554 572.15 13.4928 572.087 13.4615C571.993 13.4615 571.899 13.4615 571.805 13.4615C570.053 13.4615 569.02 14.1812 568.457 14.8697C568.363 14.9948 568.144 14.9322 568.144 14.7758V13.7431C568.144 13.6493 568.082 13.5867 567.988 13.5867H565.641C565.547 13.5867 565.484 13.6493 565.484 13.7431V25.9159C565.484 26.0098 565.547 26.0724 565.641 26.0724H568.175C568.269 26.0724 568.332 26.0098 568.332 25.9159V19.5948C568.332 17.1853 569.521 16.1527 571.524 16.1527C571.711 16.1527 571.868 16.1839 571.993 16.1839C572.087 16.1839 572.15 16.1214 572.15 16.0588C572.212 15.9649 572.212 13.618 572.212 13.618ZM554.031 24.9146C554.031 24.7581 554.25 24.6955 554.344 24.8207C555.095 25.6969 556.347 26.3227 558.005 26.3227C561.698 26.3227 563.763 23.3812 563.763 19.8139C563.763 16.2465 561.698 13.2737 558.005 13.2737C556.316 13.2737 554.97 13.8996 554.125 14.9322C554.031 15.0574 553.843 14.9948 553.843 14.8384V13.7118C553.843 13.618 553.781 13.5554 553.687 13.5554H551.34C551.246 13.5554 551.184 13.618 551.184 13.7118V30.8601C551.184 30.954 551.246 31.0166 551.34 31.0166H553.875C553.969 31.0166 554.031 30.954 554.031 30.8601V24.9146ZM553.937 19.8139C553.937 17.4982 555.252 15.7459 557.442 15.7459C559.601 15.7459 560.947 17.4982 560.947 19.8139C560.947 22.0356 559.601 23.788 557.442 23.788C555.252 23.788 553.937 22.0669 553.937 19.8139Z" fill="#1B263A"/>
<defs>
<clipPath id="clip0_554_6855">
<rect width="129.231" height="28" fill="white" transform="translate(0 5.0166)"/>
</clipPath>
<clipPath id="clip1_554_6855">
<rect width="115" height="37" fill="white" transform="translate(928.051 0.638428)"/>
</clipPath>
<clipPath id="clip2_554_6855">
<rect width="65.5022" height="30" fill="white" transform="translate(196 4.0166)"/>
</clipPath>
<clipPath id="clip3_554_6855">
<rect width="96.2812" height="26" fill="white" transform="translate(765 6.0166)"/>
</clipPath>
<clipPath id="clip4_554_6855">
<rect width="115.2" height="27" fill="white" transform="translate(328 6.0166)"/>
</clipPath>
</defs>
</svg>
