<svg width="374" height="618" viewBox="0 0 374 618" fill="none" xmlns="http://www.w3.org/2000/svg">
<mask id="mask0_551_4663" style="mask-type:alpha" maskUnits="userSpaceOnUse" x="0" y="0" width="374" height="618">
<rect x="0.316406" width="373.366" height="617.362" fill="url(#paint0_linear_551_4663)"/>
</mask>
<g mask="url(#mask0_551_4663)">
<rect x="0.316406" width="373.366" height="617.362" fill="url(#paint1_linear_551_4663)"/>
<g filter="url(#filter0_d_551_4663)">
<rect x="25.9375" y="322.889" width="433.872" height="168.953" fill="white"/>
</g>
<line x1="51.7539" y1="427.542" x2="427.621" y2="427.542" stroke="#EBF0F3" stroke-width="0.628916"/>
<line x1="25.9375" y1="359.814" x2="459.809" y2="359.814" stroke="#EBF0F3" stroke-width="0.628916"/>
<path d="M308.832 345.039H313.858V344.038H310.902L312.448 342.531C313.275 341.734 313.809 340.946 313.809 340.042C313.809 338.817 312.954 337.991 311.515 337.991C310.047 337.991 309.133 338.866 309.045 340.382H310.232C310.348 339.4 310.786 339.002 311.476 339.002C312.147 339.002 312.516 339.41 312.516 340.061C312.516 340.723 312.118 341.335 311.456 342.035L308.832 344.806V345.039ZM316.795 345.136C318.292 345.136 319.352 344.213 319.352 342.745C319.352 341.286 318.467 340.411 317.213 340.411C316.474 340.411 315.988 340.684 315.716 340.995L315.726 339.109H318.953V338.088H314.734L314.676 341.957H315.337C315.648 341.598 316.076 341.354 316.785 341.354C317.553 341.354 318.04 341.889 318.04 342.725C318.04 343.581 317.583 344.135 316.785 344.135C315.891 344.135 315.628 343.688 315.522 343.046H314.316C314.394 344.242 315.162 345.136 316.795 345.136ZM321.192 340.606C320.735 340.606 320.443 340.295 320.443 339.702C320.443 339.118 320.735 338.798 321.192 338.798C321.649 338.798 321.931 339.138 321.931 339.702C321.931 340.275 321.649 340.606 321.192 340.606ZM321.182 341.393C322.135 341.393 322.874 340.674 322.874 339.692C322.874 338.72 322.125 338.02 321.192 338.02C320.259 338.02 319.49 338.739 319.49 339.711C319.49 340.674 320.229 341.393 321.182 341.393ZM320.443 345.039H321.27L325.742 338.088H324.925L320.443 345.039ZM325.003 344.349C324.546 344.349 324.254 344.038 324.254 343.445C324.254 342.861 324.546 342.541 325.003 342.541C325.46 342.541 325.742 342.881 325.742 343.445C325.742 344.018 325.46 344.349 325.003 344.349ZM324.993 345.136C325.946 345.136 326.695 344.417 326.695 343.435C326.695 342.463 325.936 341.763 325.003 341.763C324.07 341.763 323.311 342.482 323.311 343.454C323.311 344.417 324.04 345.136 324.993 345.136Z" fill="#134AE9"/>
<rect x="338.83" y="337.532" width="100.911" height="7.56315" rx="3.78158" fill="#F5F7FA"/>
<rect x="338.83" y="337.532" width="100.911" height="7.56315" rx="3.78158" stroke="#1B263A"/>
<rect x="338.83" y="337.532" width="25.2277" height="7.56315" rx="3.78158" fill="#134AE9"/>
<path d="M55.2594 344.262C54.6468 344.262 54.106 344.152 53.6371 343.933C53.1682 343.713 52.8014 343.399 52.5367 342.991C52.272 342.583 52.1396 342.091 52.1396 341.516V341.199H53.6144V341.516C53.6144 341.993 53.7619 342.352 54.0569 342.594C54.3519 342.828 54.7527 342.946 55.2594 342.946C55.7737 342.946 56.1557 342.844 56.4052 342.639C56.6624 342.435 56.791 342.174 56.791 341.857C56.791 341.637 56.7267 341.459 56.5981 341.323C56.4771 341.187 56.2956 341.078 56.0536 340.994C55.8191 340.904 55.5317 340.82 55.1914 340.745L54.9304 340.688C54.3859 340.567 53.917 340.416 53.5237 340.234C53.138 340.045 52.8392 339.799 52.6275 339.497C52.4232 339.194 52.3211 338.801 52.3211 338.317C52.3211 337.833 52.4346 337.421 52.6615 337.08C52.8959 336.732 53.2212 336.468 53.6371 336.286C54.0607 336.097 54.5561 336.003 55.1233 336.003C55.6905 336.003 56.1935 336.101 56.6321 336.298C57.0784 336.487 57.4263 336.774 57.6759 337.16C57.933 337.538 58.0616 338.014 58.0616 338.589V338.93H56.5868V338.589C56.5868 338.287 56.5263 338.045 56.4052 337.863C56.2918 337.674 56.1254 337.538 55.9061 337.455C55.6867 337.364 55.4258 337.319 55.1233 337.319C54.6695 337.319 54.3329 337.406 54.1136 337.58C53.9018 337.746 53.796 337.977 53.796 338.272C53.796 338.468 53.8451 338.635 53.9434 338.771C54.0493 338.907 54.2044 339.02 54.4086 339.111C54.6128 339.202 54.8737 339.281 55.1914 339.349L55.4523 339.406C56.0195 339.527 56.5111 339.682 56.9271 339.871C57.3506 340.06 57.6796 340.31 57.9141 340.62C58.1486 340.93 58.2658 341.327 58.2658 341.811C58.2658 342.295 58.141 342.723 57.8914 343.093C57.6494 343.456 57.3015 343.744 56.8477 343.955C56.4015 344.16 55.872 344.262 55.2594 344.262ZM60.7213 344.262C60.3205 344.262 59.9612 344.194 59.6435 344.057C59.3259 343.914 59.0725 343.709 58.8835 343.445C58.7019 343.173 58.6112 342.844 58.6112 342.458C58.6112 342.072 58.7019 341.751 58.8835 341.493C59.0725 341.229 59.3297 341.032 59.6549 340.904C59.9877 340.767 60.3658 340.699 60.7894 340.699H62.3322V340.382C62.3322 340.117 62.2491 339.901 62.0827 339.735C61.9163 339.561 61.6516 339.474 61.2885 339.474C60.9331 339.474 60.6684 339.557 60.4944 339.724C60.3205 339.883 60.207 340.091 60.1541 340.348L58.8381 339.905C58.9288 339.618 59.0725 339.357 59.2692 339.122C59.4734 338.88 59.7419 338.688 60.0746 338.544C60.415 338.393 60.8272 338.317 61.3112 338.317C62.0524 338.317 62.6386 338.502 63.0697 338.873C63.5008 339.243 63.7163 339.78 63.7163 340.484V342.583C63.7163 342.809 63.8222 342.923 64.034 342.923H64.4877V344.103H63.5348C63.255 344.103 63.0243 344.035 62.8428 343.899C62.6612 343.762 62.5705 343.581 62.5705 343.354V343.343H62.3549C62.3247 343.433 62.2566 343.554 62.1507 343.706C62.0448 343.849 61.8785 343.978 61.6516 344.091C61.4247 344.205 61.1146 344.262 60.7213 344.262ZM60.9709 343.104C61.3717 343.104 61.6969 342.995 61.9465 342.775C62.2037 342.549 62.3322 342.25 62.3322 341.879V341.766H60.8915C60.6268 341.766 60.4188 341.822 60.2675 341.936C60.1162 342.049 60.0406 342.208 60.0406 342.412C60.0406 342.617 60.12 342.783 60.2789 342.912C60.4377 343.04 60.6684 343.104 60.9709 343.104ZM65.0791 344.103V336.161H66.5085V344.103H65.0791ZM70.2027 344.262C69.643 344.262 69.1476 344.144 68.7165 343.91C68.293 343.668 67.9602 343.331 67.7182 342.9C67.4837 342.462 67.3665 341.947 67.3665 341.357V341.221C67.3665 340.631 67.4837 340.121 67.7182 339.69C67.9526 339.251 68.2816 338.914 68.7052 338.68C69.1287 338.438 69.6203 338.317 70.18 338.317C70.7321 338.317 71.2123 338.442 71.6207 338.691C72.0292 338.933 72.3468 339.274 72.5737 339.712C72.8006 340.143 72.914 340.646 72.914 341.221V341.709H68.8186C68.8337 342.095 68.9774 342.409 69.2497 342.651C69.522 342.893 69.8548 343.014 70.248 343.014C70.6489 343.014 70.9438 342.927 71.1329 342.753C71.322 342.579 71.4657 342.386 71.564 342.174L72.7325 342.787C72.6266 342.983 72.4716 343.199 72.2674 343.433C72.0708 343.66 71.806 343.857 71.4733 344.023C71.1405 344.182 70.717 344.262 70.2027 344.262ZM68.8299 340.643H71.4619C71.4317 340.317 71.2993 340.056 71.0649 339.86C70.838 339.663 70.5392 339.565 70.1686 339.565C69.7829 339.565 69.4766 339.663 69.2497 339.86C69.0228 340.056 68.8829 340.317 68.8299 340.643ZM76.0696 344.262C75.3359 344.262 74.7347 344.103 74.2658 343.785C73.7968 343.467 73.5132 343.014 73.4149 342.424L74.7309 342.083C74.7838 342.348 74.8708 342.556 74.9918 342.707C75.1204 342.859 75.2754 342.968 75.457 343.036C75.646 343.097 75.8502 343.127 76.0696 343.127C76.4023 343.127 76.6482 343.07 76.807 342.957C76.9658 342.836 77.0452 342.688 77.0452 342.515C77.0452 342.341 76.9696 342.208 76.8183 342.117C76.6671 342.019 76.425 341.94 76.0923 341.879L75.7746 341.822C75.3813 341.747 75.0221 341.645 74.6969 341.516C74.3716 341.38 74.1107 341.195 73.9141 340.96C73.7174 340.726 73.6191 340.423 73.6191 340.053C73.6191 339.493 73.8233 339.066 74.2317 338.771C74.6401 338.468 75.1771 338.317 75.8427 338.317C76.4704 338.317 76.9923 338.457 77.4082 338.737C77.8242 339.017 78.0965 339.383 78.2251 339.837L76.8977 340.246C76.8372 339.958 76.7124 339.754 76.5234 339.633C76.3418 339.512 76.1149 339.451 75.8427 339.451C75.5704 339.451 75.3624 339.501 75.2187 339.599C75.075 339.69 75.0032 339.818 75.0032 339.985C75.0032 340.166 75.0788 340.302 75.2301 340.393C75.3813 340.476 75.5855 340.541 75.8427 340.586L76.1603 340.643C76.5839 340.718 76.9658 340.82 77.3061 340.949C77.6541 341.07 77.9263 341.248 78.123 341.482C78.3272 341.709 78.4293 342.019 78.4293 342.412C78.4293 343.002 78.2137 343.46 77.7826 343.785C77.3591 344.103 76.7881 344.262 76.0696 344.262ZM80.6792 346.372L84.0145 336.161H85.444L82.1086 346.372H80.6792ZM90.9984 344.262C90.0151 344.262 89.2361 343.989 88.6613 343.445C88.0865 342.893 87.7991 342.106 87.7991 341.085V339.179C87.7991 338.158 88.0865 337.375 88.6613 336.831C89.2361 336.279 90.0151 336.003 90.9984 336.003C91.974 336.003 92.7265 336.271 93.256 336.808C93.7929 337.338 94.0614 338.067 94.0614 338.998V339.066H92.5866V338.952C92.5866 338.483 92.4543 338.098 92.1895 337.795C91.9324 337.493 91.5353 337.341 90.9984 337.341C90.4689 337.341 90.053 337.504 89.7504 337.829C89.4479 338.154 89.2966 338.597 89.2966 339.156V341.108C89.2966 341.66 89.4479 342.102 89.7504 342.435C90.053 342.76 90.4689 342.923 90.9984 342.923C91.5353 342.923 91.9324 342.772 92.1895 342.469C92.4543 342.159 92.5866 341.773 92.5866 341.312V341.108H94.0614V341.267C94.0614 342.197 93.7929 342.93 93.256 343.467C92.7265 343.997 91.974 344.262 90.9984 344.262ZM97.5846 344.262C96.972 344.262 96.4312 344.152 95.9623 343.933C95.4934 343.713 95.1266 343.399 94.8619 342.991C94.5971 342.583 94.4648 342.091 94.4648 341.516V341.199H95.9396V341.516C95.9396 341.993 96.0871 342.352 96.382 342.594C96.677 342.828 97.0779 342.946 97.5846 342.946C98.0989 342.946 98.4808 342.844 98.7304 342.639C98.9876 342.435 99.1161 342.174 99.1161 341.857C99.1161 341.637 99.0518 341.459 98.9233 341.323C98.8023 341.187 98.6207 341.078 98.3787 340.994C98.1443 340.904 97.8569 340.82 97.5165 340.745L97.2556 340.688C96.711 340.567 96.2421 340.416 95.8488 340.234C95.4631 340.045 95.1644 339.799 94.9526 339.497C94.7484 339.194 94.6463 338.801 94.6463 338.317C94.6463 337.833 94.7598 337.421 94.9866 337.08C95.2211 336.732 95.5463 336.468 95.9623 336.286C96.3858 336.097 96.8812 336.003 97.4485 336.003C98.0157 336.003 98.5186 336.101 98.9573 336.298C99.4035 336.487 99.7514 336.774 100.001 337.16C100.258 337.538 100.387 338.014 100.387 338.589V338.93H98.9119V338.589C98.9119 338.287 98.8514 338.045 98.7304 337.863C98.617 337.674 98.4506 337.538 98.2312 337.455C98.0119 337.364 97.751 337.319 97.4485 337.319C96.9947 337.319 96.6581 337.406 96.4388 337.58C96.227 337.746 96.1211 337.977 96.1211 338.272C96.1211 338.468 96.1703 338.635 96.2686 338.771C96.3745 338.907 96.5295 339.02 96.7337 339.111C96.9379 339.202 97.1989 339.281 97.5165 339.349L97.7775 339.406C98.3447 339.527 98.8363 339.682 99.2523 339.871C99.6758 340.06 100.005 340.31 100.239 340.62C100.474 340.93 100.591 341.327 100.591 341.811C100.591 342.295 100.466 342.723 100.217 343.093C99.9745 343.456 99.6266 343.744 99.1729 343.955C98.7266 344.16 98.1972 344.262 97.5846 344.262ZM103.681 344.103V336.161H105.178V339.44H108.128V336.161H109.625V344.103H108.128V340.801H105.178V344.103H103.681ZM112.464 344.262C112.064 344.262 111.704 344.194 111.387 344.057C111.069 343.914 110.816 343.709 110.627 343.445C110.445 343.173 110.354 342.844 110.354 342.458C110.354 342.072 110.445 341.751 110.627 341.493C110.816 341.229 111.073 341.032 111.398 340.904C111.731 340.767 112.109 340.699 112.532 340.699H114.075V340.382C114.075 340.117 113.992 339.901 113.826 339.735C113.659 339.561 113.395 339.474 113.032 339.474C112.676 339.474 112.411 339.557 112.237 339.724C112.064 339.883 111.95 340.091 111.897 340.348L110.581 339.905C110.672 339.618 110.816 339.357 111.012 339.122C111.216 338.88 111.485 338.688 111.818 338.544C112.158 338.393 112.57 338.317 113.054 338.317C113.795 338.317 114.382 338.502 114.813 338.873C115.244 339.243 115.459 339.78 115.459 340.484V342.583C115.459 342.809 115.565 342.923 115.777 342.923H116.231V344.103H115.278C114.998 344.103 114.767 344.035 114.586 343.899C114.404 343.762 114.314 343.581 114.314 343.354V343.343H114.098C114.068 343.433 114 343.554 113.894 343.706C113.788 343.849 113.622 343.978 113.395 344.091C113.168 344.205 112.858 344.262 112.464 344.262ZM112.714 343.104C113.115 343.104 113.44 342.995 113.69 342.775C113.947 342.549 114.075 342.25 114.075 341.879V341.766H112.635C112.37 341.766 112.162 341.822 112.011 341.936C111.859 342.049 111.784 342.208 111.784 342.412C111.784 342.617 111.863 342.783 112.022 342.912C112.181 343.04 112.411 343.104 112.714 343.104ZM116.822 344.103V338.476H118.229V339.213H118.433C118.524 339.017 118.694 338.831 118.944 338.657C119.193 338.476 119.571 338.385 120.078 338.385C120.517 338.385 120.899 338.487 121.224 338.691C121.557 338.888 121.814 339.164 121.995 339.52C122.177 339.867 122.268 340.276 122.268 340.745V344.103H120.838V340.858C120.838 340.435 120.732 340.117 120.521 339.905C120.316 339.693 120.021 339.588 119.636 339.588C119.197 339.588 118.857 339.735 118.615 340.03C118.373 340.317 118.252 340.722 118.252 341.244V344.103H116.822ZM125.628 344.262C125.182 344.262 124.762 344.152 124.369 343.933C123.983 343.706 123.673 343.377 123.439 342.946C123.204 342.515 123.087 341.993 123.087 341.38V341.199C123.087 340.586 123.204 340.064 123.439 339.633C123.673 339.202 123.983 338.877 124.369 338.657C124.755 338.43 125.174 338.317 125.628 338.317C125.968 338.317 126.252 338.359 126.479 338.442C126.713 338.517 126.902 338.616 127.046 338.737C127.19 338.858 127.3 338.986 127.375 339.122H127.579V336.161H129.009V344.103H127.602V343.422H127.398C127.269 343.634 127.069 343.827 126.797 344.001C126.532 344.175 126.142 344.262 125.628 344.262ZM126.059 343.014C126.498 343.014 126.865 342.874 127.16 342.594C127.455 342.307 127.602 341.891 127.602 341.346V341.233C127.602 340.688 127.455 340.276 127.16 339.996C126.872 339.709 126.505 339.565 126.059 339.565C125.62 339.565 125.254 339.709 124.959 339.996C124.664 340.276 124.516 340.688 124.516 341.233V341.346C124.516 341.891 124.664 342.307 124.959 342.594C125.254 342.874 125.62 343.014 126.059 343.014ZM132.817 344.262C132.257 344.262 131.755 344.148 131.308 343.921C130.862 343.694 130.51 343.365 130.253 342.934C129.996 342.503 129.868 341.985 129.868 341.38V341.199C129.868 340.593 129.996 340.075 130.253 339.644C130.51 339.213 130.862 338.884 131.308 338.657C131.755 338.43 132.257 338.317 132.817 338.317C133.377 338.317 133.88 338.43 134.326 338.657C134.772 338.884 135.124 339.213 135.381 339.644C135.638 340.075 135.767 340.593 135.767 341.199V341.38C135.767 341.985 135.638 342.503 135.381 342.934C135.124 343.365 134.772 343.694 134.326 343.921C133.88 344.148 133.377 344.262 132.817 344.262ZM132.817 342.991C133.256 342.991 133.619 342.851 133.906 342.571C134.194 342.284 134.337 341.875 134.337 341.346V341.233C134.337 340.703 134.194 340.299 133.906 340.019C133.626 339.731 133.263 339.588 132.817 339.588C132.379 339.588 132.015 339.731 131.728 340.019C131.441 340.299 131.297 340.703 131.297 341.233V341.346C131.297 341.875 131.441 342.284 131.728 342.571C132.015 342.851 132.379 342.991 132.817 342.991ZM137.385 344.103V339.656H135.956V338.476H137.385V337.432C137.385 337.046 137.499 336.74 137.726 336.513C137.96 336.279 138.263 336.161 138.633 336.161H140.108V337.341H139.133C138.921 337.341 138.815 337.455 138.815 337.682V338.476H139.949V339.656H138.815V344.103H137.385ZM141.084 344.103V339.656H139.949V338.476H141.084V337.432C141.084 337.046 141.197 336.74 141.424 336.513C141.659 336.279 141.961 336.161 142.332 336.161H143.807V337.341H142.831C142.619 337.341 142.513 337.455 142.513 337.682V338.476H143.988V339.656H142.513V344.103H141.084Z" fill="#1B263A"/>
<path d="M271.227 401.171H272.434V398.548H273.205L274.902 401.171H276.209L274.385 398.366C275.193 398.157 275.828 397.64 275.828 396.624V396.587C275.828 395.262 274.83 394.681 273.405 394.681H271.227V401.171ZM272.434 397.686V395.616H273.405C274.176 395.616 274.639 395.87 274.639 396.615V396.651C274.639 397.341 274.213 397.686 273.405 397.686H272.434ZM276.929 401.171H278.027V396.424H276.929V401.171ZM277.464 395.644C277.827 395.644 278.118 395.371 278.118 395.017C278.118 394.654 277.827 394.382 277.464 394.382C277.101 394.382 276.811 394.654 276.811 395.017C276.811 395.371 277.101 395.644 277.464 395.644ZM281.262 401.261C282.551 401.261 283.377 400.49 283.459 399.401H282.451C282.388 400.072 281.888 400.417 281.308 400.417C280.5 400.417 279.992 399.873 279.992 398.838V398.766C279.992 397.785 280.527 397.205 281.28 397.205C281.861 397.205 282.279 397.468 282.37 398.103H283.431C283.304 396.796 282.315 396.324 281.262 396.324C279.937 396.324 278.866 397.277 278.866 398.784V398.856C278.866 400.372 279.901 401.261 281.262 401.261ZM284.223 401.171H285.321V398.375C285.321 397.622 285.82 397.241 286.437 397.241C287.091 397.241 287.381 397.568 287.381 398.285V401.171H288.479V398.185C288.479 396.878 287.808 396.324 286.855 396.324C286.074 396.324 285.548 396.714 285.321 397.177V394.228H284.223V401.171ZM290.806 401.261C291.532 401.261 291.95 400.998 292.258 400.59V401.171H293.338V398.058C293.338 396.76 292.503 396.324 291.442 396.324C290.38 396.324 289.499 396.787 289.409 397.894H290.47C290.525 397.422 290.806 397.15 291.378 397.15C292.022 397.15 292.24 397.468 292.24 398.103V398.348H291.65C290.289 398.348 289.218 398.747 289.218 399.855C289.218 400.844 289.935 401.261 290.806 401.261ZM291.069 400.472C290.525 400.472 290.307 400.209 290.307 399.809C290.307 399.228 290.843 399.038 291.678 399.038H292.24V399.51C292.24 400.118 291.741 400.472 291.069 400.472ZM294.416 401.171H295.514V398.702C295.514 397.695 296.095 397.386 297.057 397.377V396.351C296.258 396.36 295.813 396.714 295.514 397.313V396.424H294.416V401.171ZM299.532 401.261C300.23 401.261 300.839 400.844 301.093 400.372V401.171H302.191V394.228H301.093V397.15C300.829 396.678 300.348 396.324 299.577 396.324C298.343 396.324 297.444 397.286 297.444 398.802V398.874C297.444 400.417 298.343 401.261 299.532 401.261ZM299.804 400.39C299.096 400.39 298.57 399.891 298.57 398.847V398.775C298.57 397.749 299.042 397.186 299.849 397.186C300.648 397.186 301.129 397.704 301.129 398.747V398.82C301.129 399.882 300.566 400.39 299.804 400.39ZM305.386 401.171H306.593V398.412H309.507V401.171H310.723V394.681H309.507V397.441H306.593V394.681H305.386V401.171Z" fill="#1B263A"/>
<path opacity="0.4" d="M329.551 401.171H330.649V396.197L333.571 401.171H334.824V394.681H333.726V399.374L330.994 394.681H329.551V401.171ZM338.121 400.408C337.286 400.408 336.805 399.8 336.805 398.829V398.756C336.805 397.776 337.304 397.186 338.121 397.186C338.937 397.186 339.427 397.785 339.427 398.766V398.829C339.427 399.8 338.937 400.408 338.121 400.408ZM338.111 401.261C339.509 401.261 340.553 400.299 340.553 398.82V398.747C340.553 397.295 339.509 396.324 338.121 396.324C336.723 396.324 335.679 397.304 335.679 398.775V398.847C335.679 400.29 336.714 401.261 338.111 401.261ZM341.364 401.171H342.462V398.375C342.462 397.622 342.961 397.241 343.578 397.241C344.232 397.241 344.522 397.568 344.522 398.285V401.171H345.62V398.185C345.62 396.878 344.948 396.324 343.996 396.324C343.215 396.324 342.689 396.714 342.462 397.177V396.424H341.364V401.171ZM348.791 401.261C350.007 401.261 350.815 400.717 350.969 399.719H349.907C349.826 400.181 349.481 400.445 348.818 400.445C348.002 400.445 347.548 399.936 347.511 399.038H350.988V398.72C350.988 397.023 349.926 396.324 348.746 396.324C347.393 396.324 346.386 397.304 346.386 398.775V398.847C346.386 400.345 347.393 401.261 348.791 401.261ZM347.53 398.303C347.639 397.568 348.083 397.123 348.746 397.123C349.426 397.123 349.844 397.486 349.898 398.303H347.53Z" fill="#1B263A"/>
<rect x="194.078" y="387.79" width="57.1655" height="20.106" rx="3.51387" fill="#6E28ED" fill-opacity="0.2"/>
<path d="M203.99 399.22C203.189 399.22 202.603 398.597 202.603 397.636V397.586C202.603 396.637 203.115 396.002 203.978 396.002C204.841 396.002 205.346 396.674 205.346 397.58V397.629C205.346 398.585 204.822 399.22 203.99 399.22ZM203.978 399.879C205.315 399.879 206.197 398.912 206.197 397.623V397.574C206.197 396.28 205.291 395.349 203.978 395.349C202.671 395.349 201.746 396.304 201.746 397.592V397.642C201.746 398.912 202.628 399.879 203.978 399.879ZM206.988 399.818H207.734V396.44L209.719 399.818H210.57V395.41H209.824V398.597L207.969 395.41H206.988V399.818ZM211.581 399.818H213.276C214.244 399.818 214.787 399.405 214.787 398.585V398.56C214.787 397.975 214.503 397.648 213.905 397.518C214.404 397.364 214.602 397.019 214.602 396.582V396.557C214.602 395.756 214.065 395.41 213.159 395.41H211.581V399.818ZM212.383 399.232V397.821H213.122C213.726 397.821 213.979 398.049 213.979 398.505V398.529C213.979 398.986 213.726 399.232 213.178 399.232H212.383ZM212.383 397.266V395.996H213.048C213.572 395.996 213.813 396.175 213.813 396.594V396.619C213.813 397.069 213.603 397.266 213.061 397.266H212.383ZM217.576 399.22C216.775 399.22 216.189 398.597 216.189 397.636V397.586C216.189 396.637 216.701 396.002 217.564 396.002C218.427 396.002 218.932 396.674 218.932 397.58V397.629C218.932 398.585 218.408 399.22 217.576 399.22ZM217.564 399.879C218.901 399.879 219.783 398.912 219.783 397.623V397.574C219.783 396.28 218.877 395.349 217.564 395.349C216.257 395.349 215.332 396.304 215.332 397.592V397.642C215.332 398.912 216.214 399.879 217.564 399.879ZM219.989 399.818H220.759L221.104 398.727H222.787L223.138 399.818H223.989L222.534 395.41H221.462L219.989 399.818ZM221.949 396.082L222.596 398.129H221.295L221.949 396.082ZM224.662 399.818H225.482V398.036H226.005L227.158 399.818H228.046L226.807 397.913C227.355 397.771 227.787 397.42 227.787 396.73V396.705C227.787 395.805 227.109 395.41 226.141 395.41H224.662V399.818ZM225.482 397.451V396.045H226.141C226.665 396.045 226.979 396.218 226.979 396.723V396.748C226.979 397.216 226.69 397.451 226.141 397.451H225.482ZM229.521 399.17V396.058H229.995C231.031 396.058 231.462 396.631 231.462 397.58V397.629C231.462 398.603 230.988 399.17 230.001 399.17H229.521ZM228.701 399.818H230.026C231.573 399.818 232.319 398.905 232.319 397.623V397.568C232.319 396.286 231.573 395.41 230.038 395.41H228.701V399.818ZM233.126 399.818H233.952V395.41H233.126V399.818ZM234.991 399.818H235.737V396.44L237.722 399.818H238.572V395.41H237.827V398.597L235.971 395.41H234.991V399.818ZM241.563 399.879C242.808 399.879 243.572 399.14 243.572 397.919V397.512H241.655V398.129H242.765C242.74 398.739 242.401 399.238 241.575 399.238C240.65 399.238 240.213 398.591 240.213 397.648V397.599C240.213 396.631 240.712 395.99 241.575 395.99C242.148 395.99 242.543 396.243 242.641 396.828H243.461C243.344 395.774 242.506 395.343 241.563 395.343C240.274 395.343 239.362 396.28 239.362 397.592V397.642C239.362 398.942 240.151 399.879 241.563 399.879Z" fill="#1B263A"/>
<line x1="85.6184" y1="406.274" x2="127.424" y2="406.274" stroke="#D5DDE2" stroke-width="2.8111" stroke-linecap="round" stroke-linejoin="round"/>
<line x1="137.351" y1="406.274" x2="163.679" y2="406.274" stroke="#D5DDE2" stroke-width="2.8111" stroke-linecap="round" stroke-linejoin="round"/>
<path d="M87.1625 397.097C88.5965 397.097 89.5495 396.217 89.5495 395.092C89.5495 393.794 88.7599 393.358 87.2351 393.149C86.1097 392.986 85.8919 392.723 85.8919 392.196C85.8919 391.697 86.2731 391.343 87.0082 391.343C87.7524 391.343 88.1427 391.634 88.2607 392.314H89.3679C89.2409 391.071 88.4059 390.436 87.0082 390.436C85.6559 390.436 84.7484 391.234 84.7484 392.296C84.7484 393.512 85.4835 393.984 87.0355 394.193C88.0883 394.365 88.3878 394.592 88.3878 395.191C88.3878 395.79 87.8795 396.19 87.1625 396.19C86.0644 396.19 85.8012 395.645 85.7195 394.992H84.5578C84.6485 396.217 85.3927 397.097 87.1625 397.097ZM92.5242 397.097C93.8129 397.097 94.6388 396.326 94.7205 395.237H93.7131C93.6496 395.908 93.1504 396.253 92.5696 396.253C91.7618 396.253 91.2536 395.709 91.2536 394.674V394.601C91.2536 393.621 91.789 393.04 92.5423 393.04C93.1232 393.04 93.5407 393.304 93.6314 393.939H94.6933C94.5662 392.632 93.577 392.16 92.5242 392.16C91.1991 392.16 90.1282 393.113 90.1282 394.62V394.692C90.1282 396.208 91.1628 397.097 92.5242 397.097ZM95.4847 397.007H96.5828V394.211C96.5828 393.458 97.082 393.077 97.6992 393.077C98.3526 393.077 98.643 393.403 98.643 394.12V397.007H99.7412V394.021C99.7412 392.714 99.0696 392.16 98.1166 392.16C97.3361 392.16 96.8097 392.55 96.5828 393.013V390.064H95.4847V397.007ZM102.912 397.097C104.128 397.097 104.936 396.553 105.09 395.554H104.029C103.947 396.017 103.602 396.28 102.939 396.28C102.123 396.28 101.669 395.772 101.633 394.874H105.109V394.556C105.109 392.859 104.047 392.16 102.867 392.16C101.515 392.16 100.507 393.14 100.507 394.61V394.683C100.507 396.181 101.515 397.097 102.912 397.097ZM101.651 394.139C101.76 393.403 102.204 392.959 102.867 392.959C103.548 392.959 103.965 393.322 104.02 394.139H101.651ZM107.687 397.097C108.386 397.097 108.994 396.68 109.248 396.208V397.007H110.346V390.064H109.248V392.986C108.985 392.514 108.504 392.16 107.732 392.16C106.498 392.16 105.599 393.122 105.599 394.638V394.71C105.599 396.253 106.498 397.097 107.687 397.097ZM107.959 396.226C107.251 396.226 106.725 395.727 106.725 394.683V394.61C106.725 393.585 107.197 393.022 108.004 393.022C108.803 393.022 109.284 393.54 109.284 394.583V394.656C109.284 395.718 108.721 396.226 107.959 396.226ZM113.058 397.097C113.829 397.097 114.329 396.725 114.565 396.262V397.007H115.663V392.26H114.565V395.082C114.565 395.836 114.047 396.217 113.457 396.217C112.822 396.217 112.523 395.89 112.523 395.173V392.26H111.424V395.3C111.424 396.562 112.123 397.097 113.058 397.097ZM116.811 397.007H117.909V390.064H116.811V397.007ZM121.153 397.097C122.369 397.097 123.177 396.553 123.331 395.554H122.27C122.188 396.017 121.843 396.28 121.18 396.28C120.364 396.28 119.91 395.772 119.873 394.874H123.35V394.556C123.35 392.859 122.288 392.16 121.108 392.16C119.756 392.16 118.748 393.14 118.748 394.61V394.683C118.748 396.181 119.756 397.097 121.153 397.097ZM119.892 394.139C120.001 393.403 120.445 392.959 121.108 392.959C121.788 392.959 122.206 393.322 122.26 394.139H119.892ZM127.373 397.097C128.099 397.097 128.517 396.834 128.825 396.426V397.007H129.906V393.894C129.906 392.596 129.071 392.16 128.009 392.16C126.947 392.16 126.066 392.623 125.976 393.73H127.038C127.092 393.258 127.373 392.986 127.945 392.986C128.59 392.986 128.807 393.304 128.807 393.939V394.184H128.217C126.856 394.184 125.785 394.583 125.785 395.691C125.785 396.68 126.502 397.097 127.373 397.097ZM127.637 396.308C127.092 396.308 126.874 396.044 126.874 395.645C126.874 395.064 127.41 394.874 128.245 394.874H128.807V395.346C128.807 395.954 128.308 396.308 127.637 396.308ZM132.964 397.007H134.062V394.166C134.062 393.44 134.561 393.077 135.106 393.077C135.641 393.077 135.95 393.376 135.95 394.075V397.007H137.048V394.166C137.048 393.44 137.547 393.077 138.092 393.077C138.636 393.077 138.936 393.376 138.936 394.075V397.007H140.034V394.002C140.034 392.696 139.326 392.16 138.455 392.16C137.865 392.16 137.211 392.423 136.848 393.013C136.612 392.423 136.122 392.16 135.505 392.16C134.806 392.16 134.289 392.541 134.062 392.986V392.26H132.964V397.007ZM143.201 397.097C144.417 397.097 145.225 396.553 145.379 395.554H144.317C144.236 396.017 143.891 396.28 143.228 396.28C142.411 396.28 141.958 395.772 141.921 394.874H145.397V394.556C145.397 392.859 144.335 392.16 143.156 392.16C141.803 392.16 140.796 393.14 140.796 394.61V394.683C140.796 396.181 141.803 397.097 143.201 397.097ZM141.939 394.139C142.048 393.403 142.493 392.959 143.156 392.959C143.836 392.959 144.254 393.322 144.308 394.139H141.939ZM148.284 397.097C149.5 397.097 150.308 396.553 150.462 395.554H149.4C149.319 396.017 148.974 396.28 148.311 396.28C147.495 396.28 147.041 395.772 147.004 394.874H150.48V394.556C150.48 392.859 149.419 392.16 148.239 392.16C146.886 392.16 145.879 393.14 145.879 394.61V394.683C145.879 396.181 146.886 397.097 148.284 397.097ZM147.023 394.139C147.131 393.403 147.576 392.959 148.239 392.959C148.919 392.959 149.337 393.322 149.391 394.139H147.023ZM152.895 397.088C153.231 397.088 153.467 397.034 153.64 396.97V396.099C153.485 396.162 153.322 396.19 153.104 396.19C152.759 396.19 152.56 395.999 152.56 395.582V393.086H153.603V392.26H152.56V391.216H151.461V392.26H150.826V393.086H151.461V395.681C151.461 396.58 151.951 397.088 152.895 397.088ZM154.476 397.007H155.574V392.26H154.476V397.007ZM155.011 391.479C155.374 391.479 155.665 391.207 155.665 390.853C155.665 390.49 155.374 390.218 155.011 390.218C154.648 390.218 154.358 390.49 154.358 390.853C154.358 391.207 154.648 391.479 155.011 391.479ZM156.731 397.007H157.829V394.211C157.829 393.458 158.328 393.077 158.945 393.077C159.599 393.077 159.889 393.403 159.889 394.12V397.007H160.988V394.021C160.988 392.714 160.316 392.16 159.363 392.16C158.582 392.16 158.056 392.55 157.829 393.013V392.26H156.731V397.007ZM164.095 398.749C165.565 398.749 166.5 398.05 166.509 396.653V392.26H165.411V392.986C165.139 392.514 164.667 392.16 163.886 392.16C162.661 392.16 161.753 393.158 161.753 394.493V394.556C161.753 395.926 162.67 396.816 163.859 396.816C164.558 396.816 165.148 396.389 165.411 395.936V396.634C165.411 397.488 164.939 397.914 164.086 397.914C163.369 397.914 163.006 397.642 162.915 397.17H161.808C161.935 398.077 162.607 398.749 164.095 398.749ZM164.131 395.972C163.423 395.972 162.879 395.427 162.879 394.547V394.474C162.879 393.612 163.351 393.022 164.168 393.022C164.957 393.022 165.447 393.558 165.447 394.456V394.52C165.447 395.427 164.894 395.972 164.131 395.972Z" fill="#1B263A"/>
<rect x="51.7539" y="386.935" width="22.183" height="21.8154" rx="3.78158" fill="#85F1F0"/>
<path d="M271.826 461.287C273.024 461.287 273.831 460.642 273.831 459.235V454.716H272.615V459.208C272.615 460.007 272.234 460.315 271.644 460.315C271.263 460.315 271.036 460.243 270.809 460.152V461.096C271.018 461.205 271.29 461.287 271.826 461.287ZM276.177 461.296C276.903 461.296 277.321 461.032 277.629 460.624V461.205H278.709V458.092C278.709 456.794 277.874 456.358 276.813 456.358C275.751 456.358 274.87 456.821 274.78 457.929H275.841C275.896 457.457 276.177 457.184 276.749 457.184C277.393 457.184 277.611 457.502 277.611 458.137V458.382H277.021C275.66 458.382 274.589 458.782 274.589 459.889C274.589 460.878 275.306 461.296 276.177 461.296ZM276.44 460.506C275.896 460.506 275.678 460.243 275.678 459.843C275.678 459.263 276.214 459.072 277.049 459.072H277.611V459.544C277.611 460.152 277.112 460.506 276.44 460.506ZM279.787 461.205H280.885V458.364C280.885 457.638 281.384 457.275 281.928 457.275C282.464 457.275 282.773 457.575 282.773 458.273V461.205H283.871V458.364C283.871 457.638 284.37 457.275 284.914 457.275C285.459 457.275 285.758 457.575 285.758 458.273V461.205H286.857V458.201C286.857 456.894 286.149 456.358 285.277 456.358C284.688 456.358 284.034 456.622 283.671 457.212C283.435 456.622 282.945 456.358 282.328 456.358C281.629 456.358 281.112 456.74 280.885 457.184V456.458H279.787V461.205ZM287.964 461.205H289.062V456.458H287.964V461.205ZM288.499 455.678C288.862 455.678 289.153 455.405 289.153 455.051C289.153 454.688 288.862 454.416 288.499 454.416C288.136 454.416 287.846 454.688 287.846 455.051C287.846 455.405 288.136 455.678 288.499 455.678ZM292.306 461.296C293.522 461.296 294.33 460.751 294.484 459.753H293.423C293.341 460.216 292.996 460.479 292.333 460.479C291.517 460.479 291.063 459.971 291.027 459.072H294.503V458.754C294.503 457.057 293.441 456.358 292.261 456.358C290.909 456.358 289.901 457.339 289.901 458.809V458.881C289.901 460.379 290.909 461.296 292.306 461.296ZM291.045 458.337C291.154 457.602 291.598 457.157 292.261 457.157C292.942 457.157 293.359 457.52 293.413 458.337H291.045ZM298.581 460.252V455.669H299.28C300.804 455.669 301.44 456.513 301.44 457.91V457.983C301.44 459.417 300.741 460.252 299.289 460.252H298.581ZM297.374 461.205H299.325C301.603 461.205 302.701 459.862 302.701 457.974V457.892C302.701 456.004 301.603 454.716 299.343 454.716H297.374V461.205Z" fill="#1B263A"/>
<path d="M329.551 461.205H330.64V456.304L332.609 461.205H333L334.933 456.304V461.205H336.14V454.716H334.543L332.873 459.145L331.166 454.716H329.551V461.205ZM338.552 461.296C339.278 461.296 339.695 461.032 340.004 460.624V461.205H341.084V458.092C341.084 456.794 340.249 456.358 339.187 456.358C338.125 456.358 337.245 456.821 337.154 457.929H338.216C338.271 457.457 338.552 457.184 339.124 457.184C339.768 457.184 339.986 457.502 339.986 458.137V458.382H339.396C338.035 458.382 336.964 458.782 336.964 459.889C336.964 460.878 337.681 461.296 338.552 461.296ZM338.815 460.506C338.271 460.506 338.053 460.243 338.053 459.843C338.053 459.263 338.588 459.072 339.423 459.072H339.986V459.544C339.986 460.152 339.487 460.506 338.815 460.506ZM342.555 462.829H343.635L346.221 456.458H345.15L343.989 459.517L342.727 456.458H341.538L343.417 460.724L342.555 462.829ZM348.327 461.205H353.019V460.27H350.26L351.703 458.863C352.475 458.119 352.974 457.384 352.974 456.54C352.974 455.396 352.175 454.625 350.832 454.625C349.461 454.625 348.608 455.442 348.527 456.858H349.634C349.743 455.941 350.151 455.569 350.796 455.569C351.422 455.569 351.767 455.95 351.767 456.558C351.767 457.175 351.395 457.747 350.777 458.4L348.327 460.987V461.205ZM356.015 461.296C357.504 461.296 358.448 460.551 358.448 459.353C358.448 458.491 357.948 457.956 357.195 457.783C357.821 457.547 358.248 457.103 358.248 456.367C358.248 455.405 357.458 454.625 356.106 454.625C354.718 454.625 353.873 455.487 353.81 456.613H354.881C354.953 455.959 355.398 455.542 356.088 455.542C356.76 455.542 357.095 455.932 357.095 456.458C357.095 457.066 356.76 457.411 356.015 457.411H355.552V458.273H356.052C356.841 458.273 357.222 458.627 357.222 459.335C357.222 459.98 356.832 460.388 355.988 460.388C355.117 460.388 354.736 459.88 354.672 459.199H353.574C353.628 460.442 354.472 461.296 356.015 461.296Z" fill="#1B263A"/>
<rect x="194.078" y="447.824" width="43.5518" height="20.106" rx="3.51387" fill="#45DB9E" fill-opacity="0.3"/>
<path d="M203.437 459.913C204.411 459.913 205.058 459.315 205.058 458.551C205.058 457.67 204.522 457.374 203.487 457.232C202.722 457.121 202.574 456.942 202.574 456.585C202.574 456.246 202.833 456.005 203.332 456.005C203.838 456.005 204.103 456.203 204.183 456.665H204.935C204.849 455.821 204.282 455.389 203.332 455.389C202.414 455.389 201.798 455.931 201.798 456.653C201.798 457.479 202.297 457.799 203.351 457.941C204.066 458.058 204.269 458.212 204.269 458.619C204.269 459.026 203.924 459.297 203.437 459.297C202.691 459.297 202.513 458.927 202.457 458.483H201.668C201.73 459.315 202.235 459.913 203.437 459.913ZM207.517 459.913C208.682 459.913 209.305 459.278 209.305 458.126V455.445H208.479V458.058C208.479 458.97 208.158 459.254 207.523 459.254C206.87 459.254 206.611 458.921 206.611 458.114V455.445H205.785V458.175C205.785 459.309 206.414 459.913 207.517 459.913ZM212.206 459.913C213.254 459.913 214.006 459.377 214.135 458.317H213.334C213.247 458.939 212.816 459.248 212.206 459.248C211.392 459.248 210.917 458.662 210.917 457.67V457.62C210.917 456.634 211.423 456.03 212.2 456.03C212.834 456.03 213.161 456.332 213.254 456.918H214.086C213.987 455.882 213.204 455.377 212.193 455.377C210.967 455.377 210.054 456.301 210.054 457.627V457.676C210.054 459.032 210.825 459.913 212.206 459.913ZM216.774 459.913C217.822 459.913 218.574 459.377 218.704 458.317H217.902C217.816 458.939 217.385 459.248 216.774 459.248C215.961 459.248 215.486 458.662 215.486 457.67V457.62C215.486 456.634 215.992 456.03 216.768 456.03C217.403 456.03 217.73 456.332 217.822 456.918H218.654C218.556 455.882 217.773 455.377 216.762 455.377C215.536 455.377 214.623 456.301 214.623 457.627V457.676C214.623 459.032 215.394 459.913 216.774 459.913ZM219.414 459.852H222.274V459.205H220.234V457.916H221.787V457.3H220.234V456.092H222.169V455.445H219.414V459.852ZM224.511 459.913C225.485 459.913 226.133 459.315 226.133 458.551C226.133 457.67 225.596 457.374 224.561 457.232C223.796 457.121 223.649 456.942 223.649 456.585C223.649 456.246 223.907 456.005 224.407 456.005C224.912 456.005 225.177 456.203 225.257 456.665H226.009C225.923 455.821 225.356 455.389 224.407 455.389C223.488 455.389 222.872 455.931 222.872 456.653C222.872 457.479 223.371 457.799 224.425 457.941C225.14 458.058 225.344 458.212 225.344 458.619C225.344 459.026 224.998 459.297 224.511 459.297C223.766 459.297 223.587 458.927 223.531 458.483H222.742C222.804 459.315 223.309 459.913 224.511 459.913ZM228.364 459.913C229.338 459.913 229.985 459.315 229.985 458.551C229.985 457.67 229.449 457.374 228.413 457.232C227.649 457.121 227.501 456.942 227.501 456.585C227.501 456.246 227.76 456.005 228.259 456.005C228.765 456.005 229.03 456.203 229.11 456.665H229.862C229.776 455.821 229.208 455.389 228.259 455.389C227.341 455.389 226.724 455.931 226.724 456.653C226.724 457.479 227.224 457.799 228.278 457.941C228.993 458.058 229.196 458.212 229.196 458.619C229.196 459.026 228.851 459.297 228.364 459.297C227.618 459.297 227.439 458.927 227.384 458.483H226.595C226.657 459.315 227.162 459.913 228.364 459.913Z" fill="#1B263A"/>
<line x1="85.6184" y1="466.308" x2="127.424" y2="466.308" stroke="#D5DDE2" stroke-width="2.8111" stroke-linecap="round" stroke-linejoin="round"/>
<line x1="137.351" y1="466.308" x2="163.679" y2="466.308" stroke="#D5DDE2" stroke-width="2.8111" stroke-linecap="round" stroke-linejoin="round"/>
<path d="M84.9571 457.041H86.1642V454.009L88.66 457.041H90.0849L87.2624 453.646L89.9488 450.542H88.651L86.1642 453.492V450.551H84.9571V457.041ZM90.6503 457.041H91.7485V452.294H90.6503V457.041ZM91.1858 451.514C91.5488 451.514 91.8392 451.241 91.8392 450.887C91.8392 450.524 91.5488 450.252 91.1858 450.252C90.8228 450.252 90.5323 450.524 90.5323 450.887C90.5323 451.241 90.8228 451.514 91.1858 451.514ZM94.9839 457.131C96.2726 457.131 97.0985 456.36 97.1802 455.271H96.1728C96.1093 455.943 95.6101 456.287 95.0292 456.287C94.2215 456.287 93.7133 455.743 93.7133 454.708V454.636C93.7133 453.655 94.2487 453.075 95.002 453.075C95.5829 453.075 96.0004 453.338 96.0911 453.973H97.153C97.0259 452.666 96.0367 452.194 94.9839 452.194C93.6588 452.194 92.5879 453.147 92.5879 454.654V454.726C92.5879 456.242 93.6225 457.131 94.9839 457.131ZM97.9443 457.041H99.0425V454.708L100.821 457.041H102.092L100.095 454.472L101.938 452.294H100.74L99.0425 454.381V450.098H97.9443V457.041ZM106.769 456.278C105.934 456.278 105.453 455.67 105.453 454.699V454.627C105.453 453.646 105.952 453.056 106.769 453.056C107.586 453.056 108.076 453.655 108.076 454.636V454.699C108.076 455.67 107.586 456.278 106.769 456.278ZM106.76 457.131C108.158 457.131 109.201 456.169 109.201 454.69V454.617C109.201 453.165 108.158 452.194 106.769 452.194C105.371 452.194 104.328 453.174 104.328 454.645V454.717C104.328 456.16 105.362 457.131 106.76 457.131ZM110.203 457.041H111.301V453.12H112.971V457.041H114.069V453.12H115.149V452.294H114.069V451.613C114.069 451.205 114.25 450.915 114.695 450.915C114.895 450.915 115.067 450.951 115.194 450.996V450.143C114.995 450.08 114.831 450.052 114.559 450.052C113.552 450.052 112.971 450.615 112.971 451.659V452.294H111.301V451.668C111.301 451.259 111.482 450.969 111.927 450.969C112.127 450.969 112.29 451.014 112.417 451.06V450.207C112.217 450.143 112.054 450.116 111.791 450.116C110.774 450.116 110.203 450.669 110.203 451.722V452.294H109.558V453.12H110.203V457.041ZM119.943 457.131C121.232 457.131 122.058 456.36 122.14 455.271H121.132C121.069 455.943 120.57 456.287 119.989 456.287C119.181 456.287 118.673 455.743 118.673 454.708V454.636C118.673 453.655 119.208 453.075 119.961 453.075C120.542 453.075 120.96 453.338 121.051 453.973H122.112C121.985 452.666 120.996 452.194 119.943 452.194C118.618 452.194 117.547 453.147 117.547 454.654V454.726C117.547 456.242 118.582 457.131 119.943 457.131ZM124.147 457.131C124.873 457.131 125.291 456.868 125.599 456.46V457.041H126.679V453.928C126.679 452.63 125.844 452.194 124.783 452.194C123.721 452.194 122.84 452.657 122.75 453.764H123.811C123.866 453.292 124.147 453.02 124.719 453.02C125.363 453.02 125.581 453.338 125.581 453.973V454.218H124.991C123.63 454.218 122.559 454.617 122.559 455.725C122.559 456.714 123.276 457.131 124.147 457.131ZM124.41 456.342C123.866 456.342 123.648 456.079 123.648 455.679C123.648 455.098 124.184 454.908 125.018 454.908H125.581V455.38C125.581 455.988 125.082 456.342 124.41 456.342ZM127.784 457.041H128.882V450.098H127.784V457.041ZM130.066 457.041H131.164V450.098H130.066V457.041Z" fill="#1B263A"/>
<rect x="51.7539" y="446.97" width="22.183" height="21.8154" rx="3.78158" fill="#C4DDF5"/>
<g filter="url(#filter1_d_551_4663)">
<path d="M25.9375 510.909H459.809V572.428H25.9375V510.909Z" fill="white"/>
</g>
<path d="M271.227 545.432H272.434V542.401L274.93 545.432H276.354L273.532 542.038L276.218 538.934H274.92L272.434 541.883V538.943H271.227V545.432ZM278.705 545.523C279.921 545.523 280.729 544.978 280.883 543.98H279.822C279.74 544.443 279.395 544.706 278.733 544.706C277.916 544.706 277.462 544.198 277.426 543.299H280.902V542.982C280.902 541.284 279.84 540.586 278.66 540.586C277.308 540.586 276.3 541.566 276.3 543.036V543.109C276.3 544.606 277.308 545.523 278.705 545.523ZM277.444 542.564C277.553 541.829 277.997 541.384 278.66 541.384C279.341 541.384 279.758 541.747 279.813 542.564H277.444ZM282.856 545.432H284.135L285.851 540.685H284.771L283.546 544.307L282.302 540.685H281.122L282.856 545.432ZM286.51 545.432H287.608V540.685H286.51V545.432ZM287.046 539.905C287.409 539.905 287.699 539.633 287.699 539.279C287.699 538.916 287.409 538.643 287.046 538.643C286.682 538.643 286.392 538.916 286.392 539.279C286.392 539.633 286.682 539.905 287.046 539.905ZM288.765 545.432H289.863V542.637C289.863 541.883 290.363 541.502 290.98 541.502C291.633 541.502 291.924 541.829 291.924 542.546V545.432H293.022V542.446C293.022 541.139 292.35 540.586 291.397 540.586C290.617 540.586 290.09 540.976 289.863 541.439V540.685H288.765V545.432ZM296.177 545.432H297.384V542.773H299.599V541.838H297.384V539.905H300.198V538.943H296.177V545.432Z" fill="#1B263A"/>
<path d="M329.551 545.432H330.64V540.531L332.609 545.432H333L334.933 540.531V545.432H336.14V538.943H334.543L332.873 543.372L331.166 538.943H329.551V545.432ZM338.552 545.523C339.278 545.523 339.695 545.26 340.004 544.851V545.432H341.084V542.319C341.084 541.021 340.249 540.586 339.187 540.586C338.125 540.586 337.245 541.048 337.154 542.156H338.216C338.271 541.684 338.552 541.411 339.124 541.411C339.768 541.411 339.986 541.729 339.986 542.364V542.609H339.396C338.035 542.609 336.964 543.009 336.964 544.116C336.964 545.105 337.681 545.523 338.552 545.523ZM338.815 544.733C338.271 544.733 338.053 544.47 338.053 544.071C338.053 543.49 338.588 543.299 339.423 543.299H339.986V543.771C339.986 544.379 339.487 544.733 338.815 544.733ZM342.555 547.057H343.635L346.221 540.685H345.15L343.989 543.744L342.727 540.685H341.538L343.417 544.951L342.555 547.057ZM350.95 545.523C352.438 545.523 353.382 544.779 353.382 543.581C353.382 542.718 352.883 542.183 352.13 542.01C352.756 541.774 353.183 541.33 353.183 540.595C353.183 539.633 352.393 538.852 351.041 538.852C349.652 538.852 348.808 539.714 348.745 540.84H349.815C349.888 540.186 350.333 539.769 351.023 539.769C351.694 539.769 352.03 540.159 352.03 540.685C352.03 541.293 351.694 541.638 350.95 541.638H350.487V542.501H350.986C351.776 542.501 352.157 542.855 352.157 543.562C352.157 544.207 351.767 544.615 350.923 544.615C350.051 544.615 349.67 544.107 349.607 543.426H348.509C348.563 544.67 349.407 545.523 350.95 545.523ZM356.877 544.561C355.906 544.561 355.343 543.817 355.343 542.346V542.02C355.343 540.576 355.879 539.796 356.859 539.796C357.83 539.796 358.356 540.631 358.356 542.01V542.328C358.356 543.798 357.875 544.561 356.877 544.561ZM356.85 545.523C358.547 545.523 359.563 544.279 359.563 542.328V542.001C359.563 540.05 358.492 538.852 356.85 538.852C355.216 538.852 354.127 540.059 354.127 542.029V542.355C354.127 544.307 355.198 545.523 356.85 545.523Z" fill="#1B263A"/>
<rect x="194.078" y="532.051" width="57.1655" height="20.106" rx="3.51387" fill="#6E28ED" fill-opacity="0.2"/>
<path d="M203.99 543.481C203.189 543.481 202.603 542.859 202.603 541.897V541.848C202.603 540.898 203.115 540.264 203.978 540.264C204.841 540.264 205.346 540.935 205.346 541.842V541.891C205.346 542.846 204.822 543.481 203.99 543.481ZM203.978 544.141C205.315 544.141 206.197 543.173 206.197 541.885V541.835C206.197 540.541 205.291 539.61 203.978 539.61C202.671 539.61 201.746 540.566 201.746 541.854V541.903C201.746 543.173 202.628 544.141 203.978 544.141ZM206.988 544.079H207.734V540.701L209.719 544.079H210.57V539.672H209.824V542.859L207.969 539.672H206.988V544.079ZM211.581 544.079H213.276C214.244 544.079 214.787 543.666 214.787 542.846V542.822C214.787 542.236 214.503 541.909 213.905 541.78C214.404 541.626 214.602 541.281 214.602 540.843V540.818C214.602 540.017 214.065 539.672 213.159 539.672H211.581V544.079ZM212.383 543.493V542.082H213.122C213.726 542.082 213.979 542.31 213.979 542.766V542.791C213.979 543.247 213.726 543.493 213.178 543.493H212.383ZM212.383 541.527V540.257H213.048C213.572 540.257 213.813 540.436 213.813 540.855V540.88C213.813 541.33 213.603 541.527 213.061 541.527H212.383ZM217.576 543.481C216.775 543.481 216.189 542.859 216.189 541.897V541.848C216.189 540.898 216.701 540.264 217.564 540.264C218.427 540.264 218.932 540.935 218.932 541.842V541.891C218.932 542.846 218.408 543.481 217.576 543.481ZM217.564 544.141C218.901 544.141 219.783 543.173 219.783 541.885V541.835C219.783 540.541 218.877 539.61 217.564 539.61C216.257 539.61 215.332 540.566 215.332 541.854V541.903C215.332 543.173 216.214 544.141 217.564 544.141ZM219.989 544.079H220.759L221.104 542.988H222.787L223.138 544.079H223.989L222.534 539.672H221.462L219.989 544.079ZM221.949 540.344L222.596 542.39H221.295L221.949 540.344ZM224.662 544.079H225.482V542.298H226.005L227.158 544.079H228.046L226.807 542.174C227.355 542.033 227.787 541.681 227.787 540.991V540.966C227.787 540.066 227.109 539.672 226.141 539.672H224.662V544.079ZM225.482 541.712V540.307H226.141C226.665 540.307 226.979 540.479 226.979 540.985V541.009C226.979 541.478 226.69 541.712 226.141 541.712H225.482ZM229.521 543.432V540.319H229.995C231.031 540.319 231.462 540.892 231.462 541.842V541.891C231.462 542.865 230.988 543.432 230.001 543.432H229.521ZM228.701 544.079H230.026C231.573 544.079 232.319 543.167 232.319 541.885V541.829C232.319 540.547 231.573 539.672 230.038 539.672H228.701V544.079ZM233.126 544.079H233.952V539.672H233.126V544.079ZM234.991 544.079H235.737V540.701L237.722 544.079H238.572V539.672H237.827V542.859L235.971 539.672H234.991V544.079ZM241.563 544.141C242.808 544.141 243.572 543.401 243.572 542.181V541.774H241.655V542.39H242.765C242.74 543 242.401 543.5 241.575 543.5C240.65 543.5 240.213 542.852 240.213 541.909V541.86C240.213 540.892 240.712 540.251 241.575 540.251C242.148 540.251 242.543 540.504 242.641 541.09H243.461C243.344 540.035 242.506 539.604 241.563 539.604C240.274 539.604 239.362 540.541 239.362 541.854V541.903C239.362 543.204 240.151 544.141 241.563 544.141Z" fill="#1B263A"/>
<line x1="85.6184" y1="550.671" x2="127.424" y2="550.671" stroke="#D5DDE2" stroke-width="2.8111" stroke-linecap="round" stroke-linejoin="round"/>
<path d="M84.9571 539.899H89.1683V538.946H86.1642V537.049H88.4513V536.142H86.1642V534.363H89.014V533.41H84.9571V539.899ZM89.9849 539.899H91.0831V537.104C91.0831 536.35 91.5823 535.969 92.1994 535.969C92.8529 535.969 93.1433 536.296 93.1433 537.013V539.899H94.2415V536.913C94.2415 535.606 93.5699 535.053 92.6169 535.053C91.8364 535.053 91.31 535.443 91.0831 535.906V535.152H89.9849V539.899ZM96.5685 539.99C97.2946 539.99 97.7121 539.727 98.0206 539.318V539.899H99.1007V536.786C99.1007 535.488 98.2657 535.053 97.2038 535.053C96.1419 535.053 95.2616 535.515 95.1708 536.623H96.2327C96.2872 536.151 96.5685 535.878 97.1403 535.878C97.7847 535.878 98.0025 536.196 98.0025 536.831V537.076H97.4126C96.0512 537.076 94.9802 537.476 94.9802 538.583C94.9802 539.572 95.6972 539.99 96.5685 539.99ZM96.8317 539.2C96.2872 539.2 96.0693 538.937 96.0693 538.538C96.0693 537.957 96.6048 537.766 97.4398 537.766H98.0025V538.238C98.0025 538.846 97.5033 539.2 96.8317 539.2ZM102.828 539.99C104.053 539.99 104.934 539.064 104.934 537.539V537.467C104.934 535.933 104.017 535.053 102.828 535.053C102.129 535.053 101.539 535.461 101.276 535.915V532.956H100.178V539.899H101.276V539.137C101.53 539.618 102.075 539.99 102.828 539.99ZM102.556 539.118C101.757 539.118 101.24 538.619 101.24 537.557V537.485C101.24 536.432 101.784 535.915 102.547 535.915C103.264 535.915 103.808 536.432 103.808 537.485V537.557C103.808 538.574 103.363 539.118 102.556 539.118ZM105.767 539.899H106.865V532.956H105.767V539.899ZM110.109 539.99C111.326 539.99 112.133 539.445 112.288 538.447H111.226C111.144 538.91 110.799 539.173 110.137 539.173C109.32 539.173 108.866 538.665 108.83 537.766H112.306V537.449C112.306 535.751 111.244 535.053 110.064 535.053C108.712 535.053 107.704 536.033 107.704 537.503V537.576C107.704 539.073 108.712 539.99 110.109 539.99ZM108.848 537.031C108.957 536.296 109.402 535.851 110.064 535.851C110.745 535.851 111.162 536.214 111.217 537.031H108.848ZM117.382 539.99C118.816 539.99 119.769 539.109 119.769 537.984C119.769 536.686 118.98 536.251 117.455 536.042C116.33 535.878 116.112 535.615 116.112 535.089C116.112 534.59 116.493 534.236 117.228 534.236C117.972 534.236 118.363 534.526 118.481 535.207H119.588C119.461 533.963 118.626 533.328 117.228 533.328C115.876 533.328 114.968 534.127 114.968 535.189C114.968 536.405 115.703 536.877 117.255 537.085C118.308 537.258 118.608 537.485 118.608 538.084C118.608 538.683 118.099 539.082 117.382 539.082C116.284 539.082 116.021 538.538 115.939 537.884H114.778C114.868 539.109 115.613 539.99 117.382 539.99ZM121.909 539.99C122.635 539.99 123.053 539.727 123.361 539.318V539.899H124.441V536.786C124.441 535.488 123.606 535.053 122.544 535.053C121.483 535.053 120.602 535.515 120.511 536.623H121.573C121.628 536.151 121.909 535.878 122.481 535.878C123.125 535.878 123.343 536.196 123.343 536.831V537.076H122.753C121.392 537.076 120.321 537.476 120.321 538.583C120.321 539.572 121.038 539.99 121.909 539.99ZM122.172 539.2C121.628 539.2 121.41 538.937 121.41 538.538C121.41 537.957 121.945 537.766 122.78 537.766H123.343V538.238C123.343 538.846 122.844 539.2 122.172 539.2ZM125.546 539.899H126.644V532.956H125.546V539.899ZM129.888 539.99C131.104 539.99 131.912 539.445 132.066 538.447H131.005C130.923 538.91 130.578 539.173 129.915 539.173C129.099 539.173 128.645 538.665 128.609 537.766H132.085V537.449C132.085 535.751 131.023 535.053 129.843 535.053C128.491 535.053 127.483 536.033 127.483 537.503V537.576C127.483 539.073 128.491 539.99 129.888 539.99ZM128.627 537.031C128.736 536.296 129.18 535.851 129.843 535.851C130.524 535.851 130.941 536.214 130.996 537.031H128.627ZM134.553 539.99C135.769 539.99 136.45 539.436 136.45 538.474C136.45 537.467 135.787 537.194 134.671 537.022C133.918 536.895 133.691 536.759 133.691 536.414C133.691 536.078 133.972 535.851 134.444 535.851C134.952 535.851 135.197 536.051 135.288 536.486H136.304C136.187 535.416 135.415 535.053 134.444 535.053C133.555 535.053 132.665 535.524 132.665 536.477C132.665 537.367 133.128 537.721 134.38 537.92C135.079 538.038 135.397 538.184 135.397 538.574C135.397 538.973 135.134 539.182 134.544 539.182C133.899 539.182 133.654 538.901 133.6 538.42H132.565C132.611 539.427 133.328 539.99 134.553 539.99ZM137.422 539.899H138.52V535.978H139.6V535.152H138.52V534.472C138.52 534.063 138.702 533.773 139.146 533.773C139.346 533.773 139.519 533.809 139.646 533.855V533.001C139.446 532.938 139.283 532.911 139.019 532.911C138.003 532.911 137.422 533.473 137.422 534.517V535.152H136.778V535.978H137.422V539.899ZM142.285 539.137C141.45 539.137 140.969 538.529 140.969 537.557V537.485C140.969 536.505 141.468 535.915 142.285 535.915C143.101 535.915 143.592 536.514 143.592 537.494V537.557C143.592 538.529 143.101 539.137 142.285 539.137ZM142.276 539.99C143.673 539.99 144.717 539.028 144.717 537.548V537.476C144.717 536.024 143.673 535.053 142.285 535.053C140.887 535.053 139.843 536.033 139.843 537.503V537.576C139.843 539.019 140.878 539.99 142.276 539.99ZM145.528 539.899H146.626V537.43C146.626 536.423 147.207 536.114 148.169 536.105V535.08C147.37 535.089 146.925 535.443 146.626 536.042V535.152H145.528V539.899ZM150.943 539.99C152.232 539.99 153.058 539.218 153.14 538.129H152.132C152.069 538.801 151.569 539.146 150.989 539.146C150.181 539.146 149.673 538.601 149.673 537.567V537.494C149.673 536.514 150.208 535.933 150.961 535.933C151.542 535.933 151.96 536.196 152.05 536.831H153.112C152.985 535.524 151.996 535.053 150.943 535.053C149.618 535.053 148.547 536.005 148.547 537.512V537.585C148.547 539.1 149.582 539.99 150.943 539.99ZM155.991 539.99C157.207 539.99 158.015 539.445 158.169 538.447H157.107C157.026 538.91 156.681 539.173 156.018 539.173C155.201 539.173 154.748 538.665 154.711 537.766H158.187V537.449C158.187 535.751 157.126 535.053 155.946 535.053C154.593 535.053 153.586 536.033 153.586 537.503V537.576C153.586 539.073 154.593 539.99 155.991 539.99ZM154.73 537.031C154.838 536.296 155.283 535.851 155.946 535.851C156.626 535.851 157.044 536.214 157.098 537.031H154.73Z" fill="#1B263A"/>
<rect x="51.7539" y="531.197" width="22.183" height="21.8154" rx="3.78158" fill="#EBF0F3"/>
<rect width="65.0431" height="31.7652" transform="translate(25.9375 271.3)" fill="#134AE9"/>
<path d="M39.7958 289.645H40.9303L41.4385 288.038H43.9162L44.4336 289.645H45.686L43.5441 283.156H41.9649L39.7958 289.645ZM42.6819 284.145L43.6349 287.158H41.7199L42.6819 284.145ZM48.2759 289.736C48.9747 289.736 49.5828 289.318 49.8369 288.846V289.645H50.9351V282.702H49.8369V285.624C49.5737 285.152 49.0927 284.798 48.3213 284.798C47.0869 284.798 46.1884 285.76 46.1884 287.276V287.349C46.1884 288.891 47.0869 289.736 48.2759 289.736ZM48.5481 288.864C47.8402 288.864 47.3138 288.365 47.3138 287.321V287.249C47.3138 286.223 47.7858 285.661 48.5935 285.661C49.3922 285.661 49.8732 286.178 49.8732 287.222V287.294C49.8732 288.356 49.3105 288.864 48.5481 288.864ZM54.0191 289.736C54.718 289.736 55.3261 289.318 55.5802 288.846V289.645H56.6783V282.702H55.5802V285.624C55.317 285.152 54.836 284.798 54.0645 284.798C52.8302 284.798 51.9317 285.76 51.9317 287.276V287.349C51.9317 288.891 52.8302 289.736 54.0191 289.736ZM54.2914 288.864C53.5835 288.864 53.0571 288.365 53.0571 287.321V287.249C53.0571 286.223 53.5291 285.661 54.3368 285.661C55.1355 285.661 55.6165 286.178 55.6165 287.222V287.294C55.6165 288.356 55.0538 288.864 54.2914 288.864ZM61.7616 289.726C62.0974 289.726 62.3334 289.672 62.5059 289.608V288.737C62.3516 288.801 62.1882 288.828 61.9704 288.828C61.6255 288.828 61.4258 288.637 61.4258 288.22V285.724H62.4696V284.898H61.4258V283.854H60.3277V284.898H59.6924V285.724H60.3277V288.32C60.3277 289.218 60.8178 289.726 61.7616 289.726ZM64.7841 289.736C65.5102 289.736 65.9276 289.472 66.2362 289.064V289.645H67.3162V286.532C67.3162 285.234 66.4813 284.798 65.4194 284.798C64.3575 284.798 63.4772 285.261 63.3864 286.368H64.4483C64.5027 285.896 64.7841 285.624 65.3559 285.624C66.0002 285.624 66.2181 285.942 66.2181 286.577V286.822H65.6281C64.2668 286.822 63.1958 287.222 63.1958 288.329C63.1958 289.318 63.9128 289.736 64.7841 289.736ZM65.0473 288.946C64.5027 288.946 64.2849 288.683 64.2849 288.283C64.2849 287.703 64.8204 287.512 65.6554 287.512H66.2181V287.984C66.2181 288.592 65.7189 288.946 65.0473 288.946ZM70.1995 289.736C71.4157 289.736 72.0963 289.182 72.0963 288.22C72.0963 287.212 71.4338 286.94 70.3175 286.768C69.5642 286.641 69.3373 286.505 69.3373 286.16C69.3373 285.824 69.6186 285.597 70.0906 285.597C70.5988 285.597 70.8439 285.797 70.9346 286.232H71.9511C71.8331 285.161 71.0617 284.798 70.0906 284.798C69.2012 284.798 68.3117 285.27 68.3117 286.223C68.3117 287.113 68.7746 287.467 70.0271 287.666C70.7259 287.784 71.0435 287.929 71.0435 288.32C71.0435 288.719 70.7803 288.928 70.1904 288.928C69.546 288.928 69.301 288.646 69.2465 288.165H68.2119C68.2573 289.173 68.9743 289.736 70.1995 289.736ZM73.0596 289.645H74.1578V287.312L75.9367 289.645H77.2073L75.2106 287.076L77.053 284.898H75.855L74.1578 286.986V282.702H73.0596V289.645Z" fill="white"/>
</g>
<defs>
<filter id="filter0_d_551_4663" x="1.34038" y="303.413" width="504.149" height="239.23" filterUnits="userSpaceOnUse" color-interpolation-filters="sRGB">
<feFlood flood-opacity="0" result="BackgroundImageFix"/>
<feColorMatrix in="SourceAlpha" type="matrix" values="0 0 0 0 0 0 0 0 0 0 0 0 0 0 0 0 0 0 127 0" result="hardAlpha"/>
<feOffset dx="10.5416" dy="15.6633"/>
<feGaussianBlur stdDeviation="17.5694"/>
<feColorMatrix type="matrix" values="0 0 0 0 0.133333 0 0 0 0 0.133333 0 0 0 0 0.27451 0 0 0 0.1 0"/>
<feBlend mode="normal" in2="BackgroundImageFix" result="effect1_dropShadow_551_4663"/>
<feBlend mode="normal" in="SourceGraphic" in2="effect1_dropShadow_551_4663" result="shape"/>
</filter>
<filter id="filter1_d_551_4663" x="1.34038" y="491.434" width="504.149" height="131.796" filterUnits="userSpaceOnUse" color-interpolation-filters="sRGB">
<feFlood flood-opacity="0" result="BackgroundImageFix"/>
<feColorMatrix in="SourceAlpha" type="matrix" values="0 0 0 0 0 0 0 0 0 0 0 0 0 0 0 0 0 0 127 0" result="hardAlpha"/>
<feOffset dx="10.5416" dy="15.6633"/>
<feGaussianBlur stdDeviation="17.5694"/>
<feColorMatrix type="matrix" values="0 0 0 0 0.133333 0 0 0 0 0.133333 0 0 0 0 0.27451 0 0 0 0.1 0"/>
<feBlend mode="normal" in2="BackgroundImageFix" result="effect1_dropShadow_551_4663"/>
<feBlend mode="normal" in="SourceGraphic" in2="effect1_dropShadow_551_4663" result="shape"/>
</filter>
<linearGradient id="paint0_linear_551_4663" x1="56.632" y1="69.9825" x2="365.714" y2="600.973" gradientUnits="userSpaceOnUse">
<stop stop-color="#C2DEF8"/>
<stop offset="0.539459" stop-color="#D6F4F8"/>
<stop offset="1" stop-color="#DCEFF9"/>
</linearGradient>
<linearGradient id="paint1_linear_551_4663" x1="56.632" y1="69.9825" x2="365.714" y2="600.973" gradientUnits="userSpaceOnUse">
<stop stop-color="#C2DEF8"/>
<stop offset="0.539459" stop-color="#D6F4F8"/>
<stop offset="1" stop-color="#DCEFF9"/>
</linearGradient>
</defs>
</svg>
