<svg width="80" height="21" viewBox="0 0 80 21" fill="none" xmlns="http://www.w3.org/2000/svg">
<path d="M78.0205 0C77.6701 0 77.3477 0.0826183 77.0429 0.261172C76.7397 0.441899 76.4997 0.687852 76.3211 0.996855C76.1459 1.31048 76.0416 1.63688 76.0416 1.99317C76.0416 2.35381 76.1459 2.70222 76.3211 3.01367C76.4997 3.32729 76.7397 3.57107 77.0429 3.74935C77.3477 3.92872 77.6701 4.00971 78.0205 4.00971C78.3744 4.00971 78.7155 3.92872 79.0219 3.74935C79.3243 3.57107 79.5656 3.32729 79.7437 3.01367C79.9203 2.70222 80 2.35381 80 1.99317C80 1.63688 79.9203 1.31048 79.7437 0.996855C79.5656 0.687852 79.3243 0.441899 79.0219 0.261172C78.7155 0.0826183 78.3744 0 78.0205 0ZM78.0205 0.379664C78.4584 0.379664 78.8288 0.536747 79.1379 0.854176C79.4501 1.17242 79.6037 1.54746 79.6037 1.99317C79.6037 2.44403 79.4501 2.83674 79.1379 3.15635C78.8288 3.47078 78.4584 3.63031 78.0205 3.63031C77.5779 3.63031 77.2149 3.47078 76.9029 3.15635C76.5907 2.83674 76.4371 2.44403 76.4371 1.99317C76.4371 1.54746 76.5907 1.17242 76.9029 0.854176C77.2149 0.536747 77.5779 0.379664 78.0205 0.379664ZM77.136 0.925651V3.08487H77.648V2.23069C77.6771 2.22689 77.7029 2.23069 77.7179 2.23069C77.7872 2.23069 77.8565 2.27173 77.9272 2.34919C77.9944 2.42909 78.1253 2.67803 78.3237 3.08487H78.9517C78.7245 2.67803 78.6045 2.45246 78.6024 2.44403C78.5448 2.34783 78.4936 2.28097 78.44 2.23069C78.4019 2.19727 78.3379 2.1671 78.2536 2.13585C78.4504 2.08883 78.6045 2.00458 78.6963 1.89832C78.7856 1.7926 78.8355 1.68634 78.8355 1.54203C78.8355 1.36048 78.7677 1.19878 78.6493 1.0917C78.5293 0.979462 78.3349 0.925651 78.0675 0.925651H77.136ZM77.648 1.30532H77.9043C78.0488 1.30532 78.1456 1.32488 78.2067 1.37652C78.2664 1.42598 78.2997 1.48523 78.2997 1.56649C78.2997 1.6415 78.264 1.70455 78.2067 1.75618C78.1411 1.80401 78.0323 1.82766 77.8811 1.82766H77.648V1.30532ZM6.75235 3.6545C5.86424 3.6545 4.89197 3.73576 3.81909 3.91567C2.74251 4.09042 1.82163 4.28936 1.07139 4.50868C0.34272 4.81089 0 5.29844 0 5.9795C0 6.03576 0.0245867 6.18985 0.0938667 6.407C0.158693 6.62795 0.27344 6.84129 0.419467 7.04702C0.567733 7.2522 0.7592 7.40086 1.00133 7.52234C1.23976 7.64763 1.55715 7.65605 1.93264 7.54599C2.81925 7.32803 3.66264 7.16469 4.47027 7.02364C5.27419 6.89129 6.06616 6.81003 6.84547 6.81003C7.19341 6.86547 7.51155 6.94157 7.82299 7.02364C8.13141 7.11007 8.4004 7.20492 8.61496 7.35602C8.82955 7.50712 8.98227 7.73188 9.10371 8.0205C9.22515 8.30586 9.28997 8.69476 9.28997 9.15949V10.0137C7.06304 10.0137 5.42467 10.1436 4.37789 10.417C3.27523 10.6629 2.43035 11.0396 1.83952 11.5323C0.60424 12.4593 0 13.7769 0 15.4708C0 17.1156 0.60424 18.4435 1.83952 19.4572C2.59128 20.0594 3.46819 20.4684 4.44717 20.691C5.42691 20.909 6.57875 21 7.89301 21C8.80421 21 9.84205 20.9331 11.0363 20.7858C12.2314 20.6347 13.3229 20.4412 14.319 20.1928C14.6677 20.0852 14.9687 19.8969 15.181 19.6235C15.3949 19.3471 15.5066 19.0131 15.5066 18.6264V9.15949C15.5066 7.46473 14.8771 6.15044 13.644 5.22017C12.8349 4.58994 11.8678 4.16924 10.757 3.96269C9.64163 3.75859 8.30875 3.6545 6.75235 3.6545ZM26.2397 3.6545C24.7899 3.6545 23.4853 3.76756 22.3051 3.98633C21.1227 4.20429 20.1499 4.61657 19.3712 5.22017C18.1381 6.15044 17.5086 7.46473 17.5086 9.15949V15.4708C17.5086 17.1156 18.1381 18.4435 19.3712 19.4572C20.1773 20.0874 21.1317 20.4989 22.2589 20.691C23.3861 20.881 24.7101 20.9758 26.2397 20.9758C26.6435 20.9758 27.0944 20.9446 27.5904 20.9043C28.0845 20.8649 28.5917 20.7959 29.1037 20.7146C29.6117 20.6347 30.1192 20.5505 30.6168 20.454C31.1139 20.357 31.5632 20.2529 31.9677 20.145C32.6621 19.8452 33.0152 19.3395 33.0152 18.6264C33.0152 18.6038 32.9779 18.4481 32.9221 18.1763C32.8155 17.7662 32.5837 17.4572 32.2232 17.2507C31.8611 17.0441 31.484 16.9993 31.0827 17.108C30.088 17.3547 29.2333 17.5461 28.5219 17.6537C27.8141 17.7632 27.0235 17.82 26.1704 17.82C25.4427 17.82 24.8755 17.6287 24.4472 17.274C24.2579 17.1634 24.0843 16.959 23.9352 16.6576C23.7893 16.3554 23.7021 15.9644 23.7021 15.4708V9.15949C23.7291 8.66976 23.8147 8.26129 23.9352 7.97267C24.0568 7.68785 24.2213 7.48375 24.424 7.33265C24.6275 7.18209 24.8749 7.05544 25.1691 7C25.4643 6.94918 25.7883 6.89374 26.1704 6.81003C26.9475 6.81003 27.7419 6.86873 28.5448 7C29.3517 7.14186 30.1973 7.32721 31.0827 7.54599C31.1347 7.5748 31.2427 7.593 31.432 7.593C32.2373 7.593 32.7349 7.21932 32.9221 6.45401C32.9779 6.17844 33.0152 6.00668 33.0152 5.9795C33.0152 5.29763 32.6621 4.81007 31.9677 4.50868C31.5355 4.39943 31.1488 4.30811 30.8269 4.22386C30.5051 4.14342 30.2331 4.06678 29.9651 4.00971C28.6747 3.76375 27.4205 3.6545 26.2397 3.6545ZM42.6776 3.6545C41.7672 3.6545 40.6936 3.72734 39.4875 3.89149C38.2781 4.05455 37.1979 4.24207 36.2048 4.46085C35.856 4.57091 35.5581 4.78208 35.3435 5.05467C35.1275 5.33106 35.0171 5.64685 35.0171 6.02733V18.6264C35.0171 19.0965 35.1632 19.4876 35.4597 19.7898C35.7517 20.0912 36.1243 20.2407 36.5541 20.2407H39.6507C40.0789 20.2407 40.4597 20.0814 40.7683 19.7653C41.0789 19.4512 41.2339 19.0661 41.2339 18.6264V7.09485C41.7701 6.90053 42.2867 6.81003 42.7709 6.81003C43.2237 6.81003 43.5181 6.86873 43.6552 7C43.9227 7.1685 44.0979 7.4669 44.1909 7.87782C44.2848 8.29091 44.3301 8.72221 44.3301 9.15949V18.6264C44.3301 19.0965 44.4763 19.4876 44.7728 19.7898C45.0707 20.0912 45.4373 20.2407 45.8672 20.2407H48.9637C49.3944 20.2407 49.76 20.0692 50.0581 19.742C50.3525 19.4093 50.4768 19.0403 50.4768 18.6264V7.09485C50.7733 7.00843 51.0691 6.93396 51.3389 6.88151C51.6069 6.82525 51.8448 6.81003 52.0608 6.81003C52.6784 6.81003 53.092 6.99783 53.2947 7.37966C53.4973 7.76313 53.5971 8.36837 53.5971 9.15949V18.6264C53.5971 19.0669 53.7544 19.4512 54.0627 19.7653C54.3741 20.0806 54.7304 20.2407 55.1573 20.2407H58.2536C58.6835 20.2407 59.0477 20.0692 59.348 19.742C59.6408 19.4093 59.7907 19.0403 59.7899 18.6264V9.15949C59.7899 7.51772 59.1848 6.20507 57.9741 5.22017C57.2501 4.64538 56.3656 4.22169 55.3197 3.98633C54.2707 3.75777 53.1531 3.6545 51.9437 3.6545C50.9789 3.6545 50.0827 3.69771 49.2669 3.79637C48.4472 3.89067 47.6128 4.01351 46.7517 4.17603C46.0541 3.95888 45.424 3.81702 44.8891 3.74935C44.3509 3.68412 43.6208 3.6545 42.6776 3.6545ZM69.4293 3.6545C68.516 3.6545 67.4557 3.71674 66.2629 3.86784C65.0656 4.01976 63.9749 4.21489 62.9803 4.46085C62.6307 4.57091 62.3336 4.78126 62.1189 5.05467C61.9029 5.33024 61.8157 5.64685 61.8157 6.02733V15.4708C61.8157 17.1156 62.4213 18.4426 63.6552 19.4572C64.4592 20.0866 65.4365 20.4975 66.5653 20.691C67.6917 20.881 69.0181 20.9758 70.5469 20.9758C70.9491 20.9758 71.4008 20.9454 71.8968 20.9043C72.396 20.8628 72.8997 20.7959 73.4109 20.7146C73.9211 20.6347 74.4248 20.5505 74.924 20.454C75.4216 20.357 75.868 20.2545 76.2747 20.145C76.9728 19.8452 77.3224 19.3411 77.3224 18.6264C77.3461 18.5755 77.3192 18.4519 77.2523 18.2467C77.1853 18.0388 77.0645 17.836 76.9029 17.6303C76.7427 17.4289 76.5333 17.2566 76.2747 17.1322C76.0208 17.0107 75.7384 17.0001 75.3896 17.108C74.3936 17.3539 73.5381 17.5452 72.8283 17.6537C72.1136 17.764 71.3344 17.82 70.4768 17.82C69.7475 17.82 69.1603 17.6303 68.7304 17.274C68.5443 17.1634 68.3885 16.959 68.2416 16.6576C68.092 16.3563 68.0093 15.9644 68.0093 15.4708V14.64C70.1832 14.64 71.8208 14.53 72.9221 14.2848C74.0211 13.9834 74.8688 13.5907 75.4597 13.1216C76.6912 12.193 77.3224 10.8847 77.3224 9.15949C77.3224 7.46391 76.6912 6.14881 75.4597 5.22017C74.7088 4.61494 73.8304 4.20348 72.852 3.98633C71.8723 3.76674 70.7435 3.6545 69.4293 3.6545ZM69.5456 6.81003C70.0008 6.81003 70.2987 6.86928 70.4307 7C70.7301 7.19676 70.9075 7.47533 70.9893 7.83053C71.0691 8.18519 71.1056 8.64231 71.1056 9.15949C71.1056 9.59595 71.0624 10.0175 70.9656 10.4403C70.8709 10.8678 70.7003 11.1556 70.4307 11.319C70.2429 11.4557 69.9613 11.5323 69.6155 11.5323C69.1037 11.5323 68.5747 11.4396 68.0093 11.2475V7.09485C68.5472 6.90053 69.0613 6.81003 69.5456 6.81003ZM7.63672 13.1216C8.20147 13.1216 8.75429 13.2203 9.28997 13.3828V17.5588C8.75429 17.7502 8.23723 17.8437 7.75368 17.8437C7.1368 17.8437 6.73373 17.6569 6.51915 17.274C6.30384 16.893 6.19357 16.2946 6.19357 15.4708C6.166 14.7615 6.28072 14.1655 6.51915 13.7152C6.76501 13.2651 7.12635 13.0705 7.63672 13.1216Z" fill="white"/>
</svg>
