<svg width="414" height="38" viewBox="0 0 414 38" fill="none" xmlns="http://www.w3.org/2000/svg">
<g clip-path="url(#clip0_551_4055)">
<path fill-rule="evenodd" clip-rule="evenodd" d="M47.8759 32.449H49.4682C49.8372 32.449 50.1479 32.1383 50.1673 31.7693V14.428C50.1673 12.7191 48.7885 11.3403 47.0797 11.3403H45.0407C44.6717 11.3403 44.361 11.0296 44.361 10.6606V9.08766C44.361 7.37876 42.9822 6 41.2733 6H28.0877C26.3788 6 25 7.37876 25 9.08766V26.5067C25 28.1962 26.3788 29.575 28.0877 29.5944H43.3706C43.5065 29.5944 43.6425 29.6332 43.759 29.7109L47.4875 32.3325C47.604 32.4102 47.7399 32.449 47.8759 32.449ZM44.1668 27.1281H28.1265C27.7381 27.1281 27.4468 26.8368 27.4468 26.4485V9.1265C27.4468 8.75753 27.7575 8.44682 28.1265 8.44682H41.2345C41.6035 8.44682 41.9142 8.75753 41.9142 9.1265V10.6606C41.9142 11.0296 41.6035 11.3403 41.2345 11.3403H31.4666C31.0976 11.3403 30.7869 11.651 30.7869 12.0199V23.5744C30.7869 23.9434 31.0976 24.2541 31.4666 24.2541H43.6619C44.0309 24.2541 44.3416 23.9434 44.3416 23.5744V14.4668C44.3416 14.0978 44.6523 13.7871 45.0212 13.7871H47.0214C47.3904 13.7871 47.7011 14.0978 47.7011 14.4668V28.6428C47.7011 28.9924 47.3127 29.1866 47.0408 28.9924L44.5552 27.2446C44.4387 27.167 44.3027 27.1281 44.1668 27.1281ZM41.5646 21.7878H33.5639C33.3891 21.7878 33.2337 21.6519 33.2337 21.4577V14.1172C33.2337 13.9425 33.3697 13.7871 33.5639 13.7871H41.5646C41.7394 13.7871 41.8947 13.9231 41.8947 14.1172V21.4577C41.8947 21.6325 41.7588 21.7878 41.5646 21.7878ZM112.022 9.69247C113.042 9.69247 113.869 8.86588 113.869 7.84624C113.869 6.82659 113.042 6 112.022 6C111.003 6 110.176 6.82659 110.176 7.84624C110.176 8.86588 111.003 9.69247 112.022 9.69247ZM90.9606 12.3916V11.3659H87.9863V24.1528H90.9606V15.4174L94.431 13.9814V10.9898H94.3968L90.9606 12.3916ZM79.4363 11.3544C77.5046 11.3544 75.9317 11.9869 74.7351 13.269C74.1882 13.8673 73.7609 14.5511 73.4531 15.3546C73.1626 16.1409 73.0085 16.9786 73.0085 17.8504C73.0085 19.6454 73.5215 21.1326 74.5644 22.278C75.7096 23.543 77.2824 24.1584 79.2826 24.1584C81.2313 24.1584 82.7868 23.5259 83.9666 22.2438C85.0775 21.03 85.6416 19.5086 85.6416 17.6624C85.6416 15.8161 85.0948 14.3289 84.0177 13.1664C82.8722 11.9527 81.3508 11.3544 79.4363 11.3544ZM81.7612 20.4488C81.1971 21.1497 80.4108 21.5087 79.419 21.5087C78.3592 21.5087 77.4876 21.1497 76.8378 20.4317C76.53 20.1069 76.291 19.6967 76.12 19.2351C75.949 18.7735 75.8633 18.2949 75.8633 17.782C75.8633 16.7564 76.1369 15.9016 76.701 15.1836C77.3166 14.4143 78.154 14.0212 79.2311 14.0212C80.291 14.0212 81.1287 14.3802 81.727 15.1152C82.2911 15.799 82.5816 16.688 82.5816 17.7991C82.5989 18.8761 82.3253 19.765 81.7612 20.4488ZM110.515 11.368H113.473V24.172H110.515V11.368ZM65.3866 11.3544C63.6942 11.3544 62.3097 11.8501 61.2326 12.8416C60.224 13.7819 59.7111 14.9614 59.7111 16.3803C59.7111 17.6453 60.1556 18.688 61.0446 19.5257C60.2752 20.1411 59.8992 20.8762 59.8992 21.748C59.8992 22.278 59.9676 22.7395 60.0872 23.1327C60.2069 23.543 60.4462 23.8849 60.8223 24.1926C59.4889 24.9276 58.8393 26.1243 58.8906 27.7654C58.9248 29.1842 59.5402 30.3125 60.7368 31.1672C61.9335 32.022 63.5232 32.4493 65.4719 32.4493C67.421 32.4493 68.8739 32.0732 69.8654 31.3211C70.8568 30.5689 71.3525 29.4919 71.3525 28.0731C71.3525 26.6713 70.9594 25.5772 70.1732 24.808C69.7458 24.3977 69.1986 24.0729 68.5319 23.7823C67.8483 23.5088 66.9252 23.2694 65.7286 23.0814C64.532 22.8934 63.677 22.6882 63.1643 22.4318C62.9249 22.3292 62.7712 22.2096 62.7028 22.0899C62.6344 21.9702 62.6002 21.7993 62.6002 21.577C62.6002 21.3548 62.7539 21.0471 63.0444 20.6539C63.7112 20.8762 64.4463 20.9958 65.2329 20.9958C66.8396 20.9958 68.1561 20.5172 69.1986 19.5428C69.6602 19.0983 70.0194 18.5684 70.2758 17.9701C70.5321 17.3717 70.652 16.7051 70.652 15.97C70.652 15.2349 70.481 14.534 70.139 13.8844C70.139 13.8844 70.139 13.8673 70.1217 13.8673H71.3698V11.3544H65.3866ZM63.318 25.1841L63.9336 25.2866C65.6602 25.5431 66.891 25.885 67.592 26.3465C68.2245 26.7397 68.5319 27.2696 68.5319 27.9192C68.5319 29.2868 67.5578 29.9535 65.6087 29.9535C64.4636 29.9535 63.5405 29.7142 62.8223 29.2526C62.4976 29.0475 62.2413 28.7911 62.0703 28.5005C61.882 28.2098 61.7967 27.885 61.7967 27.4918C61.7967 27.0987 61.9162 26.6884 62.1556 26.261C62.4123 25.8166 62.8054 25.4747 63.318 25.1841ZM67.0448 17.8504C66.566 18.2778 66.0018 18.5 65.3697 18.5C64.5147 18.5 63.831 18.2607 63.3011 17.782C63.0617 17.5769 62.8907 17.3205 62.7539 17.0641C62.6344 16.7905 62.566 16.517 62.566 16.2264C62.566 15.9358 62.6171 15.6452 62.737 15.3546C63.1128 14.3802 63.9506 13.9015 65.2671 13.9015C66.0533 13.9015 66.6858 14.1067 67.1304 14.5169C67.5747 14.9272 67.8141 15.4742 67.8141 16.1409C67.7968 16.7905 67.5405 17.3717 67.0448 17.8504ZM126.533 14.1409C126.755 14.7221 126.875 15.4059 126.875 16.1409V24.1242H123.969V23.5259C123.097 23.9191 122.293 24.1242 121.558 24.1242C120.635 24.1242 119.866 24.0387 119.216 23.8678C118.567 23.6968 118.02 23.4404 117.575 23.1156C116.669 22.4318 116.207 21.4574 116.207 20.1924C116.207 19.0641 116.755 18.1068 117.883 17.3546C119.096 16.5341 120.755 16.1238 122.84 16.1238L123.319 16.1409C123.368 16.1409 123.418 16.1449 123.469 16.149C123.524 16.1534 123.582 16.158 123.644 16.158C123.701 16.1662 123.754 16.1705 123.806 16.1746C123.862 16.179 123.915 16.1833 123.969 16.1922C123.9 14.9272 123.353 14.175 122.327 13.9699C122.003 13.9015 121.627 13.8673 121.25 13.8673C120.857 13.8673 120.481 13.9015 120.122 13.9699C119.746 14.0383 119.387 14.1409 119.045 14.2434C118.293 14.4827 117.729 14.7733 117.404 15.0811L117.37 15.064L117.011 12.4485C118.396 11.7134 119.934 11.3544 121.592 11.3544C124.174 11.3544 125.815 12.2775 126.533 14.1409ZM123.969 21.0984V19.4573V18.3462C123.746 18.312 123.524 18.2949 123.302 18.2949H122.823C121.08 18.2949 119.968 18.688 119.49 19.4573C119.353 19.6796 119.285 19.9189 119.285 20.1753C119.285 20.4317 119.336 20.6539 119.421 20.842C119.524 21.03 119.678 21.201 119.883 21.3207C120.293 21.56 120.909 21.6796 121.712 21.6796C122.515 21.6796 123.268 21.4745 123.969 21.0984ZM137.8 17.0128C138.296 17.2521 138.706 17.5427 139.014 17.8846C139.578 18.5 139.869 19.3206 139.869 20.3804C139.869 21.4916 139.424 22.3976 138.535 23.0985C137.612 23.8336 136.313 24.1926 134.638 24.1926C132.621 24.1926 131.048 23.8507 129.937 23.184V20.0386C129.937 20.0215 130.005 20.0898 130.125 20.2266C130.245 20.3633 130.484 20.5172 130.809 20.7223C131.133 20.9275 131.527 21.0984 131.954 21.2523C132.894 21.577 133.869 21.7309 134.894 21.7309C136.262 21.7309 136.946 21.2694 136.946 20.3633C136.946 20.0727 136.809 19.8505 136.552 19.7137C136.091 19.4744 135.407 19.2864 134.501 19.1667C133.595 19.0299 132.86 18.859 132.279 18.6197C131.698 18.3804 131.219 18.0897 130.86 17.7649C130.193 17.1324 129.851 16.3119 129.851 15.3033C129.851 14.0725 130.33 13.0981 131.27 12.3972C132.211 11.6963 133.509 11.3544 135.168 11.3544C136.809 11.3544 138.211 11.8159 139.373 12.7561C139.322 12.9613 139.27 13.1664 139.202 13.3545C139.014 13.8844 138.877 14.2605 138.792 14.4827L138.518 15.1836C138.501 15.252 138.484 15.2862 138.484 15.2862C138.467 15.2862 138.399 15.2007 138.296 15.0298C137.8 14.4485 137.014 14.0725 135.971 13.8844C135.646 13.816 135.322 13.7819 134.98 13.7819C133.544 13.7819 132.826 14.2092 132.826 15.0811C132.826 15.3717 132.963 15.611 133.27 15.7648C133.834 16.0725 134.604 16.2948 135.578 16.4315C136.552 16.5854 137.288 16.7734 137.8 17.0128ZM101.814 11.3544C100.122 11.3544 98.7366 11.8501 97.6599 12.8416C96.6512 13.7819 96.1385 14.9614 96.1385 16.3803C96.1385 17.6453 96.5828 18.688 97.472 19.5257C96.7026 20.1411 96.3264 20.8762 96.3264 21.748C96.3264 22.278 96.3948 22.7395 96.5144 23.1327C96.6342 23.543 96.8736 23.8849 97.2495 24.1926C95.916 24.9276 95.2666 26.1243 95.3177 27.7654C95.3519 29.1842 95.9675 30.3125 97.1642 31.1672C98.3608 32.022 99.9506 32.4493 101.899 32.4493C103.848 32.4493 105.301 32.0732 106.293 31.3211C107.284 30.5689 107.78 29.4919 107.78 28.0731C107.78 26.6713 107.387 25.5772 106.6 24.808C106.173 24.3977 105.626 24.0729 104.959 23.7823C104.276 23.5088 103.353 23.2694 102.156 23.0814C100.959 22.8934 100.104 22.6882 99.5916 22.4318C99.3522 22.3292 99.1985 22.2096 99.1301 22.0899C99.0617 21.9702 99.0275 21.7993 99.0275 21.577C99.0275 21.3548 99.1812 21.0471 99.4718 20.6539C100.138 20.8762 100.874 20.9958 101.66 20.9958C103.267 20.9958 104.583 20.5172 105.626 19.5428C106.087 19.0983 106.446 18.5684 106.703 17.9701C106.959 17.3717 107.079 16.7051 107.079 15.97C107.079 15.2349 106.908 14.534 106.566 13.8844C106.566 13.8844 106.566 13.8673 106.549 13.8673H107.797V11.3544H101.814ZM99.7454 25.1841L100.361 25.2866C102.088 25.5431 103.318 25.885 104.019 26.3465C104.651 26.7397 104.959 27.2696 104.959 27.9192C104.959 29.2868 103.985 29.9535 102.036 29.9535C100.891 29.9535 99.9675 29.7142 99.2496 29.2526C98.9249 29.0475 98.6686 28.7911 98.4976 28.5005C98.3093 28.2098 98.224 27.885 98.224 27.4918C98.224 27.0987 98.3435 26.6884 98.5829 26.261C98.8392 25.8166 99.2327 25.4747 99.7454 25.1841ZM103.472 17.8504C102.993 18.2778 102.429 18.5 101.797 18.5C100.942 18.5 100.258 18.2607 99.7284 17.782C99.489 17.5769 99.318 17.3205 99.1812 17.0641C99.0617 16.7905 98.9933 16.517 98.9933 16.2264C98.9933 15.9358 99.0444 15.6452 99.1643 15.3546C99.5402 14.3802 100.378 13.9015 101.694 13.9015C102.481 13.9015 103.113 14.1067 103.557 14.5169C104.002 14.9272 104.241 15.4742 104.241 16.1409C104.224 16.7905 103.968 17.3717 103.472 17.8504Z" fill="#1B263A"/>
</g>
<path d="M205.971 19.5608L216.204 29.637H195.77L205.971 19.5608Z" fill="#1B263A"/>
<path d="M195.77 9.51611L205.971 19.561L216.204 9.51611H195.77Z" fill="#1B263A"/>
<path d="M205.973 19.561L216.205 29.6372L226.407 19.561L216.205 9.51611L205.973 19.561Z" fill="#1B263A"/>
<path d="M380.68 14.2723C380.68 14.4287 380.492 14.4913 380.398 14.3662C379.647 13.49 378.427 12.8328 376.737 12.8328C373.076 12.8328 371.01 15.7743 371.01 19.373C371.01 22.9403 373.076 25.8818 376.737 25.8818C378.458 25.8818 379.803 25.2872 380.617 24.2546C380.711 24.1294 380.93 24.192 380.93 24.3485V25.4437C380.93 25.5376 380.993 25.6002 381.086 25.6002H383.433C383.527 25.6002 383.59 25.5376 383.59 25.4437V7.73215C383.59 7.63827 383.527 7.57568 383.433 7.57568H380.899C380.805 7.57568 380.742 7.63827 380.742 7.73215C380.68 7.73215 380.68 14.2723 380.68 14.2723ZM380.805 19.373C380.805 21.5947 379.491 23.3471 377.3 23.3471C375.141 23.3471 373.795 21.5947 373.795 19.373C373.795 17.0886 375.141 15.3675 377.3 15.3675C379.491 15.3675 380.805 17.0886 380.805 19.373ZM370.259 13.177C370.259 13.1145 370.197 13.0519 370.134 13.0206C370.04 13.0206 369.946 13.0206 369.852 13.0206C368.1 13.0206 367.067 13.7403 366.504 14.4287C366.41 14.5539 366.191 14.4913 366.191 14.3349V13.3022C366.191 13.2083 366.129 13.1458 366.035 13.1458H363.688C363.594 13.1458 363.531 13.2083 363.531 13.3022V25.475C363.531 25.5689 363.594 25.6315 363.688 25.6315H366.254C366.348 25.6315 366.41 25.5689 366.41 25.475V19.1539C366.41 16.7444 367.599 15.7117 369.602 15.7117C369.759 15.7117 369.946 15.743 370.071 15.743C370.165 15.743 370.228 15.6804 370.228 15.6179C370.259 15.524 370.259 13.177 370.259 13.177ZM358.212 19.7798C358.305 19.7798 358.368 19.8111 358.368 19.9049C358.368 19.9049 358.368 19.9049 358.368 19.9362V20.5621C358.368 22.2519 357.242 23.6913 354.957 23.6913C353.58 23.6913 352.767 23.2219 352.767 22.0641C352.767 21.1879 353.33 20.5621 355.082 20.2804L358.212 19.7798ZM354.394 25.8818C356.178 25.8818 357.492 25.3811 358.368 24.3485C358.462 24.2233 358.681 24.2859 358.681 24.4423C358.712 25.1621 358.806 25.5689 358.837 25.5689H361.31C361.403 25.5689 361.497 25.475 361.466 25.3498C361.278 24.8179 361.184 23.9104 361.184 23.2219V17.4954C361.184 14.6478 359.463 12.8328 355.833 12.8328C352.172 12.8328 350.67 14.7417 350.388 16.8696C350.388 16.9634 350.451 17.026 350.514 17.026C350.514 17.026 350.514 17.026 350.545 17.026H353.017C353.08 17.026 353.142 16.9634 353.174 16.9009C353.393 15.8369 354.269 15.1798 355.771 15.1798C357.461 15.1798 358.431 15.9621 358.431 17.4641V17.5267C358.431 17.5893 358.368 17.6519 358.305 17.6832L354.832 18.1838C351.546 18.6532 350.076 19.9988 350.076 22.1267C350.044 24.2546 351.296 25.8818 354.394 25.8818ZM342.503 25.8818C346.477 25.8818 348.949 22.8777 348.949 19.373C348.949 15.8682 346.477 12.8328 342.503 12.8328C338.56 12.8328 336.088 15.8682 336.088 19.373C336.088 22.8777 338.56 25.8818 342.503 25.8818ZM338.935 19.373C338.935 16.9321 340.469 15.3675 342.534 15.3675C344.599 15.3675 346.133 16.9634 346.133 19.373C346.133 21.7825 344.599 23.3471 342.534 23.3471C340.469 23.3471 338.935 21.7825 338.935 19.373ZM325.605 14.3662C325.511 14.4913 325.323 14.4287 325.323 14.2723V7.73215C325.323 7.63827 325.261 7.57568 325.167 7.57568H322.632C322.538 7.57568 322.476 7.63827 322.476 7.73215V25.4437C322.476 25.5376 322.538 25.6002 322.632 25.6002H324.979C325.073 25.6002 325.135 25.5376 325.135 25.4437V24.3172C325.135 24.1607 325.354 24.0981 325.417 24.2233C326.262 25.256 327.608 25.8818 329.297 25.8818C332.99 25.8818 335.055 22.9403 335.055 19.373C335.055 15.8056 332.99 12.8328 329.297 12.8328C327.608 12.8641 326.356 13.5213 325.605 14.3662ZM325.198 19.373C325.198 17.0886 326.512 15.3675 328.703 15.3675C330.862 15.3675 332.208 17.0886 332.208 19.373C332.208 21.5947 330.862 23.3471 328.703 23.3471C326.544 23.3471 325.198 21.626 325.198 19.373ZM320.035 23.2532C320.035 23.1594 319.972 23.0968 319.878 23.0968H319.847C319.691 23.1281 319.44 23.1594 319.159 23.1594C318.188 23.1594 317.782 22.69 317.782 21.6886V15.5553C317.782 15.4614 317.844 15.3988 317.938 15.3988H319.972C320.066 15.3988 320.129 15.3362 320.129 15.2424V13.2709C320.129 13.177 320.066 13.1145 319.972 13.1145H317.938C317.844 13.1145 317.782 13.0519 317.782 12.958V10.0165C317.782 9.92262 317.719 9.86004 317.625 9.86004H315.091C314.997 9.86004 314.934 9.92262 314.934 10.0165V12.958C314.934 13.0519 314.871 13.1145 314.778 13.1145H313.182C313.088 13.1145 313.025 13.177 313.025 13.2709V15.2424C313.025 15.3362 313.088 15.3988 313.182 15.3988H314.778C314.871 15.3988 314.934 15.4614 314.934 15.5553V21.9702C314.934 24.3172 316.029 25.6315 318.564 25.6315C319.252 25.6315 319.722 25.5376 319.941 25.5063C320.003 25.5063 320.066 25.4437 320.035 25.3811V23.2532ZM299.976 19.373C299.976 22.9716 302.511 25.8818 306.172 25.8818C309.771 25.8818 311.617 23.441 312.024 21.2505C312.024 21.1879 311.993 21.094 311.899 21.094H311.867H309.239C309.176 21.094 309.114 21.1253 309.082 21.2192C308.707 22.5022 307.612 23.3784 306.11 23.3784C304.076 23.3784 302.793 21.7199 302.793 19.4043C302.793 17.0573 304.076 15.3988 306.11 15.3988C307.612 15.3988 308.707 16.275 309.082 17.558C309.114 17.6206 309.145 17.6832 309.239 17.6832H311.867C311.961 17.6832 312.024 17.6206 312.024 17.558V17.5267C311.617 15.3362 309.771 12.8954 306.172 12.8954C302.511 12.8641 299.976 15.743 299.976 19.373ZM295.188 20.3117C295.188 22.3457 294.093 23.441 292.31 23.441C290.588 23.441 289.9 22.3145 289.9 20.6247V13.3022C289.9 13.2083 289.837 13.1458 289.744 13.1458H287.209C287.115 13.1458 287.052 13.2083 287.052 13.3022V21.0002C287.052 23.9104 288.617 25.8818 291.621 25.8818C293.28 25.8818 294.437 25.256 295.063 24.4736C295.157 24.3485 295.376 24.4111 295.376 24.5675V25.4437C295.376 25.5376 295.439 25.6002 295.533 25.6002H297.88C297.974 25.6002 298.036 25.5376 298.036 25.4437V13.2709C298.036 13.177 297.974 13.1145 297.88 13.1145H295.345C295.251 13.1145 295.188 13.177 295.188 13.2709V20.3117ZM282.046 14.2723C282.046 14.4287 281.858 14.4913 281.764 14.3662C281.013 13.49 279.793 12.8328 278.103 12.8328C274.442 12.8328 272.376 15.7743 272.376 19.373C272.376 22.9403 274.442 25.8818 278.103 25.8818C279.824 25.8818 281.138 25.2872 281.983 24.2546C282.077 24.1294 282.296 24.192 282.296 24.3485V25.4437C282.296 25.5376 282.359 25.6002 282.452 25.6002H284.799C284.893 25.6002 284.956 25.5376 284.956 25.4437V7.73215C284.956 7.63827 284.893 7.57568 284.799 7.57568H282.265C282.171 7.57568 282.108 7.63827 282.108 7.73215L282.046 14.2723ZM282.171 19.373C282.171 21.5947 280.857 23.3471 278.666 23.3471C276.507 23.3471 275.161 21.5947 275.161 19.373C275.161 17.0886 276.507 15.3675 278.666 15.3675C280.857 15.3675 282.171 17.0886 282.171 19.373ZM264.741 25.8818C268.715 25.8818 271.187 22.8777 271.187 19.373C271.187 15.8682 268.715 12.8328 264.741 12.8328C260.798 12.8328 258.326 15.8682 258.326 19.373C258.295 22.8777 260.798 25.8818 264.741 25.8818ZM261.142 19.373C261.142 16.9321 262.676 15.3675 264.741 15.3675C266.806 15.3675 268.34 16.9634 268.34 19.373C268.34 21.7825 266.806 23.3471 264.741 23.3471C262.676 23.3471 261.142 21.7825 261.142 19.373ZM257.982 13.177C257.982 13.1145 257.919 13.0519 257.857 13.0206C257.763 13.0206 257.669 13.0206 257.575 13.0206C255.823 13.0206 254.79 13.7403 254.227 14.4287C254.133 14.5539 253.914 14.4913 253.914 14.3349V13.3022C253.914 13.2083 253.851 13.1458 253.757 13.1458H251.41C251.316 13.1458 251.254 13.2083 251.254 13.3022V25.475C251.254 25.5689 251.316 25.6315 251.41 25.6315H253.945C254.039 25.6315 254.101 25.5689 254.101 25.475V19.1539C254.101 16.7444 255.291 15.7117 257.293 15.7117C257.481 15.7117 257.637 15.743 257.763 15.743C257.857 15.743 257.919 15.6804 257.919 15.6179C257.982 15.524 257.982 13.177 257.982 13.177ZM239.801 24.4736C239.801 24.3172 240.02 24.2546 240.114 24.3798C240.865 25.256 242.116 25.8818 243.775 25.8818C247.467 25.8818 249.533 22.9403 249.533 19.373C249.533 15.8056 247.467 12.8328 243.775 12.8328C242.085 12.8328 240.74 13.4587 239.895 14.4913C239.801 14.6165 239.613 14.5539 239.613 14.3975V13.2709C239.613 13.177 239.55 13.1145 239.457 13.1145H237.11C237.016 13.1145 236.953 13.177 236.953 13.2709V30.4192C236.953 30.5131 237.016 30.5757 237.11 30.5757H239.644C239.738 30.5757 239.801 30.5131 239.801 30.4192V24.4736ZM239.707 19.373C239.707 17.0573 241.021 15.3049 243.212 15.3049C245.371 15.3049 246.716 17.0573 246.716 19.373C246.716 21.5947 245.371 23.3471 243.212 23.3471C241.021 23.3471 239.707 21.626 239.707 19.373Z" fill="#1B263A"/>
<defs>
<clipPath id="clip0_551_4055">
<rect width="115.2" height="27" fill="white" transform="translate(13.7695 5.57568)"/>
</clipPath>
</defs>
</svg>
