<svg width="588" height="424" viewBox="0 0 588 424" fill="none" xmlns="http://www.w3.org/2000/svg">
<g filter="url(#filter0_d_554_7047)">
<rect x="33" y="26.2104" width="573.665" height="223.39" fill="white"/>
</g>
<line x1="67.1328" y1="164.583" x2="564.104" y2="164.583" stroke="#EBF0F3" stroke-width="0.831552"/>
<line x1="33" y1="75.034" x2="606.665" y2="75.0339" stroke="#EBF0F3" stroke-width="0.831552"/>
<path d="M407.042 54.9537H413.687V53.6297H409.78L411.824 51.6372C412.916 50.5831 413.623 49.5419 413.623 48.3465C413.623 46.7268 412.492 45.6342 410.59 45.6342C408.649 45.6342 407.44 46.7911 407.325 48.7964H408.893C409.047 47.4981 409.625 46.971 410.538 46.971C411.425 46.971 411.914 47.5109 411.914 48.3722C411.914 49.2463 411.387 50.0561 410.512 50.9816L407.042 54.6452V54.9537ZM417.571 55.0822C419.551 55.0822 420.952 53.861 420.952 51.92C420.952 49.9918 419.782 48.8349 418.124 48.8349C417.147 48.8349 416.504 49.1949 416.144 49.6062L416.157 47.1124H420.425V45.7627H414.846L414.769 50.8788H415.643C416.054 50.4032 416.62 50.0818 417.558 50.0818C418.574 50.0818 419.217 50.7888 419.217 51.8943C419.217 53.0255 418.612 53.7582 417.558 53.7582C416.376 53.7582 416.029 53.1669 415.887 52.3185H414.293C414.396 53.8996 415.412 55.0822 417.571 55.0822ZM423.385 49.092C422.78 49.092 422.395 48.6807 422.395 47.8966C422.395 47.1253 422.78 46.7011 423.385 46.7011C423.989 46.7011 424.361 47.151 424.361 47.8966C424.361 48.655 423.989 49.092 423.385 49.092ZM423.372 50.1332C424.631 50.1332 425.608 49.182 425.608 47.8837C425.608 46.5982 424.619 45.6727 423.385 45.6727C422.15 45.6727 421.135 46.624 421.135 47.9094C421.135 49.182 422.112 50.1332 423.372 50.1332ZM422.395 54.9537H423.487L429.4 45.7627H428.321L422.395 54.9537ZM428.423 54.041C427.819 54.041 427.434 53.6297 427.434 52.8455C427.434 52.0743 427.819 51.6501 428.423 51.6501C429.028 51.6501 429.4 52.1 429.4 52.8455C429.4 53.604 429.028 54.041 428.423 54.041ZM428.411 55.0822C429.67 55.0822 430.66 54.131 430.66 52.8327C430.66 51.5472 429.657 50.6217 428.423 50.6217C427.189 50.6217 426.187 51.5729 426.187 52.8584C426.187 54.131 427.151 55.0822 428.411 55.0822Z" fill="#134AE9"/>
<rect x="446.707" y="45.5719" width="133.424" height="10" rx="5" fill="#F5F7FA"/>
<rect x="446.707" y="45.5719" width="133.424" height="10" rx="5" stroke="#1B263A"/>
<rect x="446.707" y="45.5719" width="33.3561" height="10" rx="5" fill="#134AE9"/>
<path d="M71.7678 55.5701C70.9578 55.5701 70.2428 55.4251 69.6228 55.1351C69.0028 54.8451 68.5178 54.4301 68.1678 53.8901C67.8178 53.3501 67.6428 52.7001 67.6428 51.9401V51.5201H69.5928V51.9401C69.5928 52.5701 69.7878 53.0451 70.1778 53.3651C70.5678 53.6751 71.0978 53.8301 71.7678 53.8301C72.4478 53.8301 72.9528 53.6951 73.2828 53.4251C73.6228 53.1551 73.7928 52.8101 73.7928 52.3901C73.7928 52.1001 73.7078 51.8651 73.5378 51.6851C73.3778 51.5051 73.1378 51.3601 72.8178 51.2501C72.5078 51.1301 72.1278 51.0201 71.6778 50.9201L71.3328 50.8451C70.6128 50.6851 69.9928 50.4851 69.4728 50.2451C68.9628 49.9951 68.5678 49.6701 68.2878 49.2701C68.0178 48.8701 67.8828 48.3501 67.8828 47.7101C67.8828 47.0701 68.0328 46.5251 68.3328 46.0751C68.6428 45.6151 69.0728 45.2651 69.6228 45.0251C70.1828 44.7751 70.8378 44.6501 71.5878 44.6501C72.3378 44.6501 73.0028 44.7801 73.5828 45.0401C74.1728 45.2901 74.6328 45.6701 74.9628 46.1801C75.3028 46.6801 75.4728 47.3101 75.4728 48.0701V48.5201H73.5228V48.0701C73.5228 47.6701 73.4428 47.3501 73.2828 47.1101C73.1328 46.8601 72.9128 46.6801 72.6228 46.5701C72.3328 46.4501 71.9878 46.3901 71.5878 46.3901C70.9878 46.3901 70.5428 46.5051 70.2528 46.7351C69.9728 46.9551 69.8328 47.2601 69.8328 47.6501C69.8328 47.9101 69.8978 48.1301 70.0278 48.3101C70.1678 48.4901 70.3728 48.6401 70.6428 48.7601C70.9128 48.8801 71.2578 48.9851 71.6778 49.0751L72.0228 49.1501C72.7728 49.3101 73.4228 49.5151 73.9728 49.7651C74.5328 50.0151 74.9678 50.3451 75.2778 50.7551C75.5878 51.1651 75.7428 51.6901 75.7428 52.3301C75.7428 52.9701 75.5778 53.5351 75.2478 54.0251C74.9278 54.5051 74.4678 54.8851 73.8678 55.1651C73.2778 55.4351 72.5778 55.5701 71.7678 55.5701ZM78.9895 55.5701C78.4595 55.5701 77.9845 55.4801 77.5645 55.3001C77.1445 55.1101 76.8095 54.8401 76.5595 54.4901C76.3195 54.1301 76.1995 53.6951 76.1995 53.1851C76.1995 52.6751 76.3195 52.2501 76.5595 51.9101C76.8095 51.5601 77.1495 51.3001 77.5795 51.1301C78.0195 50.9501 78.5195 50.8601 79.0795 50.8601H81.1195V50.4401C81.1195 50.0901 81.0095 49.8051 80.7895 49.5851C80.5695 49.3551 80.2195 49.2401 79.7395 49.2401C79.2695 49.2401 78.9195 49.3501 78.6895 49.5701C78.4595 49.7801 78.3095 50.0551 78.2395 50.3951L76.4995 49.8101C76.6195 49.4301 76.8095 49.0851 77.0695 48.7751C77.3395 48.4551 77.6945 48.2001 78.1345 48.0101C78.5845 47.8101 79.1295 47.7101 79.7695 47.7101C80.7495 47.7101 81.5245 47.9551 82.0945 48.4451C82.6645 48.9351 82.9495 49.6451 82.9495 50.5751V53.3501C82.9495 53.6501 83.0895 53.8001 83.3695 53.8001H83.9695V55.3601H82.7095C82.3395 55.3601 82.0345 55.2701 81.7945 55.0901C81.5545 54.9101 81.4345 54.6701 81.4345 54.3701V54.3551H81.1495C81.1095 54.4751 81.0195 54.6351 80.8795 54.8351C80.7395 55.0251 80.5195 55.1951 80.2195 55.3451C79.9195 55.4951 79.5095 55.5701 78.9895 55.5701ZM79.3195 54.0401C79.8495 54.0401 80.2795 53.8951 80.6095 53.6051C80.9495 53.3051 81.1195 52.9101 81.1195 52.4201V52.2701H79.2145C78.8645 52.2701 78.5895 52.3451 78.3895 52.4951C78.1895 52.6451 78.0895 52.8551 78.0895 53.1251C78.0895 53.3951 78.1945 53.6151 78.4045 53.7851C78.6145 53.9551 78.9195 54.0401 79.3195 54.0401ZM84.7514 55.3601V44.8601H86.6414V55.3601H84.7514ZM91.5257 55.5701C90.7857 55.5701 90.1307 55.4151 89.5607 55.1051C89.0007 54.7851 88.5607 54.3401 88.2407 53.7701C87.9307 53.1901 87.7757 52.5101 87.7757 51.7301V51.5501C87.7757 50.7701 87.9307 50.0951 88.2407 49.5251C88.5507 48.9451 88.9857 48.5001 89.5457 48.1901C90.1057 47.8701 90.7557 47.7101 91.4957 47.7101C92.2257 47.7101 92.8607 47.8751 93.4007 48.2051C93.9407 48.5251 94.3607 48.9751 94.6607 49.5551C94.9607 50.1251 95.1107 50.7901 95.1107 51.5501V52.1951H89.6957C89.7157 52.7051 89.9057 53.1201 90.2657 53.4401C90.6257 53.7601 91.0657 53.9201 91.5857 53.9201C92.1157 53.9201 92.5057 53.8051 92.7557 53.5751C93.0057 53.3451 93.1957 53.0901 93.3257 52.8101L94.8707 53.6201C94.7307 53.8801 94.5257 54.1651 94.2557 54.4751C93.9957 54.7751 93.6457 55.0351 93.2057 55.2551C92.7657 55.4651 92.2057 55.5701 91.5257 55.5701ZM89.7107 50.7851H93.1907C93.1507 50.3551 92.9757 50.0101 92.6657 49.7501C92.3657 49.4901 91.9707 49.3601 91.4807 49.3601C90.9707 49.3601 90.5657 49.4901 90.2657 49.7501C89.9657 50.0101 89.7807 50.3551 89.7107 50.7851ZM99.283 55.5701C98.313 55.5701 97.518 55.3601 96.898 54.9401C96.278 54.5201 95.903 53.9201 95.773 53.1401L97.513 52.6901C97.583 53.0401 97.698 53.3151 97.858 53.5151C98.028 53.7151 98.233 53.8601 98.473 53.9501C98.723 54.0301 98.993 54.0701 99.283 54.0701C99.723 54.0701 100.048 53.9951 100.258 53.8451C100.468 53.6851 100.573 53.4901 100.573 53.2601C100.573 53.0301 100.473 52.8551 100.273 52.7351C100.073 52.6051 99.753 52.5001 99.313 52.4201L98.893 52.3451C98.373 52.2451 97.898 52.1101 97.468 51.9401C97.038 51.7601 96.693 51.5151 96.433 51.2051C96.173 50.8951 96.043 50.4951 96.043 50.0051C96.043 49.2651 96.313 48.7001 96.853 48.3101C97.393 47.9101 98.103 47.7101 98.983 47.7101C99.813 47.7101 100.503 47.8951 101.053 48.2651C101.603 48.6351 101.963 49.1201 102.133 49.7201L100.378 50.2601C100.298 49.8801 100.133 49.6101 99.883 49.4501C99.643 49.2901 99.343 49.2101 98.983 49.2101C98.623 49.2101 98.348 49.2751 98.158 49.4051C97.968 49.5251 97.873 49.6951 97.873 49.9151C97.873 50.1551 97.973 50.3351 98.173 50.4551C98.373 50.5651 98.643 50.6501 98.983 50.7101L99.403 50.7851C99.963 50.8851 100.468 51.0201 100.918 51.1901C101.378 51.3501 101.738 51.5851 101.998 51.8951C102.268 52.1951 102.403 52.6051 102.403 53.1251C102.403 53.9051 102.118 54.5101 101.548 54.9401C100.988 55.3601 100.233 55.5701 99.283 55.5701ZM105.378 58.3601L109.788 44.8601H111.678L107.268 58.3601H105.378ZM119.022 55.5701C117.722 55.5701 116.692 55.2101 115.932 54.4901C115.172 53.7601 114.792 52.7201 114.792 51.3701V48.8501C114.792 47.5001 115.172 46.4651 115.932 45.7451C116.692 45.0151 117.722 44.6501 119.022 44.6501C120.312 44.6501 121.307 45.0051 122.007 45.7151C122.717 46.4151 123.072 47.3801 123.072 48.6101V48.7001H121.122V48.5501C121.122 47.9301 120.947 47.4201 120.597 47.0201C120.257 46.6201 119.732 46.4201 119.022 46.4201C118.322 46.4201 117.772 46.6351 117.372 47.0651C116.972 47.4951 116.772 48.0801 116.772 48.8201V51.4001C116.772 52.1301 116.972 52.7151 117.372 53.1551C117.772 53.5851 118.322 53.8001 119.022 53.8001C119.732 53.8001 120.257 53.6001 120.597 53.2001C120.947 52.7901 121.122 52.2801 121.122 51.6701V51.4001H123.072V51.6101C123.072 52.8401 122.717 53.8101 122.007 54.5201C121.307 55.2201 120.312 55.5701 119.022 55.5701ZM127.73 55.5701C126.92 55.5701 126.205 55.4251 125.585 55.1351C124.965 54.8451 124.48 54.4301 124.13 53.8901C123.78 53.3501 123.605 52.7001 123.605 51.9401V51.5201H125.555V51.9401C125.555 52.5701 125.75 53.0451 126.14 53.3651C126.53 53.6751 127.06 53.8301 127.73 53.8301C128.41 53.8301 128.915 53.6951 129.245 53.4251C129.585 53.1551 129.755 52.8101 129.755 52.3901C129.755 52.1001 129.67 51.8651 129.5 51.6851C129.34 51.5051 129.1 51.3601 128.78 51.2501C128.47 51.1301 128.09 51.0201 127.64 50.9201L127.295 50.8451C126.575 50.6851 125.955 50.4851 125.435 50.2451C124.925 49.9951 124.53 49.6701 124.25 49.2701C123.98 48.8701 123.845 48.3501 123.845 47.7101C123.845 47.0701 123.995 46.5251 124.295 46.0751C124.605 45.6151 125.035 45.2651 125.585 45.0251C126.145 44.7751 126.8 44.6501 127.55 44.6501C128.3 44.6501 128.965 44.7801 129.545 45.0401C130.135 45.2901 130.595 45.6701 130.925 46.1801C131.265 46.6801 131.435 47.3101 131.435 48.0701V48.5201H129.485V48.0701C129.485 47.6701 129.405 47.3501 129.245 47.1101C129.095 46.8601 128.875 46.6801 128.585 46.5701C128.295 46.4501 127.95 46.3901 127.55 46.3901C126.95 46.3901 126.505 46.5051 126.215 46.7351C125.935 46.9551 125.795 47.2601 125.795 47.6501C125.795 47.9101 125.86 48.1301 125.99 48.3101C126.13 48.4901 126.335 48.6401 126.605 48.7601C126.875 48.8801 127.22 48.9851 127.64 49.0751L127.985 49.1501C128.735 49.3101 129.385 49.5151 129.935 49.7651C130.495 50.0151 130.93 50.3451 131.24 50.7551C131.55 51.1651 131.705 51.6901 131.705 52.3301C131.705 52.9701 131.54 53.5351 131.21 54.0251C130.89 54.5051 130.43 54.8851 129.83 55.1651C129.24 55.4351 128.54 55.5701 127.73 55.5701ZM135.79 55.3601V44.8601H137.77V49.1951H141.67V44.8601H143.65V55.3601H141.67V50.9951H137.77V55.3601H135.79ZM147.404 55.5701C146.874 55.5701 146.399 55.4801 145.979 55.3001C145.559 55.1101 145.224 54.8401 144.974 54.4901C144.734 54.1301 144.614 53.6951 144.614 53.1851C144.614 52.6751 144.734 52.2501 144.974 51.9101C145.224 51.5601 145.564 51.3001 145.994 51.1301C146.434 50.9501 146.934 50.8601 147.494 50.8601H149.534V50.4401C149.534 50.0901 149.424 49.8051 149.204 49.5851C148.984 49.3551 148.634 49.2401 148.154 49.2401C147.684 49.2401 147.334 49.3501 147.104 49.5701C146.874 49.7801 146.724 50.0551 146.654 50.3951L144.914 49.8101C145.034 49.4301 145.224 49.0851 145.484 48.7751C145.754 48.4551 146.109 48.2001 146.549 48.0101C146.999 47.8101 147.544 47.7101 148.184 47.7101C149.164 47.7101 149.939 47.9551 150.509 48.4451C151.079 48.9351 151.364 49.6451 151.364 50.5751V53.3501C151.364 53.6501 151.504 53.8001 151.784 53.8001H152.384V55.3601H151.124C150.754 55.3601 150.449 55.2701 150.209 55.0901C149.969 54.9101 149.849 54.6701 149.849 54.3701V54.3551H149.564C149.524 54.4751 149.434 54.6351 149.294 54.8351C149.154 55.0251 148.934 55.1951 148.634 55.3451C148.334 55.4951 147.924 55.5701 147.404 55.5701ZM147.734 54.0401C148.264 54.0401 148.694 53.8951 149.024 53.6051C149.364 53.3051 149.534 52.9101 149.534 52.4201V52.2701H147.629C147.279 52.2701 147.004 52.3451 146.804 52.4951C146.604 52.6451 146.504 52.8551 146.504 53.1251C146.504 53.3951 146.609 53.6151 146.819 53.7851C147.029 53.9551 147.334 54.0401 147.734 54.0401ZM153.166 55.3601V47.9201H155.026V48.8951H155.296C155.416 48.6351 155.641 48.3901 155.971 48.1601C156.301 47.9201 156.801 47.8001 157.471 47.8001C158.051 47.8001 158.556 47.9351 158.986 48.2051C159.426 48.4651 159.766 48.8301 160.006 49.3001C160.246 49.7601 160.366 50.3001 160.366 50.9201V55.3601H158.476V51.0701C158.476 50.5101 158.336 50.0901 158.056 49.8101C157.786 49.5301 157.396 49.3901 156.886 49.3901C156.306 49.3901 155.856 49.5851 155.536 49.9751C155.216 50.3551 155.056 50.8901 155.056 51.5801V55.3601H153.166ZM164.809 55.5701C164.219 55.5701 163.664 55.4251 163.144 55.1351C162.634 54.8351 162.224 54.4001 161.914 53.8301C161.604 53.2601 161.449 52.5701 161.449 51.7601V51.5201C161.449 50.7101 161.604 50.0201 161.914 49.4501C162.224 48.8801 162.634 48.4501 163.144 48.1601C163.654 47.8601 164.209 47.7101 164.809 47.7101C165.259 47.7101 165.634 47.7651 165.934 47.8751C166.244 47.9751 166.494 48.1051 166.684 48.2651C166.874 48.4251 167.019 48.5951 167.119 48.7751H167.389V44.8601H169.279V55.3601H167.419V54.4601H167.149C166.979 54.7401 166.714 54.9951 166.354 55.2251C166.004 55.4551 165.489 55.5701 164.809 55.5701ZM165.379 53.9201C165.959 53.9201 166.444 53.7351 166.834 53.3651C167.224 52.9851 167.419 52.4351 167.419 51.7151V51.5651C167.419 50.8451 167.224 50.3001 166.834 49.9301C166.454 49.5501 165.969 49.3601 165.379 49.3601C164.799 49.3601 164.314 49.5501 163.924 49.9301C163.534 50.3001 163.339 50.8451 163.339 51.5651V51.7151C163.339 52.4351 163.534 52.9851 163.924 53.3651C164.314 53.7351 164.799 53.9201 165.379 53.9201ZM174.315 55.5701C173.575 55.5701 172.91 55.4201 172.32 55.1201C171.73 54.8201 171.265 54.3851 170.925 53.8151C170.585 53.2451 170.415 52.5601 170.415 51.7601V51.5201C170.415 50.7201 170.585 50.0351 170.925 49.4651C171.265 48.8951 171.73 48.4601 172.32 48.1601C172.91 47.8601 173.575 47.7101 174.315 47.7101C175.055 47.7101 175.72 47.8601 176.31 48.1601C176.9 48.4601 177.365 48.8951 177.705 49.4651C178.045 50.0351 178.215 50.7201 178.215 51.5201V51.7601C178.215 52.5601 178.045 53.2451 177.705 53.8151C177.365 54.3851 176.9 54.8201 176.31 55.1201C175.72 55.4201 175.055 55.5701 174.315 55.5701ZM174.315 53.8901C174.895 53.8901 175.375 53.7051 175.755 53.3351C176.135 52.9551 176.325 52.4151 176.325 51.7151V51.5651C176.325 50.8651 176.135 50.3301 175.755 49.9601C175.385 49.5801 174.905 49.3901 174.315 49.3901C173.735 49.3901 173.255 49.5801 172.875 49.9601C172.495 50.3301 172.305 50.8651 172.305 51.5651V51.7151C172.305 52.4151 172.495 52.9551 172.875 53.3351C173.255 53.7051 173.735 53.8901 174.315 53.8901ZM180.355 55.3601V49.4801H178.465V47.9201H180.355V46.5401C180.355 46.0301 180.505 45.6251 180.805 45.3251C181.115 45.0151 181.515 44.8601 182.005 44.8601H183.955V46.4201H182.665C182.385 46.4201 182.245 46.5701 182.245 46.8701V47.9201H183.745V49.4801H182.245V55.3601H180.355ZM185.245 55.3601V49.4801H183.745V47.9201H185.245V46.5401C185.245 46.0301 185.395 45.6251 185.695 45.3251C186.005 45.0151 186.405 44.8601 186.895 44.8601H188.845V46.4201H187.555C187.275 46.4201 187.135 46.5701 187.135 46.8701V47.9201H189.085V49.4801H187.135V55.3601H185.245Z" fill="#1B263A"/>
<path d="M357.322 129.815H358.918V126.347H359.938L362.182 129.815H363.91L361.498 126.107C362.566 125.831 363.406 125.147 363.406 123.803V123.755C363.406 122.003 362.086 121.235 360.202 121.235H357.322V129.815ZM358.918 125.207V122.471H360.202C361.222 122.471 361.834 122.807 361.834 123.791V123.839C361.834 124.751 361.27 125.207 360.202 125.207H358.918ZM364.861 129.815H366.313V123.539H364.861V129.815ZM365.569 122.507C366.049 122.507 366.433 122.147 366.433 121.679C366.433 121.199 366.049 120.839 365.569 120.839C365.089 120.839 364.705 121.199 364.705 121.679C364.705 122.147 365.089 122.507 365.569 122.507ZM370.591 129.935C372.295 129.935 373.387 128.915 373.495 127.475H372.163C372.079 128.363 371.419 128.819 370.651 128.819C369.583 128.819 368.911 128.099 368.911 126.731V126.635C368.911 125.339 369.619 124.571 370.615 124.571C371.383 124.571 371.935 124.919 372.055 125.759H373.459C373.291 124.031 371.983 123.407 370.591 123.407C368.839 123.407 367.423 124.667 367.423 126.659V126.755C367.423 128.759 368.791 129.935 370.591 129.935ZM374.505 129.815H375.957V126.119C375.957 125.123 376.617 124.619 377.433 124.619C378.297 124.619 378.681 125.051 378.681 125.999V129.815H380.133V125.867C380.133 124.139 379.245 123.407 377.985 123.407C376.953 123.407 376.257 123.923 375.957 124.535V120.635H374.505V129.815ZM383.21 129.935C384.17 129.935 384.722 129.587 385.13 129.047V129.815H386.558V125.699C386.558 123.983 385.454 123.407 384.05 123.407C382.646 123.407 381.482 124.019 381.362 125.483H382.766C382.838 124.859 383.21 124.499 383.966 124.499C384.818 124.499 385.106 124.919 385.106 125.759V126.083H384.326C382.526 126.083 381.11 126.611 381.11 128.075C381.11 129.383 382.058 129.935 383.21 129.935ZM383.558 128.891C382.838 128.891 382.55 128.543 382.55 128.015C382.55 127.247 383.258 126.995 384.362 126.995H385.106V127.619C385.106 128.423 384.446 128.891 383.558 128.891ZM387.982 129.815H389.434V126.551C389.434 125.219 390.202 124.811 391.474 124.799V123.443C390.418 123.455 389.83 123.923 389.434 124.715V123.539H387.982V129.815ZM394.747 129.935C395.671 129.935 396.475 129.383 396.811 128.759V129.815H398.263V120.635H396.811V124.499C396.463 123.875 395.827 123.407 394.807 123.407C393.175 123.407 391.987 124.679 391.987 126.683V126.779C391.987 128.819 393.175 129.935 394.747 129.935ZM395.107 128.783C394.171 128.783 393.475 128.123 393.475 126.743V126.647C393.475 125.291 394.099 124.547 395.167 124.547C396.223 124.547 396.859 125.231 396.859 126.611V126.707C396.859 128.111 396.115 128.783 395.107 128.783ZM402.488 129.815H404.084V126.167H407.936V129.815H409.544V121.235H407.936V124.883H404.084V121.235H402.488V129.815Z" fill="#1B263A"/>
<path opacity="0.4" d="M434.437 129.815H435.889V123.239L439.753 129.815H441.409V121.235H439.957V127.439L436.345 121.235H434.437V129.815ZM445.768 128.807C444.664 128.807 444.028 128.003 444.028 126.719V126.623C444.028 125.327 444.688 124.547 445.768 124.547C446.848 124.547 447.496 125.339 447.496 126.635V126.719C447.496 128.003 446.848 128.807 445.768 128.807ZM445.756 129.935C447.604 129.935 448.984 128.663 448.984 126.707V126.611C448.984 124.691 447.604 123.407 445.768 123.407C443.92 123.407 442.54 124.703 442.54 126.647V126.743C442.54 128.651 443.908 129.935 445.756 129.935ZM450.056 129.815H451.508V126.119C451.508 125.123 452.168 124.619 452.984 124.619C453.848 124.619 454.232 125.051 454.232 125.999V129.815H455.684V125.867C455.684 124.139 454.796 123.407 453.536 123.407C452.504 123.407 451.808 123.923 451.508 124.535V123.539H450.056V129.815ZM459.877 129.935C461.485 129.935 462.553 129.215 462.757 127.895H461.353C461.245 128.507 460.789 128.855 459.913 128.855C458.833 128.855 458.233 128.183 458.185 126.995H462.781V126.575C462.781 124.331 461.377 123.407 459.817 123.407C458.029 123.407 456.697 124.703 456.697 126.647V126.743C456.697 128.723 458.029 129.935 459.877 129.935ZM458.209 126.023C458.353 125.051 458.941 124.463 459.817 124.463C460.717 124.463 461.269 124.943 461.341 126.023H458.209Z" fill="#1B263A"/>
<rect x="255.314" y="112.023" width="75.5842" height="26.5842" rx="4.64604" fill="#85F1F0" fill-opacity="0.5"/>
<path d="M268.421 127.525C267.362 127.525 266.588 126.701 266.588 125.43V125.365C266.588 124.11 267.264 123.27 268.405 123.27C269.546 123.27 270.214 124.159 270.214 125.357V125.422C270.214 126.685 269.522 127.525 268.421 127.525ZM268.405 128.397C270.174 128.397 271.339 127.117 271.339 125.414V125.348C271.339 123.637 270.141 122.406 268.405 122.406C266.677 122.406 265.455 123.67 265.455 125.373V125.438C265.455 127.117 266.62 128.397 268.405 128.397ZM272.386 128.315H273.372V123.849L275.996 128.315H277.121V122.488H276.135V126.701L273.682 122.488H272.386V128.315ZM278.459 128.315H280.7C281.979 128.315 282.697 127.769 282.697 126.685V126.652C282.697 125.878 282.322 125.446 281.531 125.275C282.191 125.071 282.452 124.615 282.452 124.036V124.004C282.452 122.944 281.743 122.488 280.545 122.488H278.459V128.315ZM279.518 127.541V125.674H280.496C281.295 125.674 281.629 125.976 281.629 126.579V126.612C281.629 127.215 281.295 127.541 280.57 127.541H279.518ZM279.518 124.941V123.262H280.398C281.091 123.262 281.409 123.498 281.409 124.053V124.085C281.409 124.68 281.132 124.941 280.415 124.941H279.518ZM286.385 127.525C285.325 127.525 284.551 126.701 284.551 125.43V125.365C284.551 124.11 285.227 123.27 286.368 123.27C287.509 123.27 288.178 124.159 288.178 125.357V125.422C288.178 126.685 287.485 127.525 286.385 127.525ZM286.368 128.397C288.137 128.397 289.302 127.117 289.302 125.414V125.348C289.302 123.637 288.104 122.406 286.368 122.406C284.641 122.406 283.418 123.67 283.418 125.373V125.438C283.418 127.117 284.584 128.397 286.368 128.397ZM289.575 128.315H290.594L291.05 126.873H293.275L293.739 128.315H294.864L292.941 122.488H291.523L289.575 128.315ZM292.167 123.376L293.022 126.082H291.303L292.167 123.376ZM295.754 128.315H296.837V125.96H297.53L299.054 128.315H300.228L298.59 125.797C299.315 125.609 299.886 125.145 299.886 124.232V124.199C299.886 123.009 298.989 122.488 297.71 122.488H295.754V128.315ZM296.837 125.185V123.327H297.71C298.402 123.327 298.818 123.555 298.818 124.224V124.256C298.818 124.876 298.435 125.185 297.71 125.185H296.837ZM302.178 127.459V123.344H302.806C304.175 123.344 304.745 124.102 304.745 125.357V125.422C304.745 126.71 304.118 127.459 302.814 127.459H302.178ZM301.094 128.315H302.846C304.892 128.315 305.878 127.109 305.878 125.414V125.34C305.878 123.645 304.892 122.488 302.863 122.488H301.094V128.315ZM306.945 128.315H308.037V122.488H306.945V128.315ZM309.411 128.315H310.397V123.849L313.022 128.315H314.146V122.488H313.16V126.701L310.707 122.488H309.411V128.315ZM318.1 128.397C319.746 128.397 320.757 127.419 320.757 125.805V125.267H318.222V126.082H319.689C319.657 126.889 319.208 127.549 318.116 127.549C316.894 127.549 316.315 126.693 316.315 125.446V125.381C316.315 124.102 316.975 123.254 318.116 123.254C318.874 123.254 319.396 123.588 319.526 124.362H320.61C320.455 122.969 319.347 122.398 318.1 122.398C316.397 122.398 315.19 123.637 315.19 125.373V125.438C315.19 127.158 316.234 128.397 318.1 128.397Z" fill="#1B263A"/>
<line x1="111.909" y1="136.463" x2="167.184" y2="136.463" stroke="#D5DDE2" stroke-width="3.71683" stroke-linecap="round" stroke-linejoin="round"/>
<line x1="180.31" y1="136.463" x2="215.12" y2="136.463" stroke="#D5DDE2" stroke-width="3.71683" stroke-linecap="round" stroke-linejoin="round"/>
<path d="M113.951 124.429C115.847 124.429 117.107 123.265 117.107 121.777C117.107 120.061 116.063 119.485 114.047 119.209C112.559 118.993 112.271 118.645 112.271 117.949C112.271 117.289 112.775 116.821 113.747 116.821C114.731 116.821 115.247 117.205 115.403 118.105H116.867C116.699 116.461 115.595 115.621 113.747 115.621C111.959 115.621 110.759 116.677 110.759 118.081C110.759 119.689 111.731 120.313 113.783 120.589C115.175 120.817 115.571 121.117 115.571 121.909C115.571 122.701 114.899 123.229 113.951 123.229C112.499 123.229 112.151 122.509 112.043 121.645H110.507C110.627 123.265 111.611 124.429 113.951 124.429ZM121.04 124.429C122.744 124.429 123.836 123.409 123.944 121.969H122.612C122.528 122.857 121.868 123.313 121.1 123.313C120.032 123.313 119.36 122.593 119.36 121.225V121.129C119.36 119.833 120.068 119.065 121.064 119.065C121.832 119.065 122.384 119.413 122.504 120.253H123.908C123.74 118.525 122.432 117.901 121.04 117.901C119.288 117.901 117.872 119.161 117.872 121.153V121.249C117.872 123.253 119.24 124.429 121.04 124.429ZM124.954 124.309H126.406V120.613C126.406 119.617 127.066 119.113 127.882 119.113C128.746 119.113 129.13 119.545 129.13 120.493V124.309H130.582V120.361C130.582 118.633 129.694 117.901 128.434 117.901C127.402 117.901 126.706 118.417 126.406 119.029V115.129H124.954V124.309ZM134.775 124.429C136.383 124.429 137.451 123.709 137.655 122.389H136.251C136.143 123.001 135.687 123.349 134.811 123.349C133.731 123.349 133.131 122.677 133.083 121.489H137.679V121.069C137.679 118.825 136.275 117.901 134.715 117.901C132.927 117.901 131.595 119.197 131.595 121.141V121.237C131.595 123.217 132.927 124.429 134.775 124.429ZM133.107 120.517C133.251 119.545 133.839 118.957 134.715 118.957C135.615 118.957 136.167 119.437 136.239 120.517H133.107ZM141.088 124.429C142.012 124.429 142.816 123.877 143.152 123.253V124.309H144.604V115.129H143.152V118.993C142.804 118.369 142.168 117.901 141.148 117.901C139.516 117.901 138.328 119.173 138.328 121.177V121.273C138.328 123.313 139.516 124.429 141.088 124.429ZM141.448 123.277C140.512 123.277 139.816 122.617 139.816 121.237V121.141C139.816 119.785 140.44 119.041 141.508 119.041C142.564 119.041 143.2 119.725 143.2 121.105V121.201C143.2 122.605 142.456 123.277 141.448 123.277ZM148.19 124.429C149.21 124.429 149.87 123.937 150.182 123.325V124.309H151.634V118.033H150.182V121.765C150.182 122.761 149.498 123.265 148.718 123.265C147.878 123.265 147.482 122.833 147.482 121.885V118.033H146.03V122.053C146.03 123.721 146.954 124.429 148.19 124.429ZM153.151 124.309H154.603V115.129H153.151V124.309ZM158.893 124.429C160.501 124.429 161.569 123.709 161.773 122.389H160.369C160.261 123.001 159.805 123.349 158.929 123.349C157.849 123.349 157.249 122.677 157.201 121.489H161.797V121.069C161.797 118.825 160.393 117.901 158.833 117.901C157.045 117.901 155.713 119.197 155.713 121.141V121.237C155.713 123.217 157.045 124.429 158.893 124.429ZM157.225 120.517C157.369 119.545 157.957 118.957 158.833 118.957C159.733 118.957 160.285 119.437 160.357 120.517H157.225ZM167.118 124.429C168.078 124.429 168.63 124.081 169.038 123.541V124.309H170.466V120.193C170.466 118.477 169.362 117.901 167.958 117.901C166.554 117.901 165.39 118.513 165.27 119.977H166.674C166.746 119.353 167.118 118.993 167.874 118.993C168.726 118.993 169.014 119.413 169.014 120.253V120.577H168.234C166.434 120.577 165.018 121.105 165.018 122.569C165.018 123.877 165.966 124.429 167.118 124.429ZM167.466 123.385C166.746 123.385 166.458 123.037 166.458 122.509C166.458 121.741 167.166 121.489 168.27 121.489H169.014V122.113C169.014 122.917 168.354 123.385 167.466 123.385ZM174.509 124.309H175.961V120.553C175.961 119.593 176.621 119.113 177.341 119.113C178.049 119.113 178.457 119.509 178.457 120.433V124.309H179.909V120.553C179.909 119.593 180.569 119.113 181.289 119.113C182.009 119.113 182.405 119.509 182.405 120.433V124.309H183.857V120.337C183.857 118.609 182.921 117.901 181.769 117.901C180.989 117.901 180.125 118.249 179.645 119.029C179.333 118.249 178.685 117.901 177.869 117.901C176.945 117.901 176.261 118.405 175.961 118.993V118.033H174.509V124.309ZM188.045 124.429C189.653 124.429 190.721 123.709 190.925 122.389H189.521C189.413 123.001 188.957 123.349 188.081 123.349C187.001 123.349 186.401 122.677 186.353 121.489H190.949V121.069C190.949 118.825 189.545 117.901 187.985 117.901C186.197 117.901 184.865 119.197 184.865 121.141V121.237C184.865 123.217 186.197 124.429 188.045 124.429ZM186.377 120.517C186.521 119.545 187.109 118.957 187.985 118.957C188.885 118.957 189.437 119.437 189.509 120.517H186.377ZM194.766 124.429C196.374 124.429 197.442 123.709 197.646 122.389H196.242C196.134 123.001 195.678 123.349 194.802 123.349C193.722 123.349 193.122 122.677 193.074 121.489H197.67V121.069C197.67 118.825 196.266 117.901 194.706 117.901C192.918 117.901 191.586 119.197 191.586 121.141V121.237C191.586 123.217 192.918 124.429 194.766 124.429ZM193.098 120.517C193.242 119.545 193.83 118.957 194.706 118.957C195.606 118.957 196.158 119.437 196.23 120.517H193.098ZM200.863 124.417C201.307 124.417 201.619 124.345 201.847 124.261V123.109C201.643 123.193 201.427 123.229 201.139 123.229C200.683 123.229 200.419 122.977 200.419 122.425V119.125H201.799V118.033H200.419V116.653H198.967V118.033H198.127V119.125H198.967V122.557C198.967 123.745 199.615 124.417 200.863 124.417ZM202.952 124.309H204.404V118.033H202.952V124.309ZM203.66 117.001C204.14 117.001 204.524 116.641 204.524 116.173C204.524 115.693 204.14 115.333 203.66 115.333C203.18 115.333 202.796 115.693 202.796 116.173C202.796 116.641 203.18 117.001 203.66 117.001ZM205.934 124.309H207.386V120.613C207.386 119.617 208.046 119.113 208.862 119.113C209.726 119.113 210.11 119.545 210.11 120.493V124.309H211.562V120.361C211.562 118.633 210.674 117.901 209.414 117.901C208.382 117.901 207.686 118.417 207.386 119.029V118.033H205.934V124.309ZM215.671 126.613C217.615 126.613 218.851 125.689 218.863 123.841V118.033H217.411V118.993C217.051 118.369 216.427 117.901 215.395 117.901C213.775 117.901 212.575 119.221 212.575 120.985V121.069C212.575 122.881 213.787 124.057 215.359 124.057C216.283 124.057 217.063 123.493 217.411 122.893V123.817C217.411 124.945 216.787 125.509 215.659 125.509C214.711 125.509 214.231 125.149 214.111 124.525H212.647C212.815 125.725 213.703 126.613 215.671 126.613ZM215.719 122.941C214.783 122.941 214.063 122.221 214.063 121.057V120.961C214.063 119.821 214.687 119.041 215.767 119.041C216.811 119.041 217.459 119.749 217.459 120.937V121.021C217.459 122.221 216.727 122.941 215.719 122.941Z" fill="#1B263A"/>
<rect x="67.1328" y="110.893" width="29.3304" height="28.8444" rx="5" fill="#85F1F0"/>
<rect x="497.377" y="112.023" width="75.5842" height="26.5842" rx="5" fill="#134AE9" fill-opacity="0.2"/>
<path d="M524.644 128.315H525.679L526.861 124.069L528.01 128.315H529.094L530.553 122.488H529.542L528.499 126.791L527.341 122.488H526.445L525.312 126.767L524.302 122.488H523.193L524.644 128.315ZM533.9 127.525C532.84 127.525 532.066 126.701 532.066 125.43V125.365C532.066 124.11 532.742 123.27 533.883 123.27C535.024 123.27 535.693 124.159 535.693 125.357V125.422C535.693 126.685 535 127.525 533.9 127.525ZM533.883 128.397C535.652 128.397 536.817 127.117 536.817 125.414V125.349C536.817 123.637 535.619 122.406 533.883 122.406C532.156 122.406 530.933 123.67 530.933 125.373V125.438C530.933 127.117 532.099 128.397 533.883 128.397ZM537.864 128.315H538.948V125.96H539.641L541.165 128.315H542.339L540.7 125.797C541.426 125.609 541.996 125.145 541.996 124.232V124.199C541.996 123.01 541.1 122.488 539.82 122.488H537.864V128.315ZM538.948 125.186V123.327H539.82C540.513 123.327 540.929 123.556 540.929 124.224V124.256C540.929 124.876 540.546 125.186 539.82 125.186H538.948ZM543.205 128.315H544.289V125.593L546.53 128.315H547.809L545.275 125.267L547.687 122.48H546.522L544.289 125.129V122.488H543.205V128.315ZM548.61 128.315H549.702V122.488H548.61V128.315ZM551.076 128.315H552.062V123.849L554.687 128.315H555.811V122.488H554.825V126.701L552.372 122.488H551.076V128.315ZM559.765 128.397C561.411 128.397 562.422 127.419 562.422 125.805V125.267H559.887V126.082H561.354C561.322 126.889 560.873 127.549 559.781 127.549C558.559 127.549 557.98 126.693 557.98 125.446V125.381C557.98 124.102 558.64 123.254 559.781 123.254C560.539 123.254 561.061 123.588 561.191 124.362H562.275C562.12 122.969 561.012 122.398 559.765 122.398C558.062 122.398 556.855 123.637 556.855 125.373V125.438C556.855 127.158 557.899 128.397 559.765 128.397Z" fill="#1B263A"/>
<circle r="2.84131" transform="matrix(-1 0 0 1 510.549 125.315)" fill="#134AE9"/>
<path d="M358.114 209.3C359.698 209.3 360.766 208.448 360.766 206.588V200.612H359.158V206.552C359.158 207.608 358.654 208.016 357.874 208.016C357.37 208.016 357.07 207.92 356.77 207.8V209.048C357.046 209.192 357.406 209.3 358.114 209.3ZM363.868 209.312C364.828 209.312 365.38 208.964 365.788 208.424V209.192H367.216V205.076C367.216 203.36 366.112 202.784 364.708 202.784C363.304 202.784 362.14 203.396 362.02 204.86H363.424C363.496 204.236 363.868 203.876 364.624 203.876C365.476 203.876 365.764 204.296 365.764 205.136V205.46H364.984C363.184 205.46 361.768 205.988 361.768 207.452C361.768 208.76 362.716 209.312 363.868 209.312ZM364.216 208.268C363.496 208.268 363.208 207.92 363.208 207.392C363.208 206.624 363.916 206.372 365.02 206.372H365.764V206.996C365.764 207.8 365.104 208.268 364.216 208.268ZM368.64 209.192H370.092V205.436C370.092 204.476 370.752 203.996 371.472 203.996C372.18 203.996 372.588 204.392 372.588 205.316V209.192H374.04V205.436C374.04 204.476 374.7 203.996 375.42 203.996C376.14 203.996 376.536 204.392 376.536 205.316V209.192H377.988V205.22C377.988 203.492 377.052 202.784 375.9 202.784C375.12 202.784 374.256 203.132 373.776 203.912C373.464 203.132 372.816 202.784 372 202.784C371.076 202.784 370.392 203.288 370.092 203.876V202.916H368.64V209.192ZM379.451 209.192H380.903V202.916H379.451V209.192ZM380.159 201.884C380.639 201.884 381.023 201.524 381.023 201.056C381.023 200.576 380.639 200.216 380.159 200.216C379.679 200.216 379.295 200.576 379.295 201.056C379.295 201.524 379.679 201.884 380.159 201.884ZM385.193 209.312C386.801 209.312 387.869 208.592 388.073 207.272H386.669C386.561 207.884 386.105 208.232 385.229 208.232C384.149 208.232 383.549 207.56 383.501 206.372H388.097V205.952C388.097 203.708 386.693 202.784 385.133 202.784C383.345 202.784 382.013 204.08 382.013 206.024V206.12C382.013 208.1 383.345 209.312 385.193 209.312ZM383.525 205.4C383.669 204.428 384.257 203.84 385.133 203.84C386.033 203.84 386.585 204.32 386.657 205.4H383.525ZM393.49 207.932V201.872H394.414C396.43 201.872 397.27 202.988 397.27 204.836V204.932C397.27 206.828 396.346 207.932 394.426 207.932H393.49ZM391.894 209.192H394.474C397.486 209.192 398.938 207.416 398.938 204.92V204.812C398.938 202.316 397.486 200.612 394.498 200.612H391.894V209.192Z" fill="#1B263A"/>
<path d="M434.437 209.192H435.877V202.712L438.481 209.192H438.997L441.553 202.712V209.192H443.149V200.612H441.037L438.829 206.468L436.573 200.612H434.437V209.192ZM446.338 209.312C447.298 209.312 447.85 208.964 448.258 208.424V209.192H449.686V205.076C449.686 203.36 448.582 202.784 447.178 202.784C445.774 202.784 444.61 203.396 444.49 204.86H445.894C445.966 204.236 446.338 203.876 447.094 203.876C447.946 203.876 448.234 204.296 448.234 205.136V205.46H447.454C445.654 205.46 444.238 205.988 444.238 207.452C444.238 208.76 445.186 209.312 446.338 209.312ZM446.686 208.268C445.966 208.268 445.678 207.92 445.678 207.392C445.678 206.624 446.386 206.372 447.49 206.372H448.234V206.996C448.234 207.8 447.574 208.268 446.686 208.268ZM451.631 211.34H453.059L456.479 202.916H455.063L453.527 206.96L451.859 202.916H450.287L452.771 208.556L451.631 211.34ZM459.263 209.192H465.467V207.956H461.819L463.727 206.096C464.747 205.112 465.407 204.14 465.407 203.024C465.407 201.512 464.351 200.492 462.575 200.492C460.763 200.492 459.635 201.572 459.527 203.444H460.991C461.135 202.232 461.675 201.74 462.527 201.74C463.355 201.74 463.811 202.244 463.811 203.048C463.811 203.864 463.319 204.62 462.503 205.484L459.263 208.904V209.192ZM469.428 209.312C471.396 209.312 472.644 208.328 472.644 206.744C472.644 205.604 471.984 204.896 470.988 204.668C471.816 204.356 472.38 203.768 472.38 202.796C472.38 201.524 471.336 200.492 469.548 200.492C467.712 200.492 466.596 201.632 466.512 203.12H467.928C468.024 202.256 468.612 201.704 469.524 201.704C470.412 201.704 470.856 202.22 470.856 202.916C470.856 203.72 470.412 204.176 469.428 204.176H468.816V205.316H469.476C470.52 205.316 471.024 205.784 471.024 206.72C471.024 207.572 470.508 208.112 469.392 208.112C468.24 208.112 467.736 207.44 467.652 206.54H466.2C466.272 208.184 467.388 209.312 469.428 209.312Z" fill="#1B263A"/>
<rect x="255.314" y="191.4" width="57.5842" height="26.5842" rx="4.64604" fill="#45DB9E" fill-opacity="0.3"/>
<path d="M267.69 207.774C268.978 207.774 269.834 206.983 269.834 205.973C269.834 204.807 269.125 204.416 267.756 204.229C266.745 204.082 266.549 203.845 266.549 203.373C266.549 202.925 266.892 202.607 267.552 202.607C268.22 202.607 268.571 202.867 268.677 203.479H269.671C269.557 202.362 268.807 201.792 267.552 201.792C266.338 201.792 265.523 202.509 265.523 203.462C265.523 204.555 266.183 204.978 267.576 205.166C268.522 205.321 268.791 205.524 268.791 206.062C268.791 206.6 268.334 206.959 267.69 206.959C266.704 206.959 266.468 206.47 266.395 205.883H265.351C265.433 206.983 266.101 207.774 267.69 207.774ZM273.085 207.774C274.625 207.774 275.448 206.934 275.448 205.41V201.865H274.356V205.321C274.356 206.527 273.932 206.902 273.093 206.902C272.229 206.902 271.887 206.462 271.887 205.394V201.865H270.795V205.475C270.795 206.975 271.626 207.774 273.085 207.774ZM279.284 207.774C280.67 207.774 281.664 207.065 281.835 205.663H280.776C280.661 206.486 280.091 206.894 279.284 206.894C278.208 206.894 277.581 206.119 277.581 204.807V204.742C277.581 203.438 278.249 202.639 279.276 202.639C280.115 202.639 280.547 203.039 280.67 203.813H281.77C281.639 202.444 280.604 201.775 279.268 201.775C277.646 201.775 276.44 202.998 276.44 204.75V204.815C276.44 206.608 277.459 207.774 279.284 207.774ZM285.325 207.774C286.71 207.774 287.705 207.065 287.876 205.663H286.816C286.702 206.486 286.132 206.894 285.325 206.894C284.249 206.894 283.622 206.119 283.622 204.807V204.742C283.622 203.438 284.29 202.639 285.317 202.639C286.156 202.639 286.588 203.039 286.71 203.813H287.811C287.68 202.444 286.645 201.775 285.309 201.775C283.687 201.775 282.481 202.998 282.481 204.75V204.815C282.481 206.608 283.499 207.774 285.325 207.774ZM288.815 207.692H292.597V206.837H289.899V205.133H291.953V204.318H289.899V202.721H292.458V201.865H288.815V207.692ZM295.555 207.774C296.843 207.774 297.698 206.983 297.698 205.973C297.698 204.807 296.989 204.416 295.62 204.229C294.609 204.082 294.414 203.845 294.414 203.373C294.414 202.925 294.756 202.607 295.416 202.607C296.085 202.607 296.435 202.867 296.541 203.479H297.535C297.421 202.362 296.671 201.792 295.416 201.792C294.202 201.792 293.387 202.509 293.387 203.462C293.387 204.555 294.047 204.978 295.441 205.166C296.386 205.321 296.655 205.524 296.655 206.062C296.655 206.6 296.199 206.959 295.555 206.959C294.569 206.959 294.332 206.47 294.259 205.883H293.216C293.297 206.983 293.966 207.774 295.555 207.774ZM300.649 207.774C301.936 207.774 302.792 206.983 302.792 205.973C302.792 204.807 302.083 204.416 300.714 204.229C299.703 204.082 299.508 203.845 299.508 203.373C299.508 202.925 299.85 202.607 300.51 202.607C301.178 202.607 301.529 202.867 301.635 203.479H302.629C302.515 202.362 301.765 201.792 300.51 201.792C299.296 201.792 298.481 202.509 298.481 203.462C298.481 204.555 299.141 204.978 300.534 205.166C301.48 205.321 301.749 205.524 301.749 206.062C301.749 206.6 301.292 206.959 300.649 206.959C299.662 206.959 299.426 206.47 299.353 205.883H298.31C298.391 206.983 299.059 207.774 300.649 207.774Z" fill="#1B263A"/>
<line x1="111.909" y1="215.84" x2="167.184" y2="215.84" stroke="#D5DDE2" stroke-width="3.71683" stroke-linecap="round" stroke-linejoin="round"/>
<line x1="180.31" y1="215.84" x2="215.12" y2="215.84" stroke="#D5DDE2" stroke-width="3.71683" stroke-linecap="round" stroke-linejoin="round"/>
<path d="M111.035 203.687H112.631V199.679L115.931 203.687H117.815L114.083 199.199L117.635 195.095H115.919L112.631 198.995V195.107H111.035V203.687ZM118.562 203.687H120.014V197.411H118.562V203.687ZM119.27 196.379C119.75 196.379 120.134 196.019 120.134 195.551C120.134 195.071 119.75 194.711 119.27 194.711C118.79 194.711 118.406 195.071 118.406 195.551C118.406 196.019 118.79 196.379 119.27 196.379ZM124.292 203.807C125.996 203.807 127.088 202.787 127.196 201.347H125.864C125.78 202.235 125.12 202.691 124.352 202.691C123.284 202.691 122.612 201.971 122.612 200.603V200.507C122.612 199.211 123.32 198.443 124.316 198.443C125.084 198.443 125.636 198.791 125.756 199.631H127.16C126.992 197.903 125.684 197.279 124.292 197.279C122.54 197.279 121.124 198.539 121.124 200.531V200.627C121.124 202.631 122.492 203.807 124.292 203.807ZM128.207 203.687H129.659V200.603L132.011 203.687H133.691L131.051 200.291L133.487 197.411H131.903L129.659 200.171V194.507H128.207V203.687ZM139.874 202.679C138.77 202.679 138.134 201.875 138.134 200.591V200.495C138.134 199.199 138.794 198.419 139.874 198.419C140.954 198.419 141.602 199.211 141.602 200.507V200.591C141.602 201.875 140.954 202.679 139.874 202.679ZM139.862 203.807C141.71 203.807 143.09 202.535 143.09 200.579V200.483C143.09 198.563 141.71 197.279 139.874 197.279C138.026 197.279 136.646 198.575 136.646 200.519V200.615C136.646 202.523 138.014 203.807 139.862 203.807ZM144.414 203.687H145.866V198.503H148.074V203.687H149.526V198.503H150.954V197.411H149.526V196.511C149.526 195.971 149.766 195.587 150.354 195.587C150.618 195.587 150.846 195.635 151.014 195.695V194.567C150.75 194.483 150.534 194.447 150.174 194.447C148.842 194.447 148.074 195.191 148.074 196.571V197.411H145.866V196.583C145.866 196.043 146.106 195.659 146.694 195.659C146.958 195.659 147.174 195.719 147.342 195.779V194.651C147.078 194.567 146.862 194.531 146.514 194.531C145.17 194.531 144.414 195.263 144.414 196.655V197.411H143.562V198.503H144.414V203.687ZM157.294 203.807C158.998 203.807 160.09 202.787 160.198 201.347H158.866C158.782 202.235 158.122 202.691 157.354 202.691C156.286 202.691 155.614 201.971 155.614 200.603V200.507C155.614 199.211 156.322 198.443 157.318 198.443C158.086 198.443 158.638 198.791 158.758 199.631H160.162C159.994 197.903 158.686 197.279 157.294 197.279C155.542 197.279 154.126 198.539 154.126 200.531V200.627C154.126 202.631 155.494 203.807 157.294 203.807ZM162.852 203.807C163.812 203.807 164.364 203.459 164.772 202.919V203.687H166.2V199.571C166.2 197.855 165.096 197.279 163.692 197.279C162.288 197.279 161.124 197.891 161.004 199.355H162.408C162.48 198.731 162.852 198.371 163.608 198.371C164.46 198.371 164.748 198.791 164.748 199.631V199.955H163.968C162.168 199.955 160.752 200.483 160.752 201.947C160.752 203.255 161.7 203.807 162.852 203.807ZM163.2 202.763C162.48 202.763 162.192 202.415 162.192 201.887C162.192 201.119 162.9 200.867 164.004 200.867H164.748V201.491C164.748 202.295 164.088 202.763 163.2 202.763ZM167.66 203.687H169.112V194.507H167.66V203.687ZM170.678 203.687H172.13V194.507H170.678V203.687Z" fill="#1B263A"/>
<rect x="67.1328" y="190.27" width="29.3304" height="28.8444" rx="5" fill="#C4DDF5"/>
<rect x="497.377" y="191.4" width="75.5842" height="26.5842" rx="5" fill="#FBB646" fill-opacity="0.2"/>
<path d="M524.643 206.837V202.721H525.27C526.64 202.721 527.21 203.479 527.21 204.734V204.799C527.21 206.087 526.583 206.837 525.279 206.837H524.643ZM523.559 207.692H525.311C527.357 207.692 528.343 206.486 528.343 204.791V204.718C528.343 203.022 527.357 201.865 525.327 201.865H523.559V207.692ZM529.377 207.692H533.159V206.837H530.461V205.133H532.515V204.318H530.461V202.721H533.02V201.865H529.377V207.692ZM534.136 207.692H537.706V206.828H535.22V201.865H534.136V207.692ZM538.217 207.692H539.236L539.692 206.25H541.917L542.381 207.692H543.506L541.583 201.865H540.165L538.217 207.692ZM540.809 202.753L541.664 205.459H539.945L540.809 202.753ZM545.185 207.692H546.277V205.174L548.102 201.865H547.043L545.763 204.278L544.451 201.865H543.253L545.185 205.166V207.692ZM548.908 207.692H552.69V206.837H549.992V205.133H552.046V204.318H549.992V202.721H552.551V201.865H548.908V207.692ZM554.752 206.837V202.721H555.379C556.748 202.721 557.319 203.479 557.319 204.734V204.799C557.319 206.087 556.691 206.837 555.387 206.837H554.752ZM553.668 207.692H555.42C557.466 207.692 558.452 206.486 558.452 204.791V204.718C558.452 203.022 557.466 201.865 555.436 201.865H553.668V207.692Z" fill="#1B263A"/>
<circle r="2.84131" transform="matrix(-1 0 0 1 510.549 204.692)" fill="#FBB646"/>
<g filter="url(#filter1_d_554_7047)">
<path d="M33 274.811H606.665V356.151H33V274.811Z" fill="white"/>
</g>
<path d="M357.322 320.558H358.918V316.55L362.218 320.558H364.102L360.37 316.07L363.922 311.966H362.206L358.918 315.866V311.978H357.322V320.558ZM367.21 320.678C368.818 320.678 369.886 319.958 370.09 318.638H368.686C368.578 319.25 368.122 319.598 367.246 319.598C366.166 319.598 365.566 318.926 365.518 317.738H370.114V317.318C370.114 315.074 368.71 314.15 367.15 314.15C365.362 314.15 364.03 315.446 364.03 317.39V317.486C364.03 319.466 365.362 320.678 367.21 320.678ZM365.542 316.766C365.686 315.794 366.274 315.206 367.15 315.206C368.05 315.206 368.602 315.686 368.674 316.766H365.542ZM372.698 320.558H374.39L376.658 314.282H375.23L373.61 319.07L371.966 314.282H370.406L372.698 320.558ZM377.53 320.558H378.982V314.282H377.53V320.558ZM378.238 313.25C378.718 313.25 379.102 312.89 379.102 312.422C379.102 311.942 378.718 311.582 378.238 311.582C377.758 311.582 377.374 311.942 377.374 312.422C377.374 312.89 377.758 313.25 378.238 313.25ZM380.511 320.558H381.963V316.862C381.963 315.866 382.623 315.362 383.439 315.362C384.303 315.362 384.687 315.794 384.687 316.742V320.558H386.139V316.61C386.139 314.882 385.251 314.15 383.991 314.15C382.959 314.15 382.263 314.666 381.963 315.278V314.282H380.511V320.558ZM390.312 320.558H391.908V317.042H394.836V315.806H391.908V313.25H395.628V311.978H390.312V320.558Z" fill="#1B263A"/>
<path d="M434.437 320.558H435.877V314.078L438.481 320.558H438.997L441.553 314.078V320.558H443.149V311.978H441.037L438.829 317.834L436.573 311.978H434.437V320.558ZM446.338 320.678C447.298 320.678 447.85 320.33 448.258 319.79V320.558H449.686V316.442C449.686 314.726 448.582 314.15 447.178 314.15C445.774 314.15 444.61 314.762 444.49 316.226H445.894C445.966 315.602 446.338 315.242 447.094 315.242C447.946 315.242 448.234 315.662 448.234 316.502V316.826H447.454C445.654 316.826 444.238 317.354 444.238 318.818C444.238 320.126 445.186 320.678 446.338 320.678ZM446.686 319.634C445.966 319.634 445.678 319.286 445.678 318.758C445.678 317.99 446.386 317.738 447.49 317.738H448.234V318.362C448.234 319.166 447.574 319.634 446.686 319.634ZM451.631 322.706H453.059L456.479 314.282H455.063L453.527 318.326L451.859 314.282H450.287L452.771 319.922L451.631 322.706ZM462.731 320.678C464.699 320.678 465.947 319.694 465.947 318.11C465.947 316.97 465.287 316.262 464.291 316.034C465.119 315.722 465.683 315.134 465.683 314.162C465.683 312.89 464.639 311.858 462.851 311.858C461.015 311.858 459.899 312.998 459.815 314.486H461.231C461.327 313.622 461.915 313.07 462.827 313.07C463.715 313.07 464.159 313.586 464.159 314.282C464.159 315.086 463.715 315.542 462.731 315.542H462.119V316.682H462.779C463.823 316.682 464.327 317.15 464.327 318.086C464.327 318.938 463.811 319.478 462.695 319.478C461.543 319.478 461.039 318.806 460.955 317.906H459.503C459.575 319.55 460.691 320.678 462.731 320.678ZM470.568 319.406C469.284 319.406 468.54 318.422 468.54 316.478V316.046C468.54 314.138 469.248 313.106 470.544 313.106C471.828 313.106 472.524 314.21 472.524 316.034V316.454C472.524 318.398 471.888 319.406 470.568 319.406ZM470.532 320.678C472.776 320.678 474.12 319.034 474.12 316.454V316.022C474.12 313.442 472.704 311.858 470.532 311.858C468.372 311.858 466.932 313.454 466.932 316.058V316.49C466.932 319.07 468.348 320.678 470.532 320.678Z" fill="#1B263A"/>
<rect x="255.314" y="302.765" width="75.5842" height="26.5842" rx="4.64604" fill="#85F1F0" fill-opacity="0.5"/>
<path d="M268.421 318.267C267.362 318.267 266.588 317.444 266.588 316.172V316.107C266.588 314.852 267.264 314.013 268.405 314.013C269.546 314.013 270.214 314.901 270.214 316.099V316.164C270.214 317.427 269.522 318.267 268.421 318.267ZM268.405 319.139C270.174 319.139 271.339 317.859 271.339 316.156V316.091C271.339 314.379 270.141 313.149 268.405 313.149C266.677 313.149 265.455 314.412 265.455 316.115V316.181C265.455 317.859 266.62 319.139 268.405 319.139ZM272.386 319.057H273.372V314.591L275.996 319.057H277.121V313.23H276.135V317.444L273.682 313.23H272.386V319.057ZM278.459 319.057H280.7C281.979 319.057 282.697 318.511 282.697 317.427V317.395C282.697 316.621 282.322 316.189 281.531 316.018C282.191 315.814 282.452 315.357 282.452 314.779V314.746C282.452 313.687 281.743 313.23 280.545 313.23H278.459V319.057ZM279.518 318.283V316.417H280.496C281.295 316.417 281.629 316.718 281.629 317.322V317.354C281.629 317.957 281.295 318.283 280.57 318.283H279.518ZM279.518 315.683V314.004H280.398C281.091 314.004 281.409 314.241 281.409 314.795V314.828C281.409 315.423 281.132 315.683 280.415 315.683H279.518ZM286.385 318.267C285.325 318.267 284.551 317.444 284.551 316.172V316.107C284.551 314.852 285.227 314.013 286.368 314.013C287.509 314.013 288.178 314.901 288.178 316.099V316.164C288.178 317.427 287.485 318.267 286.385 318.267ZM286.368 319.139C288.137 319.139 289.302 317.859 289.302 316.156V316.091C289.302 314.379 288.104 313.149 286.368 313.149C284.641 313.149 283.418 314.412 283.418 316.115V316.181C283.418 317.859 284.584 319.139 286.368 319.139ZM289.575 319.057H290.594L291.05 317.615H293.275L293.739 319.057H294.864L292.941 313.23H291.523L289.575 319.057ZM292.167 314.119L293.022 316.824H291.303L292.167 314.119ZM295.754 319.057H296.837V316.702H297.53L299.054 319.057H300.228L298.59 316.539C299.315 316.352 299.886 315.887 299.886 314.974V314.942C299.886 313.752 298.989 313.23 297.71 313.23H295.754V319.057ZM296.837 315.928V314.07H297.71C298.402 314.07 298.818 314.298 298.818 314.966V314.999C298.818 315.618 298.435 315.928 297.71 315.928H296.837ZM302.178 318.202V314.086H302.806C304.175 314.086 304.745 314.844 304.745 316.099V316.164C304.745 317.452 304.118 318.202 302.814 318.202H302.178ZM301.094 319.057H302.846C304.892 319.057 305.878 317.851 305.878 316.156V316.083C305.878 314.388 304.892 313.23 302.863 313.23H301.094V319.057ZM306.945 319.057H308.037V313.23H306.945V319.057ZM309.411 319.057H310.397V314.591L313.022 319.057H314.146V313.23H313.16V317.444L310.707 313.23H309.411V319.057ZM318.1 319.139C319.746 319.139 320.757 318.161 320.757 316.547V316.009H318.222V316.824H319.689C319.657 317.631 319.208 318.291 318.116 318.291C316.894 318.291 316.315 317.436 316.315 316.189V316.123C316.315 314.844 316.975 313.996 318.116 313.996C318.874 313.996 319.396 314.33 319.526 315.105H320.61C320.455 313.711 319.347 313.141 318.1 313.141C316.397 313.141 315.19 314.379 315.19 316.115V316.181C315.19 317.9 316.234 319.139 318.1 319.139Z" fill="#1B263A"/>
<line x1="111.909" y1="327.385" x2="167.184" y2="327.385" stroke="#D5DDE2" stroke-width="3.71683" stroke-linecap="round" stroke-linejoin="round"/>
<path d="M111.035 313.564H116.603V312.304H112.631V309.796H115.655V308.596H112.631V306.244H116.399V304.984H111.035V313.564ZM117.683 313.564H119.135V309.868C119.135 308.872 119.795 308.368 120.611 308.368C121.475 308.368 121.859 308.8 121.859 309.748V313.564H123.311V309.616C123.311 307.888 122.423 307.156 121.163 307.156C120.131 307.156 119.435 307.672 119.135 308.284V307.288H117.683V313.564ZM126.387 313.684C127.347 313.684 127.899 313.336 128.307 312.796V313.564H129.735V309.448C129.735 307.732 128.631 307.156 127.227 307.156C125.823 307.156 124.659 307.768 124.539 309.232H125.943C126.015 308.608 126.387 308.248 127.143 308.248C127.995 308.248 128.283 308.668 128.283 309.508V309.832H127.503C125.703 309.832 124.287 310.36 124.287 311.824C124.287 313.132 125.235 313.684 126.387 313.684ZM126.735 312.64C126.015 312.64 125.727 312.292 125.727 311.764C125.727 310.996 126.435 310.744 127.539 310.744H128.283V311.368C128.283 312.172 127.623 312.64 126.735 312.64ZM134.664 313.684C136.284 313.684 137.448 312.46 137.448 310.444V310.348C137.448 308.32 136.236 307.156 134.664 307.156C133.74 307.156 132.96 307.696 132.612 308.296V304.384H131.16V313.564H132.612V312.556C132.948 313.192 133.668 313.684 134.664 313.684ZM134.304 312.532C133.248 312.532 132.564 311.872 132.564 310.468V310.372C132.564 308.98 133.284 308.296 134.292 308.296C135.24 308.296 135.96 308.98 135.96 310.372V310.468C135.96 311.812 135.372 312.532 134.304 312.532ZM138.549 313.564H140.001V304.384H138.549V313.564ZM144.291 313.684C145.899 313.684 146.967 312.964 147.171 311.644H145.767C145.659 312.256 145.203 312.604 144.327 312.604C143.247 312.604 142.647 311.932 142.599 310.744H147.195V310.324C147.195 308.08 145.791 307.156 144.231 307.156C142.443 307.156 141.111 308.452 141.111 310.396V310.492C141.111 312.472 142.443 313.684 144.291 313.684ZM142.623 309.772C142.767 308.8 143.355 308.212 144.231 308.212C145.131 308.212 145.683 308.692 145.755 309.772H142.623ZM153.907 313.684C155.803 313.684 157.063 312.52 157.063 311.032C157.063 309.316 156.02 308.74 154.003 308.464C152.515 308.248 152.227 307.9 152.227 307.204C152.227 306.544 152.731 306.076 153.704 306.076C154.687 306.076 155.204 306.46 155.359 307.36H156.823C156.655 305.716 155.551 304.876 153.704 304.876C151.915 304.876 150.715 305.932 150.715 307.336C150.715 308.944 151.687 309.568 153.739 309.844C155.131 310.072 155.527 310.372 155.527 311.164C155.527 311.956 154.855 312.484 153.907 312.484C152.455 312.484 152.107 311.764 151.999 310.9H150.463C150.583 312.52 151.567 313.684 153.907 313.684ZM159.893 313.684C160.853 313.684 161.405 313.336 161.813 312.796V313.564H163.241V309.448C163.241 307.732 162.137 307.156 160.733 307.156C159.329 307.156 158.165 307.768 158.045 309.232H159.449C159.521 308.608 159.893 308.248 160.649 308.248C161.501 308.248 161.789 308.668 161.789 309.508V309.832H161.009C159.209 309.832 157.793 310.36 157.793 311.824C157.793 313.132 158.741 313.684 159.893 313.684ZM160.241 312.64C159.521 312.64 159.233 312.292 159.233 311.764C159.233 310.996 159.941 310.744 161.045 310.744H161.789V311.368C161.789 312.172 161.129 312.64 160.241 312.64ZM164.701 313.564H166.153V304.384H164.701V313.564ZM170.443 313.684C172.051 313.684 173.119 312.964 173.323 311.644H171.919C171.811 312.256 171.355 312.604 170.479 312.604C169.399 312.604 168.799 311.932 168.751 310.744H173.347V310.324C173.347 308.08 171.943 307.156 170.383 307.156C168.595 307.156 167.263 308.452 167.263 310.396V310.492C167.263 312.472 168.595 313.684 170.443 313.684ZM168.775 309.772C168.919 308.8 169.507 308.212 170.383 308.212C171.283 308.212 171.835 308.692 171.907 309.772H168.775ZM176.61 313.684C178.218 313.684 179.118 312.952 179.118 311.68C179.118 310.348 178.242 309.988 176.766 309.76C175.77 309.592 175.47 309.412 175.47 308.956C175.47 308.512 175.842 308.212 176.466 308.212C177.138 308.212 177.462 308.476 177.582 309.052H178.926C178.77 307.636 177.75 307.156 176.466 307.156C175.29 307.156 174.114 307.78 174.114 309.04C174.114 310.216 174.726 310.684 176.382 310.948C177.306 311.104 177.726 311.296 177.726 311.812C177.726 312.34 177.378 312.616 176.598 312.616C175.746 312.616 175.422 312.244 175.35 311.608H173.982C174.042 312.94 174.99 313.684 176.61 313.684ZM180.404 313.564H181.856V308.38H183.284V307.288H181.856V306.388C181.856 305.848 182.096 305.464 182.684 305.464C182.948 305.464 183.176 305.512 183.344 305.572V304.444C183.08 304.36 182.864 304.324 182.516 304.324C181.172 304.324 180.404 305.068 180.404 306.448V307.288H179.552V308.38H180.404V313.564ZM186.833 312.556C185.729 312.556 185.093 311.752 185.093 310.468V310.372C185.093 309.076 185.753 308.296 186.833 308.296C187.913 308.296 188.561 309.088 188.561 310.384V310.468C188.561 311.752 187.913 312.556 186.833 312.556ZM186.821 313.684C188.669 313.684 190.049 312.412 190.049 310.456V310.36C190.049 308.44 188.669 307.156 186.833 307.156C184.985 307.156 183.605 308.452 183.605 310.396V310.492C183.605 312.4 184.973 313.684 186.821 313.684ZM191.121 313.564H192.573V310.3C192.573 308.968 193.341 308.56 194.613 308.548V307.192C193.557 307.204 192.969 307.672 192.573 308.464V307.288H191.121V313.564ZM198.282 313.684C199.986 313.684 201.078 312.664 201.186 311.224H199.854C199.77 312.112 199.11 312.568 198.342 312.568C197.274 312.568 196.602 311.848 196.602 310.48V310.384C196.602 309.088 197.31 308.32 198.306 308.32C199.074 308.32 199.626 308.668 199.746 309.508H201.15C200.982 307.78 199.674 307.156 198.282 307.156C196.53 307.156 195.114 308.416 195.114 310.408V310.504C195.114 312.508 196.482 313.684 198.282 313.684ZM204.956 313.684C206.564 313.684 207.632 312.964 207.836 311.644H206.432C206.324 312.256 205.868 312.604 204.992 312.604C203.912 312.604 203.312 311.932 203.264 310.744H207.86V310.324C207.86 308.08 206.456 307.156 204.896 307.156C203.108 307.156 201.776 308.452 201.776 310.396V310.492C201.776 312.472 203.108 313.684 204.956 313.684ZM203.288 309.772C203.432 308.8 204.02 308.212 204.896 308.212C205.796 308.212 206.348 308.692 206.42 309.772H203.288Z" fill="#1B263A"/>
<rect x="67.1328" y="301.635" width="29.3304" height="28.8444" rx="5" fill="#EBF0F3"/>
<rect x="497.377" y="302.765" width="75.5842" height="26.5842" rx="5" fill="#134AE9" fill-opacity="0.2"/>
<path d="M524.644 319.058H525.679L526.861 314.811L528.01 319.058H529.094L530.553 313.23H529.542L528.499 317.534L527.341 313.23H526.445L525.312 317.509L524.302 313.23H523.193L524.644 319.058ZM533.9 318.267C532.84 318.267 532.066 317.444 532.066 316.173V316.107C532.066 314.852 532.742 314.013 533.883 314.013C535.024 314.013 535.693 314.901 535.693 316.099V316.164C535.693 317.428 535 318.267 533.9 318.267ZM533.883 319.139C535.652 319.139 536.817 317.86 536.817 316.156V316.091C536.817 314.38 535.619 313.149 533.883 313.149C532.156 313.149 530.933 314.412 530.933 316.115V316.181C530.933 317.86 532.099 319.139 533.883 319.139ZM537.864 319.058H538.948V316.702H539.641L541.165 319.058H542.339L540.7 316.539C541.426 316.352 541.996 315.887 541.996 314.974V314.942C541.996 313.752 541.1 313.23 539.82 313.23H537.864V319.058ZM538.948 315.928V314.07H539.82C540.513 314.07 540.929 314.298 540.929 314.966V314.999C540.929 315.618 540.546 315.928 539.82 315.928H538.948ZM543.205 319.058H544.289V316.336L546.53 319.058H547.809L545.275 316.01L547.687 313.222H546.522L544.289 315.871V313.23H543.205V319.058ZM548.61 319.058H549.702V313.23H548.61V319.058ZM551.076 319.058H552.062V314.591L554.687 319.058H555.811V313.23H554.825V317.444L552.372 313.23H551.076V319.058ZM559.765 319.139C561.411 319.139 562.422 318.161 562.422 316.547V316.01H559.887V316.825H561.354C561.322 317.631 560.873 318.292 559.781 318.292C558.559 318.292 557.98 317.436 557.98 316.189V316.124C557.98 314.844 558.64 313.996 559.781 313.996C560.539 313.996 561.061 314.331 561.191 315.105H562.275C562.12 313.711 561.012 313.141 559.765 313.141C558.062 313.141 556.855 314.38 556.855 316.115V316.181C556.855 317.9 557.899 319.139 559.765 319.139Z" fill="#1B263A"/>
<circle r="2.84131" transform="matrix(-1 0 0 1 510.549 316.058)" fill="#134AE9"/>
<defs>
<filter id="filter0_d_554_7047" x="0.477707" y="0.46003" width="666.587" height="316.31" filterUnits="userSpaceOnUse" color-interpolation-filters="sRGB">
<feFlood flood-opacity="0" result="BackgroundImageFix"/>
<feColorMatrix in="SourceAlpha" type="matrix" values="0 0 0 0 0 0 0 0 0 0 0 0 0 0 0 0 0 0 127 0" result="hardAlpha"/>
<feOffset dx="13.9381" dy="20.71"/>
<feGaussianBlur stdDeviation="23.2302"/>
<feColorMatrix type="matrix" values="0 0 0 0 0.133333 0 0 0 0 0.133333 0 0 0 0 0.27451 0 0 0 0.1 0"/>
<feBlend mode="normal" in2="BackgroundImageFix" result="effect1_dropShadow_554_7047"/>
<feBlend mode="normal" in="SourceGraphic" in2="effect1_dropShadow_554_7047" result="shape"/>
</filter>
<filter id="filter1_d_554_7047" x="0.477707" y="249.061" width="666.587" height="174.26" filterUnits="userSpaceOnUse" color-interpolation-filters="sRGB">
<feFlood flood-opacity="0" result="BackgroundImageFix"/>
<feColorMatrix in="SourceAlpha" type="matrix" values="0 0 0 0 0 0 0 0 0 0 0 0 0 0 0 0 0 0 127 0" result="hardAlpha"/>
<feOffset dx="13.9381" dy="20.71"/>
<feGaussianBlur stdDeviation="23.2302"/>
<feColorMatrix type="matrix" values="0 0 0 0 0.133333 0 0 0 0 0.133333 0 0 0 0 0.27451 0 0 0 0.1 0"/>
<feBlend mode="normal" in2="BackgroundImageFix" result="effect1_dropShadow_554_7047"/>
<feBlend mode="normal" in="SourceGraphic" in2="effect1_dropShadow_554_7047" result="shape"/>
</filter>
</defs>
</svg>
