<svg width="794" height="483" viewBox="0 0 794 483" fill="none" xmlns="http://www.w3.org/2000/svg">
<path d="M737.537 0.790039H590.192C571.43 0.790039 556.27 15.9706 556.27 34.7566V170.813C541.109 216.829 500.364 227.93 483.781 230.491H429.865C414.61 230.491 402.197 242.921 402.197 258.196V329.545C402.197 329.735 402.102 329.829 402.102 330.019C393.29 369.868 356.335 379.925 348.186 381.728H310.473C300.619 381.823 292.564 389.793 292.564 399.755V464.937C292.564 474.899 300.619 482.869 310.473 482.869H375.855C385.804 482.869 393.764 474.804 393.764 464.937V427.175C403.05 377.458 441.994 369.963 448.248 369.109H513.061C528.317 369.109 540.73 356.68 540.73 341.405V293.016C540.824 292.447 540.824 291.878 540.919 291.309C546.51 228.119 595.972 216.449 598.815 215.785H737.348C756.109 215.785 771.27 200.605 771.27 181.819V34.7566C771.46 15.9706 756.299 0.790039 737.537 0.790039Z" fill="#85F1F0"/>
<path d="M654 71.5405C658.041 67.3307 663.666 64.7198 669.887 64.7198C678.157 64.7198 685.372 69.3312 689.214 76.1769C692.553 74.685 696.249 73.8551 700.137 73.8551C715.053 73.8551 727.145 86.0528 727.145 101.099C727.145 116.146 715.053 128.344 700.137 128.344C698.317 128.344 696.538 128.162 694.818 127.814C691.434 133.849 684.986 137.927 677.586 137.927C674.487 137.927 671.557 137.212 668.948 135.939C665.518 144.007 657.527 149.664 648.213 149.664C638.514 149.664 630.248 143.527 627.075 134.92C625.688 135.215 624.251 135.368 622.777 135.368C611.229 135.368 601.867 125.91 601.867 114.24C601.867 106.42 606.073 99.5925 612.323 95.9394C611.036 92.9788 610.321 89.7112 610.321 86.2759C610.321 72.8558 621.216 61.9769 634.654 61.9769C642.543 61.9769 649.555 65.7281 654 71.5405Z" fill="#1B263A"/>
<path d="M620.013 107.449C619.934 107.654 620.041 107.697 620.066 107.733C620.302 107.904 620.541 108.027 620.782 108.165C622.06 108.843 623.266 109.041 624.528 109.041C627.098 109.041 628.693 107.674 628.693 105.473V105.431C628.693 103.396 626.892 102.657 625.202 102.124L624.983 102.052C623.709 101.638 622.609 101.281 622.609 100.443V100.398C622.609 99.6807 623.252 99.1525 624.248 99.1525C625.354 99.1525 626.667 99.5201 627.513 99.9877C627.513 99.9877 627.761 100.148 627.852 99.9074C627.902 99.7789 628.331 98.626 628.375 98.5011C628.423 98.3655 628.338 98.2655 628.25 98.212C627.285 97.6249 625.95 97.2233 624.569 97.2233L624.312 97.2251C621.96 97.2251 620.318 98.6457 620.318 100.682V100.725C620.318 102.872 622.129 103.568 623.826 104.053L624.099 104.137C625.336 104.517 626.402 104.844 626.402 105.714V105.757C626.402 106.553 625.709 107.146 624.592 107.146C624.158 107.146 622.775 107.137 621.282 106.193C621.101 106.087 620.996 106.011 620.857 105.927C620.784 105.88 620.6 105.8 620.52 106.043L620.013 107.449Z" fill="#D0EFF9"/>
<path d="M657.632 107.449C657.553 107.654 657.66 107.697 657.685 107.733C657.921 107.904 658.16 108.027 658.401 108.165C659.679 108.843 660.885 109.041 662.147 109.041C664.717 109.041 666.312 107.674 666.312 105.473V105.431C666.312 103.396 664.511 102.657 662.821 102.124L662.602 102.052C661.328 101.638 660.228 101.281 660.228 100.443V100.398C660.228 99.6807 660.871 99.1525 661.867 99.1525C662.973 99.1525 664.287 99.5201 665.132 99.9877C665.132 99.9877 665.381 100.148 665.472 99.9074C665.521 99.7789 665.95 98.626 665.994 98.5011C666.043 98.3655 665.957 98.2655 665.869 98.212C664.904 97.6249 663.569 97.2233 662.188 97.2233L661.931 97.2251C659.579 97.2251 657.937 98.6457 657.937 100.682V100.725C657.937 102.872 659.748 103.568 661.445 104.053L661.719 104.137C662.955 104.517 664.022 104.844 664.022 105.714V105.757C664.022 106.553 663.328 107.146 662.211 107.146C661.777 107.146 660.394 107.137 658.901 106.193C658.72 106.087 658.613 106.014 658.478 105.927C658.431 105.896 658.214 105.813 658.139 106.043L657.632 107.449Z" fill="#D0EFF9"/>
<path d="M683.317 103.139C683.317 104.383 683.085 105.363 682.628 106.055C682.177 106.74 681.493 107.074 680.54 107.074C679.586 107.074 678.906 106.742 678.461 106.055C678.012 105.364 677.783 104.383 677.783 103.139C677.783 101.897 678.012 100.919 678.461 100.234C678.906 99.5556 679.586 99.2255 680.54 99.2255C681.493 99.2255 682.177 99.5556 682.63 100.234C683.085 100.919 683.317 101.897 683.317 103.139ZM685.462 100.833C685.252 100.121 684.923 99.4932 684.486 98.9703C684.049 98.4456 683.496 98.0245 682.839 97.7175C682.184 97.4124 681.409 97.2571 680.54 97.2571C679.669 97.2571 678.895 97.4124 678.24 97.7175C677.583 98.0245 677.03 98.4456 676.591 98.9703C676.156 99.495 675.827 100.123 675.615 100.833C675.406 101.542 675.301 102.316 675.301 103.139C675.301 103.962 675.406 104.738 675.615 105.445C675.827 106.155 676.154 106.783 676.593 107.308C677.03 107.833 677.585 108.252 678.24 108.55C678.897 108.848 679.669 109 680.54 109C681.409 109 682.182 108.848 682.839 108.55C683.494 108.252 684.049 107.833 684.486 107.308C684.923 106.785 685.252 106.157 685.462 105.445C685.673 104.736 685.778 103.96 685.778 103.139C685.778 102.318 685.673 101.542 685.462 100.833Z" fill="#D0EFF9"/>
<path d="M703.075 106.742C703.004 106.533 702.802 106.612 702.802 106.612C702.49 106.731 702.158 106.842 701.805 106.897C701.446 106.953 701.052 106.981 700.629 106.981C699.59 106.981 698.766 106.672 698.175 106.062C697.582 105.452 697.25 104.465 697.254 103.13C697.258 101.915 697.55 101.001 698.077 100.305C698.6 99.6126 699.395 99.2575 700.457 99.2575C701.342 99.2575 702.017 99.3592 702.724 99.5823C702.724 99.5823 702.893 99.6554 702.974 99.4342C703.161 98.9131 703.3 98.5401 703.5 97.9672C703.557 97.8048 703.418 97.7352 703.368 97.7156C703.09 97.6067 702.433 97.4301 701.937 97.3551C701.473 97.2837 700.93 97.2462 700.327 97.2462C699.426 97.2462 698.623 97.3997 697.936 97.7067C697.25 98.0118 696.669 98.433 696.208 98.9577C695.748 99.4823 695.398 100.111 695.164 100.821C694.932 101.529 694.814 102.307 694.814 103.13C694.814 104.909 695.295 106.348 696.242 107.401C697.192 108.457 698.617 108.994 700.477 108.994C701.576 108.994 702.704 108.771 703.514 108.452C703.514 108.452 703.67 108.377 703.602 108.196L703.075 106.742Z" fill="#D0EFF9"/>
<path d="M706.829 101.948C706.93 101.257 707.121 100.682 707.416 100.234C707.86 99.5544 708.538 99.1814 709.491 99.1814C710.444 99.1814 711.074 99.5562 711.526 100.234C711.826 100.682 711.956 101.282 712.008 101.948H706.829ZM714.051 100.429C713.869 99.7418 713.417 99.0476 713.121 98.7299C712.654 98.2266 712.197 97.8751 711.743 97.6788C711.151 97.4254 710.441 97.2576 709.663 97.2576C708.756 97.2576 707.933 97.4093 707.266 97.7234C706.597 98.0375 706.035 98.4658 705.594 98.9994C705.153 99.5312 704.821 100.165 704.61 100.884C704.398 101.6 704.291 102.379 704.291 103.202C704.291 104.039 704.402 104.819 704.621 105.52C704.842 106.227 705.196 106.85 705.674 107.366C706.151 107.885 706.764 108.292 707.5 108.575C708.23 108.857 709.117 109.004 710.136 109.002C712.232 108.995 713.337 108.527 713.792 108.276C713.872 108.231 713.949 108.153 713.853 107.928L713.378 106.598C713.307 106.4 713.105 106.473 713.105 106.473C712.586 106.666 711.847 107.012 710.125 107.009C708.999 107.007 708.164 106.675 707.641 106.156C707.104 105.624 706.841 104.842 706.795 103.739L714.056 103.746C714.056 103.746 714.247 103.743 714.267 103.557C714.274 103.479 714.517 102.065 714.051 100.429Z" fill="#D0EFF9"/>
<path d="M648.676 101.948C648.78 101.257 648.969 100.682 649.263 100.234C649.708 99.5544 650.386 99.1814 651.339 99.1814C652.292 99.1814 652.922 99.5562 653.375 100.234C653.673 100.682 653.803 101.282 653.855 101.948H648.676ZM655.897 100.429C655.715 99.7418 655.265 99.0476 654.969 98.7299C654.501 98.2266 654.044 97.8751 653.591 97.6788C652.999 97.4254 652.288 97.2576 651.51 97.2576C650.605 97.2576 649.781 97.4093 649.114 97.7234C648.444 98.0375 647.882 98.4658 647.441 98.9994C647.001 99.5312 646.669 100.165 646.458 100.884C646.248 101.6 646.139 102.379 646.139 103.202C646.139 104.039 646.249 104.819 646.469 105.52C646.69 106.227 647.043 106.85 647.522 107.366C647.998 107.885 648.612 108.292 649.347 108.575C650.077 108.857 650.964 109.004 651.983 109.002C654.08 108.995 655.185 108.527 655.64 108.276C655.72 108.231 655.797 108.153 655.701 107.928L655.228 106.598C655.154 106.4 654.953 106.473 654.953 106.473C654.433 106.666 653.696 107.012 651.971 107.009C650.846 107.007 650.011 106.675 649.488 106.156C648.951 105.624 648.689 104.842 648.642 103.739L655.904 103.746C655.904 103.746 656.095 103.743 656.115 103.557C656.122 103.479 656.364 102.065 655.897 100.429Z" fill="#D0EFF9"/>
<path d="M632.981 106.702C632.698 106.476 632.658 106.419 632.562 106.272C632.419 106.049 632.346 105.731 632.346 105.328C632.346 104.689 632.557 104.231 632.994 103.922C632.989 103.924 633.618 103.378 635.1 103.397C636.14 103.412 637.07 103.565 637.07 103.565V106.866H637.072C637.072 106.866 636.149 107.065 635.11 107.127C633.633 107.216 632.976 106.701 632.981 106.702ZM635.871 101.6C635.576 101.579 635.194 101.566 634.737 101.566C634.115 101.566 633.513 101.645 632.949 101.796C632.382 101.948 631.871 102.186 631.432 102.5C630.992 102.815 630.636 103.219 630.379 103.697C630.122 104.175 629.992 104.739 629.992 105.371C629.992 106.013 630.103 106.572 630.324 107.029C630.545 107.488 630.865 107.869 631.272 108.164C631.675 108.458 632.173 108.674 632.751 108.805C633.32 108.935 633.966 109.001 634.673 109.001C635.417 109.001 636.16 108.94 636.879 108.817C637.591 108.696 638.465 108.519 638.708 108.464C638.949 108.407 639.217 108.333 639.217 108.333C639.397 108.289 639.383 108.096 639.383 108.096L639.379 101.456C639.379 99.9994 638.99 98.9197 638.224 98.2505C637.462 97.583 636.34 97.2458 634.889 97.2458C634.345 97.2458 633.469 97.3207 632.944 97.426C632.944 97.426 631.357 97.733 630.704 98.2433C630.704 98.2433 630.561 98.3326 630.64 98.5325L631.154 99.9137C631.218 100.092 631.391 100.032 631.391 100.032C631.391 100.032 631.447 100.01 631.511 99.9726C632.908 99.2124 634.675 99.2356 634.675 99.2356C635.46 99.2356 636.063 99.3926 636.47 99.7049C636.866 100.008 637.068 100.467 637.068 101.434V101.741C636.443 101.652 635.871 101.6 635.871 101.6Z" fill="#D0EFF9"/>
<path d="M694.437 97.8586C694.492 97.6944 694.376 97.6159 694.328 97.598C694.205 97.5499 693.588 97.4196 693.111 97.3892C692.199 97.3339 691.692 97.4874 691.239 97.6908C690.789 97.8943 690.29 98.2227 690.011 98.5956V97.7123C690.011 97.5891 689.924 97.491 689.803 97.491H687.941C687.82 97.491 687.732 97.5891 687.732 97.7123V108.543C687.732 108.664 687.832 108.764 687.954 108.764H689.861C689.983 108.764 690.081 108.664 690.081 108.543V103.132C690.081 102.406 690.161 101.681 690.322 101.226C690.479 100.776 690.693 100.416 690.957 100.157C691.223 99.9002 691.525 99.7199 691.855 99.6182C692.192 99.5147 692.565 99.4808 692.829 99.4808C693.209 99.4808 693.627 99.5789 693.627 99.5789C693.766 99.595 693.845 99.5093 693.891 99.3826C694.016 99.0507 694.369 98.0567 694.437 97.8586Z" fill="#D0EFF9"/>
<path d="M676.528 92.8388C676.296 92.7674 676.085 92.7192 675.811 92.6675C675.532 92.6175 675.2 92.5925 674.824 92.5925C673.51 92.5925 672.475 92.9637 671.749 93.6954C671.026 94.4235 670.535 95.5317 670.289 96.9897L670.2 97.4805H668.551C668.551 97.4805 668.351 97.4734 668.308 97.6911L668.039 99.2026C668.019 99.3454 668.082 99.4364 668.274 99.4364H669.879L668.251 108.524C668.124 109.255 667.978 109.857 667.816 110.313C667.657 110.763 667.502 111.1 667.309 111.347C667.123 111.582 666.948 111.757 666.645 111.859C666.395 111.943 666.106 111.982 665.79 111.982C665.615 111.982 665.382 111.954 665.208 111.918C665.037 111.884 664.946 111.846 664.816 111.791C664.816 111.791 664.628 111.72 664.553 111.907C664.495 112.062 664.066 113.238 664.015 113.383C663.965 113.528 664.036 113.64 664.127 113.674C664.341 113.749 664.5 113.799 664.791 113.868C665.194 113.963 665.535 113.968 665.854 113.968C666.522 113.968 667.132 113.874 667.637 113.692C668.144 113.508 668.587 113.188 668.979 112.757C669.402 112.289 669.668 111.8 669.921 111.131C670.173 110.471 670.389 109.65 670.56 108.693L672.197 99.4364H674.588C674.588 99.4364 674.79 99.4435 674.831 99.224L675.102 97.7143C675.12 97.5697 675.059 97.4805 674.865 97.4805H672.543C672.556 97.4287 672.661 96.6114 672.927 95.8423C673.041 95.5157 673.255 95.2498 673.435 95.0677C673.614 94.8893 673.819 94.7626 674.044 94.6894C674.274 94.6145 674.536 94.5788 674.824 94.5788C675.041 94.5788 675.257 94.6037 675.42 94.6376C675.645 94.6858 675.732 94.7108 675.791 94.7287C676.028 94.8 676.06 94.7304 676.107 94.6162L676.662 93.0922C676.719 92.928 676.578 92.8584 676.528 92.8388Z" fill="#D0EFF9"/>
<path d="M644.089 108.543C644.089 108.665 644.002 108.763 643.881 108.763H641.955C641.834 108.763 641.748 108.665 641.748 108.543V93.0458C641.748 92.9245 641.834 92.8263 641.955 92.8263H643.881C644.002 92.8263 644.089 92.9245 644.089 93.0458V108.543Z" fill="#D0EFF9"/>
<path d="M340.711 425.236V452.408H318.205L340.711 425.236ZM340.711 415.486C340.711 418.47 339.525 421.332 337.415 423.443C335.305 425.553 332.442 426.739 329.458 426.739C326.474 426.739 323.611 425.553 321.501 423.443C319.391 421.332 318.205 418.47 318.205 415.486H340.711ZM344.418 452.41C344.418 449.426 345.604 446.564 347.714 444.453C349.825 442.343 352.687 441.157 355.671 441.157C358.656 441.157 361.518 442.343 363.628 444.453C365.739 446.564 366.924 449.426 366.924 452.41H344.418ZM344.418 442.66V415.486H366.929L344.418 442.657V442.66Z" fill="#1B263A"/>
<mask id="mask0_2500_200" style="mask-type:alpha" maskUnits="userSpaceOnUse" x="441" y="303" width="60" height="26">
<path d="M500.937 328.451H441.023V303.783H500.937V328.451Z" fill="white"/>
</mask>
<g mask="url(#mask0_2500_200)">
<path fill-rule="evenodd" clip-rule="evenodd" d="M480.503 309.867H444.065C442.384 309.867 441.023 308.506 441.023 306.826C441.023 305.145 442.384 303.785 444.065 303.785H480.503C482.184 303.785 483.544 305.145 483.544 306.826C483.544 308.506 482.184 309.867 480.503 309.867Z" fill="#1B263A"/>
<path fill-rule="evenodd" clip-rule="evenodd" d="M472.69 328.496C469.722 328.496 466.79 328.055 463.977 327.183C463.207 326.945 462.563 326.41 462.187 325.696C461.811 324.983 461.733 324.149 461.972 323.379C462.469 321.767 464.177 320.87 465.777 321.371C468.007 322.063 470.332 322.413 472.69 322.413C483.01 322.413 491.97 315.791 494.988 305.93C495.104 305.548 495.295 305.193 495.55 304.885C495.804 304.577 496.116 304.322 496.469 304.135C496.822 303.948 497.208 303.832 497.605 303.794C498.003 303.756 498.404 303.797 498.785 303.915C500.391 304.401 501.294 306.104 500.803 307.709C496.999 320.141 485.701 328.496 472.69 328.496Z" fill="#1B263A"/>
</g>
<path fill-rule="evenodd" clip-rule="evenodd" d="M501.316 294.415H464.879C463.199 294.415 461.838 293.054 461.838 291.374C461.838 289.694 463.199 288.333 464.879 288.333H501.316C502.996 288.333 504.357 289.694 504.357 291.374C504.357 293.054 502.996 294.415 501.316 294.415Z" fill="#1B263A"/>
<path fill-rule="evenodd" clip-rule="evenodd" d="M447.485 294.416C447.009 294.416 446.54 294.305 446.116 294.091C445.691 293.877 445.322 293.566 445.039 293.183C444.757 292.801 444.567 292.358 444.487 291.889C444.407 291.42 444.437 290.939 444.577 290.484C448.382 278.053 459.68 269.703 472.689 269.703C475.66 269.703 478.592 270.144 481.402 271.017C481.784 271.135 482.138 271.327 482.446 271.583C482.753 271.838 483.007 272.151 483.193 272.504C483.379 272.858 483.494 273.244 483.531 273.642C483.568 274.04 483.526 274.441 483.407 274.822C483.289 275.204 483.098 275.559 482.842 275.866C482.587 276.174 482.274 276.428 481.92 276.614C481.567 276.8 481.18 276.915 480.782 276.951C480.385 276.988 479.983 276.945 479.602 276.827C477.374 276.142 475.048 275.793 472.689 275.793C462.372 275.793 453.41 282.415 450.392 292.276C450.202 292.898 449.816 293.443 449.293 293.83C448.77 294.218 448.137 294.427 447.486 294.428" fill="#1B263A"/>
<path fill-rule="evenodd" clip-rule="evenodd" d="M493.783 279.785C493.783 280.591 493.463 281.365 492.893 281.935C492.322 282.506 491.549 282.826 490.742 282.826C489.936 282.826 489.162 282.506 488.592 281.935C488.021 281.365 487.701 280.591 487.701 279.785C487.701 278.978 488.021 278.205 488.592 277.634C489.162 277.064 489.936 276.744 490.742 276.744C491.549 276.744 492.322 277.064 492.893 277.634C493.463 278.205 493.783 278.978 493.783 279.785ZM457.68 318.419C457.68 319.226 457.36 319.999 456.789 320.57C456.219 321.14 455.445 321.46 454.639 321.46C453.832 321.46 453.059 321.14 452.488 320.57C451.918 319.999 451.598 319.226 451.598 318.419C451.598 317.613 451.918 316.839 452.488 316.269C453.059 315.698 453.832 315.378 454.639 315.378C455.445 315.378 456.219 315.698 456.789 316.269C457.36 316.839 457.68 317.613 457.68 318.419Z" fill="#1B263A"/>
<path d="M351.434 311.898L351.434 247.061C351.434 235.199 341.802 225.547 329.965 225.547L274.676 225.547C274.529 225.547 274.455 225.474 274.308 225.474C243.428 218.622 235.635 189.887 234.238 183.551L234.238 154.227C234.238 146.564 228.062 140.302 220.342 140.302L169.832 140.302C162.112 140.302 155.863 146.564 155.863 154.227L155.863 205.065C155.863 212.801 162.112 218.99 169.759 218.99L199.021 218.99C237.547 226.21 243.355 256.492 244.017 261.355L244.017 311.751C244.017 323.613 253.648 333.265 265.485 333.265L329.965 333.265C341.802 333.412 351.434 323.76 351.434 311.898Z" fill="#1B263A"/>
<path d="M210.65 177.851C209.718 176.248 208.407 174.962 206.768 173.995C205.544 173.282 204.274 172.829 202.843 172.635V167.541C204.274 166.934 205.162 165.589 205.162 164.02C205.162 161.882 203.447 160.149 201.311 160.149C199.172 160.149 197.427 161.882 197.427 164.02C197.427 165.589 198.264 166.934 199.695 167.541V172.637C198.55 172.803 197.363 173.16 196.279 173.708C194.065 172.026 186.805 166.51 182.558 163.288C182.658 162.924 182.736 162.55 182.736 162.155C182.736 159.787 180.818 157.867 178.449 157.867C176.079 157.867 174.162 159.787 174.162 162.155C174.162 164.523 176.081 166.444 178.451 166.444C179.259 166.444 180.006 166.207 180.651 165.819L181.548 166.499L193.864 175.372C193.213 175.97 192.606 176.65 192.121 177.413C191.138 178.969 190.537 180.68 190.537 182.547V182.936C190.537 184.247 190.786 185.484 191.21 186.646C191.584 187.661 192.13 188.583 192.806 189.418L188.719 193.515C188.126 193.295 187.483 193.249 186.866 193.385C186.248 193.52 185.683 193.831 185.237 194.279C184.928 194.586 184.684 194.951 184.517 195.354C184.351 195.756 184.266 196.187 184.267 196.623C184.268 197.508 184.613 198.34 185.239 198.966C185.546 199.274 185.911 199.519 186.313 199.686C186.715 199.853 187.147 199.938 187.582 199.937C188.018 199.938 188.449 199.853 188.851 199.686C189.254 199.519 189.619 199.274 189.926 198.966C190.235 198.658 190.479 198.293 190.646 197.891C190.812 197.489 190.897 197.058 190.896 196.623C190.896 196.28 190.843 195.946 190.744 195.628L194.969 191.403C195.548 191.803 196.173 192.14 196.846 192.43C198.172 193.004 199.637 193.353 201.239 193.353H201.532C203.304 193.353 204.975 192.937 206.546 192.086C208.201 191.186 209.497 189.956 210.475 188.386C211.459 186.811 212.001 185.072 212.001 183.158V183.062C212.001 181.179 211.565 179.442 210.65 177.851ZM205.487 186.715C204.341 187.989 203.023 188.774 201.532 188.774H201.287C200.436 188.774 199.603 188.539 198.788 188.111C197.87 187.64 197.171 186.968 196.6 186.117C196.009 185.282 195.689 184.37 195.689 183.404V183.11C195.689 182.16 195.871 181.258 196.331 180.407C196.822 179.477 197.486 178.753 198.368 178.178C199.235 177.607 200.16 177.327 201.191 177.327H201.287C202.222 177.327 203.106 177.511 203.942 177.938C204.792 178.394 205.487 179.016 206.026 179.835C206.55 180.654 206.861 181.538 206.961 182.5C206.977 182.7 206.985 182.905 206.985 183.101C206.985 184.407 206.486 185.617 205.487 186.715Z" fill="white"/>
<path d="M319.579 255.952H279.961C276.298 255.952 273.375 258.875 273.375 262.467V301.663C273.375 305.256 276.333 308.178 279.961 308.178H319.544C323.206 308.178 326.129 305.256 326.129 301.663V262.503C326.165 258.875 323.206 255.952 319.579 255.952ZM306.796 265.531C306.796 264.58 307.57 263.806 308.556 263.806C309.542 263.806 310.317 264.58 310.317 265.531V288.809C310.317 289.76 309.542 290.535 308.556 290.535C307.57 290.535 306.796 289.76 306.796 288.809V265.531ZM298.027 264.651C298.027 263.7 298.801 262.925 299.787 262.925C300.774 262.925 301.548 263.7 301.548 264.651V289.901C301.548 290.852 300.774 291.627 299.787 291.627C298.801 291.627 298.027 290.852 298.027 289.901V264.651ZM289.222 265.531C289.222 264.58 289.997 263.806 290.983 263.806C291.969 263.806 292.744 264.58 292.744 265.531V288.809C292.744 289.76 291.969 290.535 290.983 290.535C289.997 290.535 289.222 289.76 289.222 288.809V265.531ZM280.418 269.018C280.418 268.067 281.193 267.292 282.179 267.292C283.165 267.292 283.94 268.067 283.94 269.018V284.689C283.94 285.64 283.165 286.415 282.179 286.415C281.193 286.415 280.418 285.64 280.418 284.689V269.018ZM318.523 295.571C318.241 295.817 311.726 301.206 299.787 301.206C287.849 301.206 281.334 295.782 281.052 295.571C280.313 294.937 280.242 293.845 280.876 293.106C281.51 292.366 282.602 292.296 283.341 292.93C283.447 293 289.258 297.754 299.787 297.754C310.458 297.754 316.198 293 316.234 292.965C316.973 292.331 318.065 292.437 318.699 293.141C319.333 293.845 319.262 294.972 318.523 295.571ZM319.121 284.689C319.121 285.64 318.347 286.415 317.361 286.415C316.374 286.415 315.6 285.64 315.6 284.689V269.018C315.6 268.067 316.374 267.292 317.361 267.292C318.347 267.292 319.121 268.067 319.121 269.018V284.689Z" fill="white"/>
<path d="M86.5167 339.653L86.5292 339.597V339.552C86.5309 339.547 86.5339 339.537 86.539 339.522L86.5416 339.514C86.5613 339.455 86.6029 339.332 86.6029 339.172L86.6029 283.883C86.6029 272.336 96.0186 262.939 107.592 262.939H172.429C184.003 262.939 193.414 272.336 193.27 283.876V283.883V348.362C193.27 359.908 183.855 369.306 172.281 369.306H121.885H121.85L121.815 369.311C116.869 369.984 86.2878 375.868 79.0044 414.73L78.9954 414.778V414.827V444.089C78.9954 451.446 73.0407 457.46 65.5953 457.46H14.7572C7.38542 457.46 1.35708 451.446 1.35708 444.015L1.35708 393.505C1.35708 386.078 7.3818 380.134 14.7572 380.134H44.0812H44.1384L44.1942 380.122C50.5547 378.72 79.5916 370.862 86.5167 339.653Z" stroke="white" stroke-width="1.0501"/>
<path d="M715.905 338.66L715.961 338.673L716.006 338.673C716.012 338.674 716.021 338.677 716.036 338.682L716.044 338.685C716.103 338.705 716.227 338.746 716.387 338.746L771.676 338.746C783.222 338.746 792.619 348.162 792.619 359.735L792.619 424.572C792.619 436.147 783.222 445.558 771.682 445.414L771.676 445.414L707.196 445.414C695.65 445.414 686.253 435.998 686.253 424.425L686.253 374.029L686.253 373.993L686.248 373.958C685.575 369.012 679.69 338.431 640.828 331.148L640.78 331.139L640.732 331.139L611.469 331.139C604.112 331.139 598.099 325.184 598.099 317.739L598.099 266.901C598.099 259.529 604.112 253.501 611.543 253.501L662.053 253.501C669.48 253.501 675.424 259.525 675.424 266.901L675.424 296.225L675.424 296.282L675.436 296.338C676.839 302.698 684.696 331.735 715.905 338.66Z" stroke="white" stroke-width="1.0501"/>
<path d="M509.576 157.258L509.576 157.263C509.661 166.224 502.407 173.478 493.532 173.478H432.721C423.756 173.478 416.502 166.22 416.502 157.346V96.7117C416.502 87.8361 423.758 80.58 432.633 80.58H493.444C502.406 80.58 509.576 87.8342 509.576 96.7117L509.576 157.258Z" stroke="#1B263A" stroke-width="1.0501"/>
</svg>
